<svg xmlns="http://www.w3.org/2000/svg" width="30" height="30" viewBox="0 0 30 30">
  <defs>
    <style>
      .cls-1 {
        fill: #ccc;
        fill-rule: evenodd;
      }
    </style>
  </defs>
  <path id="icon-next" class="cls-1" d="M1535,3123a15.005,15.005,0,0,1,0,30.01h0A15.005,15.005,0,0,1,1535,3123Zm-9.1,16.78h13.3l-4.4,4.4a1.683,1.683,0,0,0,2.38,2.38l7.27-7.27a1.678,1.678,0,0,0,0-2.38l-7.27-7.28a1.683,1.683,0,0,0-2.38,2.38l4.4,4.4h-13.3A1.685,1.685,0,0,0,1525.9,3139.78Z" transform="translate(-1520 -3123)"/>
</svg>
