<svg xmlns="http://www.w3.org/2000/svg" width="24" height="24" viewBox="0 0 24 24">
  <defs>
    <style>
      .cls-1 {
        fill: #fff;
        fill-rule: evenodd;
      }
    </style>
  </defs>
  <path id="icon-qijian" class="cls-1" d="M111.63,2649.72l-3.306-6.28a2.6,2.6,0,0,0-2.266-1.44H93.951a2.6,2.6,0,0,0-2.266,1.44l-3.306,6.28a3.2,3.2,0,0,0,.292,3.43L98.038,2665a2.444,2.444,0,0,0,3.713.26,2.955,2.955,0,0,0,.225-0.26l9.362-11.85A3.2,3.2,0,0,0,111.63,2649.72Zm-5.639,2.87-5.213,5.83a1.025,1.025,0,0,1-1.547,0l-5.213-5.83a1.327,1.327,0,0,1,0-1.73,1.025,1.025,0,0,1,1.547,0l4.427,4.96,4.436-4.96a1.026,1.026,0,0,1,1.548,0,1.328,1.328,0,0,1,0,1.73h0.014Z" transform="translate(-88 -2642)"/>
</svg>
