<svg xmlns="http://www.w3.org/2000/svg" width="24" height="24" viewBox="0 0 24 24">
  <defs>
    <style>
      .cls-1 {
        fill: #fff;
        fill-rule: evenodd;
      }
    </style>
  </defs>
  <path id="icon-hezuo" class="cls-1" d="M102.354,4769.94a1.032,1.032,0,0,0-1.579,0l-0.789.89a2.064,2.064,0,0,1-3.158.06,2.736,2.736,0,0,1-.055-3.55l0.055-.06,6.286-7.06a6.96,6.96,0,0,1,7.824,3.74,8.949,8.949,0,0,1-.7,9.51l-2.354,2.68-5.527-6.21h0Zm-12.237-7.54a6.677,6.677,0,0,1,8.942-1.17l-3.811,4.28a5.47,5.47,0,0,0-.081,7.01,4.129,4.129,0,0,0,6.236.26l0.161-.18,4.737,5.32-4.737,5.33a2.077,2.077,0,0,1-3.158,0l-8.291-9.32a8.881,8.881,0,0,1,0-11.53h0Z" transform="translate(-88 -4760)"/>
</svg>
