<svg xmlns="http://www.w3.org/2000/svg" width="24" height="24" viewBox="0 0 24 24">
  <defs>
    <style>
      .cls-1 {
        fill: #00afff;
        fill-rule: evenodd;
      }
    </style>
  </defs>
  <path id="icontese" class="cls-1" d="M102.9,2030c0.27,0,.545-0.01.826-0.02a6.837,6.837,0,0,0,.936-0.1l1.027-4.98h3.265a2.005,2.005,0,0,0,1.449-.58,2.618,2.618,0,0,0,.606-1.94,4.693,4.693,0,0,0-.2-1.37,4.145,4.145,0,0,0-.459-1.05h-3.595l0.807-3.92h2.385a2.016,2.016,0,0,0,1.449-.59,2.623,2.623,0,0,0,.605-1.94,4.594,4.594,0,0,0-.2-1.36,3.991,3.991,0,0,0-.458-1.05h-2.752l0.11-.43c0.074-.37.135-0.73,0.184-1.09a7.511,7.511,0,0,0,.073-0.97,2.427,2.427,0,0,0-.752-2.01,3.643,3.643,0,0,0-2.293-.6h-0.844a6.689,6.689,0,0,0-.954.08l-1.064,5.02H99.783l0.11-.43c0.073-.37.135-0.73,0.184-1.09a7.511,7.511,0,0,0,.073-0.97,2.427,2.427,0,0,0-.752-2.01,3.643,3.643,0,0,0-2.293-.6H96.261a6.679,6.679,0,0,0-.954.08l-1.064,5.02H91.088a2.029,2.029,0,0,0-1.486.6,2.673,2.673,0,0,0-.605,1.96,4.044,4.044,0,0,0,.22,1.31c0.147,0.42.281,0.78,0.4,1.07h3.6l-0.807,3.92H90.1a2,2,0,0,0-1.486.61,2.673,2.673,0,0,0-.605,1.96,3.941,3.941,0,0,0,.22,1.3c0.147,0.43.281,0.79,0.4,1.07h2.752l-0.073.43a10.714,10.714,0,0,0-.22,2.03,2.52,2.52,0,0,0,.734,2.02,3.5,3.5,0,0,0,2.275.62c0.269,0,.544-0.01.826-0.02a6.827,6.827,0,0,0,.935-0.1l1.027-4.98h3.3l-0.074.43a10.722,10.722,0,0,0-.22,2.03,2.519,2.519,0,0,0,.734,2.02A3.493,3.493,0,0,0,102.9,2030Zm-1.687-10.04H97.949l0.807-3.92h3.265Z" transform="translate(-88 -2006)"/>
</svg>
