<svg xmlns="http://www.w3.org/2000/svg" width="30" height="30" viewBox="0 0 30 30">
  <defs>
    <style>
      .cls-1 {
        fill: #00afff;
        fill-rule: evenodd;
      }
    </style>
  </defs>
  <path id="icon-yx" class="cls-1" d="M155,4437a15.005,15.005,0,1,0,14.992,15.01A15,15,0,0,0,155,4437Zm8.379,20.69a2.924,2.924,0,0,1-2.1,1.24H148.705a2.759,2.759,0,0,1-2.1-1.24v-8.27s5.98,5.22,8.379,5.22c2.416,0,8.379-5.23,8.379-5.23v8.28h0.017Zm0-10.62s-7.08,5.82-8.379,5.82-8.379-5.83-8.379-5.83v-0.29c0-.8,1.266-1.66,2.1-1.66H161.3c0.833,0,2.1.86,2.1,1.66v0.3h-0.017Z" transform="translate(-140 -4437)"/>
</svg>
