<svg xmlns="http://www.w3.org/2000/svg" width="24" height="24" viewBox="0 0 24 24">
  <defs>
    <style>
      .cls-1 {
        fill: #00afff;
        fill-rule: evenodd;
      }
    </style>
  </defs>
  <path id="icon-hexin" class="cls-1" d="M141.307,693.632a10.8,10.8,0,0,0,.377-2.836,11.185,11.185,0,0,0-6.7-10.14,4.576,4.576,0,0,1,.032.536,4.64,4.64,0,0,1-.842,2.666,8.306,8.306,0,0,1,1.735,1.279,7.978,7.978,0,0,1,1.788,2.545,7.761,7.761,0,0,1,.482,4.743,3.335,3.335,0,0,0-2.4,1.566,3.131,3.131,0,0,0,1.22,4.373,3.413,3.413,0,0,0,4.557-1.171A3.1,3.1,0,0,0,141.307,693.632ZM136.676,700a5.169,5.169,0,0,1-.508-0.246,4.864,4.864,0,0,1-1.981-2.025,8.307,8.307,0,0,1-.932.447,8.708,8.708,0,0,1-6.489,0,8.359,8.359,0,0,1-2.324-1.419,3.084,3.084,0,0,0-.22-2.762,3.412,3.412,0,0,0-4.556-1.172,3.132,3.132,0,0,0-1.221,4.373,3.384,3.384,0,0,0,3.356,1.57A12.049,12.049,0,0,0,136.676,700Zm-17.844-8.563a5.139,5.139,0,0,1,2.84-.633v0a7.677,7.677,0,0,1,.654-3.114,7.994,7.994,0,0,1,1.788-2.545,8.325,8.325,0,0,1,2.652-1.716q0.315-.128.639-0.23a3.383,3.383,0,0,0,2.606,1.2,3.2,3.2,0,1,0,0-6.4,3.34,3.34,0,0,0-3.092,2,11.293,11.293,0,0,0-8.582,10.807q0,0.466.039,0.923A4.973,4.973,0,0,1,118.832,691.434Zm7.009-2.942,4.17-2.306,4.169,2.306v4.61l-4.169,2.305-4.17-2.305v-4.61Z" transform="translate(-118 -678)"/>
</svg>
