<?xml version="1.0" standalone="no"?><!DOCTYPE svg PUBLIC "-//W3C//DTD SVG 1.1//EN" "http://www.w3.org/Graphics/SVG/1.1/DTD/svg11.dtd"><svg t="1629249414064" class="icon" viewBox="0 0 1024 1024" version="1.1" xmlns="http://www.w3.org/2000/svg" p-id="3137" xmlns:xlink="http://www.w3.org/1999/xlink" width="384" height="384"><defs><style type="text/css"></style></defs><path d="M832.7 9H199.9c-52.6 0-91.1 30-95.9 74.5l-0.1 0.8v854.5c0 48.7 39.5 82.7 96 82.7h632.7c53.2 0 96.5-34.2 96.5-76.2V85.2c0.1-42-43.2-76.2-96.4-76.2z m32.1 902.7c0.8 34.5-37.8 45.8-54.7 45.8h-373L713.8 922c23-3.5 54.5-17.2 54.5-47V151.5c0-35.6-31.5-43.5-54.6-47.1l-291.1-36h387.5c16.9 0 55.5 10.3 54.7 45.7v797.6zM581.3 515.3c0-24.6 20.2-44.6 45-44.6 24.6 0 44.7 20 44.7 44.6s-20 44.6-44.7 44.6c-24.8 0-45-20-45-44.6z"  p-id="3138"></path></svg>