<svg xmlns="http://www.w3.org/2000/svg" width="30" height="30" viewBox="0 0 30 30">
  <defs>
    <style>
      .cls-1 {
        fill: #00afff;
        fill-rule: evenodd;
      }
    </style>
  </defs>
  <path id="icon-xxzl" class="cls-1" d="M1242,1656h-14a8,8,0,0,1-8-8v-14a8,8,0,0,1,8-8h14a8,8,0,0,1,8,8v14A8,8,0,0,1,1242,1656Zm-16.52-9.89,8.31,4.63a2.735,2.735,0,0,0,2.37,0l8.31-4.63a0.691,0.691,0,0,0-.02-1.33l-1.1-.61-6.38,3.56a4.407,4.407,0,0,1-4,0l-6.39-3.56-1.1.62A0.691,0.691,0,0,0,1225.48,1646.11Zm18.99-5.79-1.1-.61-6.39,3.56a4.327,4.327,0,0,1-4,0l-6.39-3.56-1.1.61a0.691,0.691,0,0,0,0,1.32l8.31,4.63a2.735,2.735,0,0,0,2.37,0l8.31-4.63A0.689,0.689,0,0,0,1244.47,1640.32Zm0.01-4.45-8.3-4.62a2.735,2.735,0,0,0-2.37,0l-8.3,4.62a0.685,0.685,0,0,0-.02,1.32l8.31,4.63a2.735,2.735,0,0,0,2.37,0l8.31-4.63A0.691,0.691,0,0,0,1244.48,1635.87Z" transform="translate(-1220 -1626)"/>
</svg>
