<svg xmlns="http://www.w3.org/2000/svg" width="20" height="20" viewBox="0 0 20 20">
  <defs>
    <style>
      .cls-1 {
        fill: #04ae0f;
        fill-rule: evenodd;
      }
    </style>
  </defs>
  <path id="icon-mark" class="cls-1" d="M5615,236A10,10,0,1,0,5625,246,10,10,0,0,0,5615,236h0Zm5.73,7.407-6.47,6.465a0.9,0.9,0,0,1-1.28.02,0.041,0.041,0,0,0-.02-0.02l-3.72-3.724a0.92,0.92,0,0,1,1.3-1.3l3.09,3.085,5.82-5.8a0.919,0.919,0,1,1,1.35,1.247,0.223,0.223,0,0,1-.05.053l-0.02-.025h0Z" transform="translate(-5605 -236)"/>
</svg>
