<svg xmlns="http://www.w3.org/2000/svg" width="30" height="30" viewBox="0 0 30 30">
  <defs>
    <style>
      .cls-1 {
        fill: #00afff;
        fill-rule: evenodd;
      }
    </style>
  </defs>
  <path id="icon-dh" class="cls-1" d="M155,4277a15,15,0,1,0,15,15A14.993,14.993,0,0,0,155,4277Zm7.208,21.95a3.152,3.152,0,0,1-1.51,1.45l-0.643.38c-1.889,1.16-6.234-1.5-9.351-6.08s-3.944-9.47-2.025-10.66l0.253-.16,0.273-.18a3.168,3.168,0,0,1,2.327-.75,2.809,2.809,0,0,1,1.89,1.66c1.11,2.09.867,3.08-.565,3.99-0.107.07-.467,0.29-0.506,0.31-0.351.22,0.243,1.68,1.626,3.7,1.413,2.08,2.581,3.2,2.971,2.96l0.506-.32c0.166-.1.341-0.19,0.527-0.28,1.139-.52,2.152-0.16,3.477,1.4,0.828,0.97,1.071,1.82.75,2.58h0Z" transform="translate(-140 -4277)"/>
</svg>
