<svg xmlns="http://www.w3.org/2000/svg" width="20" height="16" viewBox="0 0 20 16">
  <defs>
    <style>
      .cls-1 {
        fill-rule: evenodd;
      }
    </style>
  </defs>
  <path id="icon-wechat" class="cls-1" d="M423.078,783.007c-3.89,0-7.078,2.6-7.078,5.91a5.673,5.673,0,0,0,2.832,4.688l-0.708,2.092,2.474-1.219a12.258,12.258,0,0,0,2.48.35c0.222,0,.442-0.011.661-0.028a5.1,5.1,0,0,1-.219-1.456,5.753,5.753,0,0,1,6.019-5.5,6.2,6.2,0,0,1,.682.041c-0.613-2.8-3.662-4.88-7.143-4.88h0Zm-2.3,4.692a0.887,0.887,0,1,1,0-1.737A0.869,0.869,0,1,1,420.78,787.7Zm4.954,0a0.886,0.886,0,1,1,0-1.737A0.869,0.869,0,1,1,425.734,787.7ZM436,793.26c0-2.776-2.832-5.041-6.012-5.041-3.368,0-6.021,2.265-6.021,5.041s2.653,5.042,6.021,5.042a9.058,9.058,0,0,0,2.124-.348L434.053,799l-0.532-1.736A5.247,5.247,0,0,0,436,793.26Zm-7.964-.868a0.7,0.7,0,1,1,0-1.39A0.716,0.716,0,1,1,428.036,792.392Zm3.894,0a0.7,0.7,0,1,1,0-1.39A0.716,0.716,0,1,1,431.93,792.392Z" transform="translate(-416 -783)"/>
</svg>
