<svg xmlns="http://www.w3.org/2000/svg" width="24" height="24" viewBox="0 0 24 24">
  <defs>
    <style>
      .cls-1 {
        fill: #aaa;
        fill-rule: evenodd;
      }
    </style>
  </defs>
  <path id="icon-shi-gray" class="cls-1" d="M704,792H688a4,4,0,0,1-4-4V772a4,4,0,0,1,4-4h16a4,4,0,0,1,4,4v16A4,4,0,0,1,704,792Zm-8.961-6.006a4.821,4.821,0,0,0,.068.9,1,1,0,0,0,.268.549,1.136,1.136,0,0,0,.552.283,4.075,4.075,0,0,0,.9.083h4.389a4.291,4.291,0,0,0,.93-0.083,1.026,1.026,0,0,0,.552-0.3,1.15,1.15,0,0,0,.261-0.566,4.882,4.882,0,0,0,.066-0.882V782.1a3.736,3.736,0,0,0-.092-0.924,1.184,1.184,0,0,0-.3-0.566,1.092,1.092,0,0,0-.562-0.283,4.234,4.234,0,0,0-.869-0.075h-4.373a3.745,3.745,0,0,0-.9.091,1.077,1.077,0,0,0-.545.308,1.241,1.241,0,0,0-.268.575,4.27,4.27,0,0,0-.075.874v3.9Zm-1.442-5.886a21.819,21.819,0,0,0,.354-3.6,2.86,2.86,0,0,0-.084-0.865,1.124,1.124,0,0,0-.3-0.516,1.017,1.017,0,0,0-.5-0.242,3.4,3.4,0,0,0-.662-0.058h-0.988c0.035-.267.067-0.536,0.1-0.808s0.06-.546.082-0.824a1.533,1.533,0,0,0-.1-0.916,0.817,0.817,0,0,0-.753-0.283,0.88,0.88,0,0,0-.753.242,1.809,1.809,0,0,0-.2.891q-0.034.432-.066,0.849c-0.024.277-.046,0.56-0.07,0.849h-0.568a1.507,1.507,0,0,0-.837.175,0.812,0.812,0,0,0-.252.707,0.917,0.917,0,0,0,.252.741,1.316,1.316,0,0,0,.837.208h0.351q-0.15,1.034-.344,1.957t-0.376,1.656q-0.134.485-.191,0.816a1.918,1.918,0,0,0-.028.583,1.084,1.084,0,0,0,.168.45,2.651,2.651,0,0,0,.386.432q0.387,0.334.712,0.625l0.662,0.591a11.136,11.136,0,0,1-.788,1.19q-0.435.576-.954,1.158a1.986,1.986,0,0,0-.545.857,0.813,0.813,0,0,0,.329.741,0.829,0.829,0,0,0,.692.283,1.678,1.678,0,0,0,.832-0.533,11.186,11.186,0,0,0,1.809-2.381c0.065,0.067.129,0.131,0.191,0.192s0.126,0.13.193,0.208a2.721,2.721,0,0,0,.779.625,0.712,0.712,0,0,0,.762-0.175q0.906-.717-0.117-1.715-0.234-.234-0.477-0.442c-0.163-.138-0.323-0.285-0.478-0.441A16.378,16.378,0,0,0,693.6,780.108Zm10.237-1.373c-0.19-.444-0.367-0.85-0.527-1.216s-0.325-.71-0.487-1.032-0.326-.636-0.494-0.941-0.341-.613-0.52-0.924a1.34,1.34,0,0,0-.676-0.624,0.787,0.787,0,0,0-.763.124,1.01,1.01,0,0,0-.3.242,0.635,0.635,0,0,0-.143.333,1.124,1.124,0,0,0,.05.449,2.653,2.653,0,0,0,.293.608c0.09,0.144.184,0.3,0.285,0.467s0.2,0.349.3,0.549c-0.58.056-1.143,0.111-1.683,0.166s-1.148.112-1.819,0.167c-0.256.056-.274-0.044-0.049-0.3q0.3-.366.57-0.707t0.518-.708q0.252-.366.5-0.758t0.537-.857a2.644,2.644,0,0,0,.225-0.408,1.142,1.142,0,0,0,.1-0.408,0.774,0.774,0,0,0-.075-0.375,0.879,0.879,0,0,0-.3-0.324,0.864,0.864,0,0,0-.874-0.225,1.349,1.349,0,0,0-.653.691,17.227,17.227,0,0,1-1.365,2.264,22.723,22.723,0,0,1-1.5,1.915,2.171,2.171,0,0,0-.4.649,1.7,1.7,0,0,0-.118.583q0,1.067,1.342.966l5.913-.533c0.077,0.167.15,0.342,0.217,0.525s0.146,0.369.233,0.558a1.564,1.564,0,0,0,.471.7,0.68,0.68,0,0,0,.769-0.05,0.889,0.889,0,0,0,.571-0.616A1.609,1.609,0,0,0,703.835,778.735Zm-12.58,3.346c-0.091-.077-0.177-0.15-0.261-0.216a2.89,2.89,0,0,1-.242-0.217,2.028,2.028,0,0,1-.268-0.274,0.341,0.341,0,0,1-.033-0.275q0.183-1.032.376-2.139c0.129-.739.247-1.508,0.36-2.307h0.553a0.52,0.52,0,0,1,.394.1,0.745,0.745,0,0,1,.058.433,17.408,17.408,0,0,1-.277,2.589A12.349,12.349,0,0,1,691.255,782.081Zm6.03,0.15h3.485a0.313,0.313,0,0,1,.384.316v2.981a0.312,0.312,0,0,1-.384.316h-3.485a0.453,0.453,0,0,1-.31-0.075,0.324,0.324,0,0,1-.075-0.241v-2.981A0.314,0.314,0,0,1,697.285,782.231Z" transform="translate(-684 -768)"/>
</svg>
