<svg xmlns="http://www.w3.org/2000/svg" width="40" height="40" viewBox="0 0 40 40">
  <defs>
    <style>
      .cls-1 {
        fill: #00afff;
        fill-rule: evenodd;
      }
    </style>
  </defs>
  <path id="icon-gengduo" class="cls-1" d="M108,2432H92a12,12,0,0,1-12-12v-16a12,12,0,0,1,12-12h16a12,12,0,0,1,12,12v16A12,12,0,0,1,108,2432Zm-15.641-6a6.365,6.365,0,0,0,6.36-6.36v-3.82a2.545,2.545,0,0,0-2.54-2.54H92.361A6.366,6.366,0,0,0,86,2419.64h0A6.364,6.364,0,0,0,92.359,2426Zm6.362-21.62a6.361,6.361,0,1,0-6.361,6.36h3.819a2.545,2.545,0,0,0,2.542-2.54v-3.82Zm8.9-6.37a6.373,6.373,0,0,0-6.36,6.37v3.82a2.55,2.55,0,0,0,2.54,2.54h3.82A6.365,6.365,0,0,0,107.625,2398.01Zm0,15.27a1.275,1.275,0,0,0,0,2.55h0a3.815,3.815,0,1,1-3.816,3.81v-4.69a1.273,1.273,0,0,0-2.544,0v4.69A6.361,6.361,0,1,0,107.625,2413.28Zm0-5.09h-3.816v-3.81A3.817,3.817,0,1,1,107.625,2408.19Zm-11.451,0H92.359a3.815,3.815,0,1,1,3.816-3.81h0v3.81Zm-3.813,7.64h3.813v3.81A3.816,3.816,0,1,1,92.361,2415.83Z" transform="translate(-80 -2392)"/>
</svg>
