<svg xmlns="http://www.w3.org/2000/svg" width="30" height="30" viewBox="0 0 30 30">
  <defs>
    <style>
      .cls-1 {
        fill: #00afff;
        fill-rule: evenodd;
      }
    </style>
  </defs>
  <path id="icon-xmmb" class="cls-1" d="M132,1060H118a8,8,0,0,1-8-8v-14a8,8,0,0,1,8-8h14a8,8,0,0,1,8,8v14A8,8,0,0,1,132,1060Zm2-18.91a2.771,2.771,0,0,0-2.717-2.79h-4.551l-0.864-1.18a2.684,2.684,0,0,0-2.177-1.12h-4.975a2.756,2.756,0,0,0-2.717,2.8v12.41a2.754,2.754,0,0,0,2.717,2.79h12.567a2.761,2.761,0,0,0,2.717-2.8v-10.11Zm-6.306,7.51h-5.4a0.9,0.9,0,0,1,0-1.8h5.4A0.9,0.9,0,0,1,127.694,1048.6Zm0-3.6h-5.4a0.9,0.9,0,0,1,0-1.8h5.4A0.9,0.9,0,0,1,127.694,1045Z" transform="translate(-110 -1030)"/>
</svg>
