<svg xmlns="http://www.w3.org/2000/svg" width="14" height="14" viewBox="0 0 14 14">
  <defs>
    <style>
      .cls-1 {
        fill: #fb664a;
        fill-rule: evenodd;
      }
    </style>
  </defs>
  <path id="icon-tuichu" class="cls-1" d="M1417.81,72.408a7.191,7.191,0,0,0-.56-1.511,6.855,6.855,0,0,0-.89-1.339,7.194,7.194,0,0,0-1.19-1.121,0.989,0.989,0,0,0-1.39.2,0.923,0.923,0,0,0-.19.732,0.961,0.961,0,0,0,.39.653,4.826,4.826,0,0,1,1.51,1.761,5,5,0,0,1-.94,5.77,5.254,5.254,0,0,1-1.6,1.074,4.806,4.806,0,0,1-1.95.395,4.863,4.863,0,0,1-1.94-.4,5.067,5.067,0,0,1-1.59-1.076,4.9,4.9,0,0,1-1.08-1.589,4.717,4.717,0,0,1-.4-1.939,4.845,4.845,0,0,1,.56-2.3,4.91,4.91,0,0,1,1.58-1.784,0.912,0.912,0,0,0,.41-0.639,0.968,0.968,0,0,0-.8-1.145,0.984,0.984,0,0,0-.75.164,6.784,6.784,0,0,0-1.25,1.13,6.825,6.825,0,0,0-1.74,4.57,6.726,6.726,0,0,0,.56,2.718,7.035,7.035,0,0,0,3.72,3.7,6.963,6.963,0,0,0,5.44,0,7.224,7.224,0,0,0,2.23-1.494,6.793,6.793,0,0,0,1.5-2.211,6.981,6.981,0,0,0,.36-4.334h0Zm-6.74,2.052a0.89,0.89,0,0,0,.65-0.272,0.866,0.866,0,0,0,.28-0.654V67.943a0.9,0.9,0,0,0-.28-0.663,0.918,0.918,0,0,0-1.32,0,0.89,0.89,0,0,0-.28.663v5.588a0.871,0.871,0,0,0,.28.654A0.894,0.894,0,0,0,1411.07,74.46Z" transform="translate(-1404 -67)"/>
</svg>
