<?xml version="1.0" standalone="no"?><!DOCTYPE svg PUBLIC "-//W3C//DTD SVG 1.1//EN" "http://www.w3.org/Graphics/SVG/1.1/DTD/svg11.dtd"><svg t="1597823864689" class="icon" viewBox="0 0 1062 1024" version="1.1" xmlns="http://www.w3.org/2000/svg" p-id="1889" xmlns:xlink="http://www.w3.org/1999/xlink" width="207.421875" height="200"><defs><style type="text/css"></style></defs><path d="M911.36 614.4a412.777931 412.777931 0 0 0 47.668966-192.794483c0-228.811034-186.085517-414.896552-414.896552-414.896551s-414.896552 186.085517-414.896552 414.896551c0 60.204138 12.888276 117.230345 36.016552 168.96L0 856.275862l174.256552 5.826207 91.277241 155.188965 129.765517-208.684137a413.766621 413.766621 0 0 0 276.303449 7.591724l124.99862 200.915862 91.277242-155.188966 174.256551-5.826207-150.775172-241.69931zM267.475862 846.742069l-41.842759-71.150345-70.091034-2.295172 53.671724-86.333793 36.89931 22.951724c21.186207 21.892414 44.667586 41.313103 70.091035 58.262069l-48.728276 78.565517z m129.235862-134.002759c-7.062069-3.707586-14.124138-7.591724-21.009655-11.652413-1.765517-1.05931-3.531034-2.118621-5.12-3.177931-6.355862-3.884138-12.535172-8.121379-18.537931-12.535173l-6.002759-4.413793c-5.826207-4.413793-11.475862-9.004138-16.772413-13.771034-1.942069-1.588966-3.707586-3.354483-5.473104-4.943449-5.473103-4.943448-10.769655-10.063448-15.889655-15.536551-55.790345-58.615172-90.394483-137.710345-90.394483-224.926897 0-180.082759 146.537931-326.62069 326.62069-326.62069s326.62069 146.537931 326.620689 326.62069c0 73.798621-24.893793 141.594483-66.206896 196.325517-11.29931 14.830345-23.657931 28.601379-37.075862 41.313104a448.264828 448.264828 0 0 1-19.244138 16.948965c-6.532414 5.296552-13.064828 10.24-20.126897 15.006897l-5.826207 3.707586c-6.17931 4.06069-12.535172 7.944828-19.067586 11.652414-2.118621 1.235862-4.06069 2.295172-6.17931 3.531034a323.778207 323.778207 0 0 1-152.893793 38.135173c-52.965517-0.176552-102.929655-13.241379-147.42069-35.663449z m439.437242 62.852414l-41.842759 71.150345-41.489655-66.736552c0.706207-0.353103 1.412414-0.882759 2.11862-1.412414 8.474483-5.12 16.772414-10.416552 24.893794-16.066206 1.05931-0.706207 2.118621-1.412414 3.177931-2.295173 27.188966-19.244138 51.906207-41.666207 73.79862-66.56l49.434483 79.448276-70.091034 2.471724z" fill="#1296db" p-id="1890"></path><path d="M539.718621 250.703448l54.201379 109.638621 120.937931 17.478621-87.569655 85.451034 20.656552 120.584828-108.226207-57.026207-108.226207 57.026207 20.656552-120.584828-87.569656-85.451034 120.937931-17.478621z" fill="#1296db" p-id="1891"></path></svg>