<svg xmlns="http://www.w3.org/2000/svg" width="24" height="24" viewBox="0 0 24 24">
  <defs>
    <style>
      .cls-1 {
        fill: #f80;
        fill-rule: evenodd;
      }
    </style>
  </defs>
  <path id="icon-zhong" class="cls-1" d="M962,344H946a4,4,0,0,1-4-4V324a4,4,0,0,1,4-4h16a4,4,0,0,1,4,4v16A4,4,0,0,1,962,344Zm-9.057-6.653a0.992,0.992,0,0,0,.613.431q0.927,0.252,1.667.481c0.49,0.152.966,0.3,1.423,0.456s0.923,0.318,1.393.5,0.99,0.383,1.565.608a2.034,2.034,0,0,0,.853.178,0.628,0.628,0,0,0,.522-0.414,1.067,1.067,0,0,0,.117-0.811,1.234,1.234,0,0,0-.564-0.592,12.014,12.014,0,0,0-1.251-.591q-0.771-.321-1.657-0.626t-1.806-.565q-0.921-.262-1.715-0.431a1.047,1.047,0,0,0-.786.05,1.009,1.009,0,0,0-.407.592A0.92,0.92,0,0,0,952.944,337.347Zm7.325-1.8a0.883,0.883,0,0,0-.5-0.625,12.586,12.586,0,0,0-1.574-.879q-0.829-.389-1.891-0.828a1.127,1.127,0,0,0-.744-0.076,0.725,0.725,0,0,0-.5.482,0.985,0.985,0,0,0-.042.777,1.236,1.236,0,0,0,.672.507c0.619,0.236,1.162.464,1.633,0.684a13.008,13.008,0,0,1,1.4.769,1.553,1.553,0,0,0,.786.279,0.677,0.677,0,0,0,.537-0.431A1.073,1.073,0,0,0,960.269,335.547Zm-14.25,3.447a0.784,0.784,0,0,0,.379.634,1.382,1.382,0,0,0,.879.008,17.265,17.265,0,0,0,2.029-.549,19.526,19.526,0,0,0,2.081-.836,1.4,1.4,0,0,0,.645-0.507,0.984,0.984,0,0,0,0-.761q-0.28-.98-1.424-0.456c-0.31.135-.607,0.262-0.895,0.38s-0.576.226-.87,0.321-0.6.189-.928,0.279-0.676.18-1.052,0.271a1.132,1.132,0,0,0-.744.43A1.1,1.1,0,0,0,946.019,338.994Zm5.632-11.693a0.935,0.935,0,0,0-.736-0.093,1.434,1.434,0,0,0-.7.786q-0.185.337-.339,0.642c-0.106.2-.214,0.4-0.325,0.608l-0.746.034a0.289,0.289,0,0,1-.322-0.1,0.829,0.829,0,0,1,.207-0.508q0.3-.472.53-0.861t0.422-.727c0.128-.225.248-0.45,0.365-0.676s0.241-.473.374-0.743a1.471,1.471,0,0,0,.182-0.972,0.854,0.854,0,0,0-.531-0.566,0.828,0.828,0,0,0-.78-0.042,1.692,1.692,0,0,0-.6.786q-0.2.456-.414,0.878t-0.487.93c-0.184.338-.4,0.724-0.639,1.157s-0.542.955-.895,1.563a1.7,1.7,0,0,0-.208.693,1.3,1.3,0,0,0,.1.634,1,1,0,0,0,.4.448,1.12,1.12,0,0,0,.688.135l1.127-.068q-0.363.541-.8,1.175t-0.979,1.411a1.559,1.559,0,0,0-.273.718,1.409,1.409,0,0,0,.084.692,1.193,1.193,0,0,0,.407.524,1.121,1.121,0,0,0,.7.212,12.755,12.755,0,0,0,1.6-.119q0.92-.119,1.865-0.3a0.939,0.939,0,0,0,.911-1.048,0.874,0.874,0,0,0-.366-0.743,1.164,1.164,0,0,0-.727-0.085c-0.289.046-.579,0.093-0.879,0.144s-0.552.087-.762,0.11c-0.3.034-.326-0.124-0.084-0.473q0.416-.642.746-1.175c0.223-.355.434-0.7,0.638-1.039s0.412-.687.622-1.048,0.441-.765.7-1.216a1.894,1.894,0,0,0,.3-1.04A0.735,0.735,0,0,0,951.651,327.3Zm10.273,5.264a1.3,1.3,0,0,0-.762-0.533,12.7,12.7,0,0,1-1.49-.642,13.775,13.775,0,0,1-1.293-.743,11.721,11.721,0,0,0,1.333-1.5,9.266,9.266,0,0,0,.971-1.622,3.435,3.435,0,0,0,.306-1.023,1.147,1.147,0,0,0-.126-0.709,0.946,0.946,0,0,0-.512-0.406,2.443,2.443,0,0,0-.83-0.127h-3.479a1.06,1.06,0,0,0-.107-0.828,0.9,0.9,0,0,0-1.16-.287,1.307,1.307,0,0,0-.489.71,9.324,9.324,0,0,1-.787,1.664,10.555,10.555,0,0,1-1.018,1.428,1.426,1.426,0,0,0-.4.769,0.944,0.944,0,0,0,.265.65,0.8,0.8,0,0,0,.671.288,1.034,1.034,0,0,0,.753-0.457,5.107,5.107,0,0,1,.381-0.49,10.569,10.569,0,0,0,.722.972q0.372,0.448.753,0.87a7.085,7.085,0,0,1-.6.4c-0.2.119-.407,0.234-0.62,0.347s-0.452.231-.706,0.355l-0.828.4a3.755,3.755,0,0,0-.605.355,1.2,1.2,0,0,0-.323.346,0.756,0.756,0,0,0-.1.372,1.46,1.46,0,0,0,.08.448,0.683,0.683,0,0,0,.524.49,1.5,1.5,0,0,0,.984-0.169q0.795-.372,1.774-0.946a18.436,18.436,0,0,0,1.822-1.217c0.277,0.214.54,0.412,0.787,0.591a8.911,8.911,0,0,0,.779.508c0.272,0.158.558,0.312,0.862,0.464s0.648,0.307,1.036.465a1.459,1.459,0,0,0,.929.152,0.784,0.784,0,0,0,.463-0.558A1.082,1.082,0,0,0,961.924,332.565ZM957,329.531a12.156,12.156,0,0,1-.961-1.073,13.929,13.929,0,0,1-.894-1.275c0.02-.023.048-0.057,0.083-0.1s0.06-.084.082-0.118H958.5a0.292,0.292,0,0,1,.315.118,0.632,0.632,0,0,1-.149.406q-0.348.507-.772,1.047A9.969,9.969,0,0,1,957,329.531Z" transform="translate(-942 -320)"/>
</svg>
