<svg xmlns="http://www.w3.org/2000/svg" width="20" height="20" viewBox="0 0 20 20">
  <defs>
    <style>
      .cls-1 {
        fill: #00afff;
        fill-rule: evenodd;
      }
    </style>
  </defs>
  <path id="icon-star" class="cls-1" d="M305.76,896.859c-1.418,1.727-3.926,4.578-3.926,4.578s0.41,3.131.64,5.27a1.034,1.034,0,0,1-1.575,1.135c-1.693-.85-4.269-2.167-4.848-2.463-0.589.293-3.191,1.589-4.9,2.437a1.044,1.044,0,0,1-1.594-1.135c0.233-2.135.648-5.263,0.648-5.263s-2.537-2.846-3.972-4.571a1.037,1.037,0,0,1,.819-1.68c2.039-.386,5.2-1,5.2-1s1.728-3.186,2.822-5.137c0.6-1.187,1.018-1.05,1.089-1.015a1.945,1.945,0,0,1,.861,1.016c1.081,1.954,2.79,5.144,2.79,5.144s3.124,0.614,5.139,1a1.04,1.04,0,0,1,.809,1.683h0Z" transform="translate(-286 -888)"/>
</svg>
