<svg xmlns="http://www.w3.org/2000/svg" width="18" height="17.969" viewBox="0 0 18 17.969">
  <defs>
    <style>
      .cls-1 {
        fill-rule: evenodd;
      }
    </style>
  </defs>
  <path id="icon-juese" class="cls-1" d="M4231.12,143.388a2.208,2.208,0,1,1,2.21,2.195,2.188,2.188,0,0,1-2.21-2.195h0Zm-10.56,0a2.205,2.205,0,1,1,2.21,2.194,2.206,2.206,0,0,1-2.21-2.194h0Zm4.54-2.4a2.94,2.94,0,1,1,5.88,0h0a2.941,2.941,0,0,1-5.88,0h0Zm-2.87,5.885,1.67,7.4h-1.68a2.028,2.028,0,0,1-2.02-1.739l-1.2-4.482c0-.4.58-1.648,2.48-1.648h1.01a0.924,0.924,0,0,0-.27.468h0.01Zm12.2-.476c2.23,0,2.57,1.242,2.57,1.646l-1.19,4.483a2.075,2.075,0,0,1-2.02,1.739h-1.69l1.68-7.4a0.92,0.92,0,0,0-.25-0.467h0.9v0Zm-4.32-1.017a3.255,3.255,0,0,1,2.94,1.647l-1.56,6.865a2.936,2.936,0,0,1-2.66,2.1h-1.66a3.1,3.1,0,0,1-2.66-2.1l-1.56-6.864c0-.4,1.43-1.647,2.94-1.647h4.22Z" transform="translate(-4219 -138.031)"/>
</svg>
