<svg xmlns="http://www.w3.org/2000/svg" width="18" height="18" viewBox="0 0 18 18">
  <defs>
    <style>
      .cls-1 {
        fill: #00afff;
        fill-rule: evenodd;
      }
    </style>
  </defs>
  <path id="icon-jibenxinxi" class="cls-1" d="M6446,99.764a1.456,1.456,0,0,1,2.3-1.41l0.07,0.034a8.571,8.571,0,0,0,6.9-.018l0.01-.007a1.446,1.446,0,0,1,2.29,1.4v4.954a1.277,1.277,0,0,1-1.28,1.28h-9.01a1.281,1.281,0,0,1-1.28-1.28V99.764Zm14.14,4.949a1.283,1.283,0,0,1,1.29-1.286h1.29a1.282,1.282,0,0,1,1.28,1.279v0.007a1.28,1.28,0,0,1-1.28,1.285h-1.29a1.283,1.283,0,0,1-1.29-1.278v-0.007Zm0-5.143a1.283,1.283,0,0,1,1.29-1.286h1.29a1.282,1.282,0,0,1,1.28,1.278V99.57a1.28,1.28,0,0,1-1.28,1.286h-1.29a1.284,1.284,0,0,1-1.29-1.278V99.57Zm-1.28-5.143a1.285,1.285,0,0,1,1.3-1.285h2.54a1.286,1.286,0,1,1,0,2.571h-2.54A1.288,1.288,0,0,1,6458.86,94.428ZM6451.79,97a4.5,4.5,0,1,1,4.5-4.5A4.5,4.5,0,0,1,6451.79,97Z" transform="translate(-6446 -88)"/>
</svg>
