<svg xmlns="http://www.w3.org/2000/svg" width="20" height="18" viewBox="0 0 20 18">
  <defs>
    <style>
      .cls-1 {
        fill-rule: evenodd;
      }
    </style>
  </defs>
  <path id="icon-bigren" class="cls-1" d="M634.782,79a5.131,5.131,0,0,0-5.024,5.232v0.457a5.362,5.362,0,0,0,2.906,4.776v0.457a1.979,1.979,0,0,1-1.5,1.474c-1.24.367-4.5,1.749-5.024,3.679S626.838,97,627.2,97h3.827a2.006,2.006,0,0,1-.134-1.487c0.3-1.49,2.151-2.684,3.429-3.3a8.883,8.883,0,0,1,2.034-.84v-0.4a4.92,4.92,0,0,1-2.429-4.229v-0.4a4.822,4.822,0,0,1,4.816-4.894c0.129,0,.259.008,0.383,0.018A4.948,4.948,0,0,0,634.782,79Zm9.829,14.8a25.206,25.206,0,0,1-3.148-1.6,1.388,1.388,0,0,1-.728-1.527,4.426,4.426,0,0,0,2.442-3.883V86.413a4.343,4.343,0,0,0-4.268-4.34,4.255,4.255,0,0,0-4.167,4.34V86.79a4.445,4.445,0,0,0,2.409,3.959v0.378a1.641,1.641,0,0,1-1.248,1.223c-1.027.3-3.728,1.45-4.164,3.051s0.58,1.6.882,1.6h12.728A1.312,1.312,0,0,0,646,95.779,2.121,2.121,0,0,0,644.611,93.8Z" transform="translate(-626 -79)"/>
</svg>
