<svg xmlns="http://www.w3.org/2000/svg" width="18" height="18" viewBox="0 0 18 18">
  <defs>
    <style>
      .cls-1 {
        fill: #00afff;
        fill-rule: evenodd;
      }
    </style>
  </defs>
  <path id="icon-haibao" class="cls-1" d="M6451.03,141.167a1.834,1.834,0,0,1,.72.145,1.9,1.9,0,0,1,.59.4,1.879,1.879,0,0,1,.4.593,1.994,1.994,0,0,1,.14.738,1.874,1.874,0,0,1-.14.711,1.876,1.876,0,0,1-.99.982,1.851,1.851,0,0,1-.72.144,1.781,1.781,0,0,1-.72-0.144,1.867,1.867,0,0,1-.6-0.4,1.729,1.729,0,0,1-.39-0.586,1.708,1.708,0,0,1-.15-0.711,1.817,1.817,0,0,1,.15-0.738,1.7,1.7,0,0,1,.39-0.593,1.835,1.835,0,0,1,.6-0.4,1.765,1.765,0,0,1,.72-0.145h0ZM6462.94,138a1.024,1.024,0,0,1,.75.315,1,1,0,0,1,.31.729v15.913a0.994,0.994,0,0,1-.31.729,1.024,1.024,0,0,1-.75.315h-15.89a0.987,0.987,0,0,1-.74-0.315,1.034,1.034,0,0,1-.31-0.729V139.043a1.036,1.036,0,0,1,.31-0.729,0.987,0.987,0,0,1,.74-0.315h15.89Zm-0.54,2.664a1.068,1.068,0,0,0-.3-0.765,1.03,1.03,0,0,0-.76-0.315h-12.69a1.03,1.03,0,0,0-.76.315,1.068,1.068,0,0,0-.3.765V147a2.047,2.047,0,0,0,.26.99,2.617,2.617,0,0,0,.75.837,3.729,3.729,0,0,0,1.17.585,5.389,5.389,0,0,0,1.53.234,4.18,4.18,0,0,0,3.24-1.188,10.127,10.127,0,0,0,1.03-1.134,7.33,7.33,0,0,1,1.14-1.152,5.6,5.6,0,0,1,1.61-.909,7.346,7.346,0,0,1,2.5-.387,1.782,1.782,0,0,1,.31-0.009,0.637,0.637,0,0,0,.12.009c0.05,0,.15,0,0.3.008s0.43,0,.85-0.008v-4.213h0Z" transform="translate(-6446 -138)"/>
</svg>
