<?xml version="1.0" standalone="no"?><!DOCTYPE svg PUBLIC "-//W3C//DTD SVG 1.1//EN" "http://www.w3.org/Graphics/SVG/1.1/DTD/svg11.dtd"><svg t="1599211930347" class="icon" viewBox="0 0 1024 1024" version="1.1" xmlns="http://www.w3.org/2000/svg" p-id="1072" xmlns:xlink="http://www.w3.org/1999/xlink" width="200" height="200"><defs><style type="text/css"></style></defs><path d="M64 64m36 0l72 0q36 0 36 36l0 0q0 36-36 36l-72 0q-36 0-36-36l0 0q0-36 36-36Z" p-id="1073"></path><path d="M64 888m36 0l72 0q36 0 36 36l0 0q0 36-36 36l-72 0q-36 0-36-36l0 0q0-36 36-36Z" p-id="1074"></path><path d="M64 476.71m36 0l72 0q36 0 36 36l0 0q0 36-36 36l-72 0q-36 0-36-36l0 0q0-36 36-36Z" p-id="1075"></path><path d="M64 270.71m36 0l72 0q36 0 36 36l0 0q0 36-36 36l-72 0q-36 0-36-36l0 0q0-36 36-36Z" p-id="1076"></path><path d="M64 682.71m36 0l72 0q36 0 36 36l0 0q0 36-36 36l-72 0q-36 0-36-36l0 0q0-36 36-36Z" p-id="1077"></path><path d="M594.24 413.49A35.76 35.76 0 0 0 619.8 424a35.33 35.33 0 0 0 25.28-10.4l72.56-72.8a35.83 35.83 0 0 0 0-50.4 35.52 35.52 0 0 0-50.23 0l-47.13 47.29-47-47.18a35.93 35.93 0 0 0-50.78 0 36.22 36.22 0 0 0 0 51z" p-id="1078"></path><path d="M776 424H464a36 36 0 0 0-36 36 36 36 0 0 0 36 36h120v72H464a36 36 0 0 0-36 36 36 36 0 0 0 36 36h120v68.41A35.58 35.58 0 0 0 619.59 744h0.82A35.58 35.58 0 0 0 656 708.41V640h120a36 36 0 0 0 36-36 36 36 0 0 0-36-36H656v-72h120a36 36 0 0 0 36-36 36 36 0 0 0-36-36z" p-id="1079"></path><path d="M860 64H380c-55 0-100 45-100 100v696c0 55 45 100 100 100h480c55 0 100-45 100-100V164c0-55-45-100-100-100z m28 774a50.15 50.15 0 0 1-50 50H402a50.15 50.15 0 0 1-50-50V186a50.15 50.15 0 0 1 50-50h436a50.15 50.15 0 0 1 50 50z" p-id="1080"></path></svg>