<svg t="1621416421497" class="icon" viewBox="0 0 1024 1024" version="1.1" xmlns="http://www.w3.org/2000/svg" p-id="4309" width="150" height="150"><path d="M143.278217 707.4873c12.408611 12.245905 32.369222 12.18553 44.654013-0.195451l323.543837-326.493006 328.060711 325.104379c12.406564 12.282744 32.365128 12.192693 44.682665-0.187265 12.286838-12.411681 12.192693-32.400944-0.187265-44.690852L535.350824 315.51907c-0.539282-0.534166-1.232061-0.662079-1.77032-1.166569-0.127913-0.12382-0.156566-0.281409-0.281409-0.409322-6.160303-6.093788-14.21884-9.15859-22.23542-9.15859-8.115841 0-16.265452 3.1262-22.422685 9.348925L143.121652 662.796448C130.804115 675.208129 130.899282 695.198415 143.278217 707.4873L143.278217 707.4873 143.278217 707.4873M143.278217 707.4873 143.278217 707.4873z" p-id="4310"></path></svg>