<svg xmlns="http://www.w3.org/2000/svg" viewBox="0 0 176.83 56.42"><defs><style>.cls-1{fill:#393738;}.cls-2{fill:#00ac1c;}</style></defs><title>资源 1</title><g id="图层_2" data-name="图层 2"><g id="图层_1-2" data-name="图层 1"><path class="cls-1" d="M73.06,21.76a31.6,31.6,0,0,0,4.92-8l1.7.8a42.28,42.28,0,0,1-2,3.75V31.78H76V21a24.83,24.83,0,0,1-2.24,2.79C73.54,23.14,73.31,22.43,73.06,21.76Zm.12-8.26A24.21,24.21,0,0,0,78,6.82l1.6.89a30.78,30.78,0,0,1-5.83,7.78C73.63,14.85,73.41,14.18,73.18,13.5Zm12.9,10H82.69v1.18c0,3.07-.87,5.25-2.59,6.56a16.7,16.7,0,0,0-1.16-1.63c1.35-.9,2-2.59,2-5.12V21.76h6.82v4.45c.8-.67,1.69-1.47,2.68-2.4.16.73.29,1.41.45,2-.93.74-2,1.67-3.2,2.75-.38.36-.7.71-1,1l-1.31-1.63a2.6,2.6,0,0,0,.7-1.86ZM80.16,15.3V9h1.63v4.55H83.9V7h1.7v6.5h2.11V9h1.63v7.14H87.71V15.3Zm.51,2.27h8.16v1.79H80.67ZM92.32,6.69,94.05,7c-.29,1.57-.61,3.07-1,4.51h5.53v1.86H97.41A35,35,0,0,1,94.94,25a16.31,16.31,0,0,0,3.88,4.9c-.39.67-.74,1.31-1.09,2a20.19,20.19,0,0,1-3.75-5,25.08,25.08,0,0,1-4,5.15c-.36-.48-.77-1-1.25-1.6A22,22,0,0,0,93.09,25a25.45,25.45,0,0,1-1.73-8c-.29.67-.58,1.28-.86,1.92a12.34,12.34,0,0,0-1.22-1.34A37.24,37.24,0,0,0,92.32,6.69Zm3.33,6.65H92.58l-.07.26A27.4,27.4,0,0,0,94,22.78,42.31,42.31,0,0,0,95.65,13.34ZM99.3,19A43.24,43.24,0,0,0,105,6.62l2,.58a60.62,60.62,0,0,1-2.43,6.37V31.94h-1.85V17.31a32.58,32.58,0,0,1-2.5,3.78Zm7.42-8.87h8.35c-.51-.86-1-1.76-1.6-2.62l1.73-.9c.61.93,1.22,1.89,1.82,2.91l-1.12.58h8.87v1.79h-18V10.11Zm1.41,4.16h15.1V16h-15.1Zm0,4.13h15.1v1.73h-15.1Zm.29,4.16H123v9.38h-2V30.4H110.4v1.54h-2ZM121,24.29H110.4v4.35H121Zm4.87-14h11.65V6.56h2.11v3.68h11.1V12.1h-11.1v3.8h7.23v1.8a22.91,22.91,0,0,1-6.53,8.51,32.79,32.79,0,0,0,10.75,3.23c-.6.86-1.08,1.6-1.47,2.24-4.86-1-8.61-2.34-11.23-4.1a41.21,41.21,0,0,1-11.46,4.48,9.4,9.4,0,0,0-1.12-2A42.57,42.57,0,0,0,136.7,26.3a21.06,21.06,0,0,1-5.76-8.48h-2.52V16h9.12V12.13H125.89Zm18.46,7.55H133.09a16.59,16.59,0,0,0,5.41,7.27A18.31,18.31,0,0,0,144.35,17.79Zm7.49,1.06A43.89,43.89,0,0,0,157.7,6.62l2.11.8c-.71,1.92-1.44,3.68-2.18,5.32v19h-2v-15a40,40,0,0,1-2.91,4.48A22.6,22.6,0,0,0,151.84,18.85Zm7.46-6.4H171V6.85h2.08v5.6h3.71v2h-3.71v13c0,2.66-1.22,4-3.62,4.06-.8,0-2.08,0-3.84,0-.09-.67-.22-1.44-.41-2.3,1.63.13,2.91.19,3.81.19a1.87,1.87,0,0,0,1.6-.51,3.31,3.31,0,0,0,.41-2V14.4H159.3Zm1.66,6,1.73-1.08c1.05,1.5,2.27,3.48,3.68,5.92l-1.86,1.15a52.75,52.75,0,0,0-3.55-6ZM93.63,38.88,90.11,51.46H88.22L85.7,42.4a4.28,4.28,0,0,1-.2-1.31h0a5.44,5.44,0,0,1-.22,1.28l-2.56,9.09H80.8L77.15,38.88h1.79l2.56,9.5a4.43,4.43,0,0,1,.2,1.28h.06A9.63,9.63,0,0,1,82,48.38l2.72-9.5h1.6l2.59,9.57a7.85,7.85,0,0,1,.22,1.21h0a8.14,8.14,0,0,1,.23-1.24l2.46-9.54Zm8.51,8.51h-6.3a3.14,3.14,0,0,0,.8,2.21,2.79,2.79,0,0,0,2.08.8,4.57,4.57,0,0,0,2.78-1v1.41a5.44,5.44,0,0,1-3.13.83,3.82,3.82,0,0,1-3-1.25A4.92,4.92,0,0,1,94.24,47a4.85,4.85,0,0,1,1.18-3.39,3.84,3.84,0,0,1,3-1.35,3.54,3.54,0,0,1,2.75,1.12,4.62,4.62,0,0,1,1,3.17Zm-1.6-1.28a2.86,2.86,0,0,0-.57-1.89,2,2,0,0,0-1.6-.67,2.12,2.12,0,0,0-1.63.71,3.24,3.24,0,0,0-.87,1.85Zm12.55,4.83a7.52,7.52,0,0,1-3.49.74A5.68,5.68,0,0,1,105.28,50a6.3,6.3,0,0,1-1.63-4.54,6.75,6.75,0,0,1,1.82-4.9,6.14,6.14,0,0,1,4.61-1.85,7.25,7.25,0,0,1,3,.51v1.69a5.9,5.9,0,0,0-3-.73,4.46,4.46,0,0,0-3.42,1.41,5.31,5.31,0,0,0-1.32,3.77,5.06,5.06,0,0,0,1.25,3.59,4.19,4.19,0,0,0,3.23,1.34,6.4,6.4,0,0,0,3.27-.83Zm9.89.55h-1.6V46.34c0-1.83-.68-2.72-2-2.72a2.2,2.2,0,0,0-1.73.8,2.81,2.81,0,0,0-.67,2v5.09h-1.6V38.18H117V44h0a3.27,3.27,0,0,1,3-1.7c2,0,3,1.22,3,3.68Zm2.88-8.39a5.86,5.86,0,0,1,3.1-.83c2.18,0,3.26,1.15,3.26,3.43v5.79h-1.56V50.11h0a3,3,0,0,1-2.75,1.6,2.93,2.93,0,0,1-2.08-.7,2.52,2.52,0,0,1-.77-1.92c0-1.67,1-2.66,3-3l2.66-.38c0-1.47-.61-2.21-1.83-2.21a4.44,4.44,0,0,0-2.94,1.09V43.1Zm2.65,4.13a2.89,2.89,0,0,0-1.53.55,1.61,1.61,0,0,0,0,2.2,1.64,1.64,0,0,0,1.21.42,2.27,2.27,0,0,0,1.73-.74,2.54,2.54,0,0,0,.67-1.82V47l-2.11.25Zm10.63,4.16a2.93,2.93,0,0,1-1.41.29c-1.6,0-2.4-.9-2.4-2.69V43.81h-1.54V42.5h1.54V40.32l1.6-.51v2.65h2.24v1.32h-2.24v4.89a2.14,2.14,0,0,0,.29,1.28,1.17,1.17,0,0,0,1,.39,1.56,1.56,0,0,0,.93-.29Zm8.64-4.61v4.71h-1.6V38.91h3.58a4.67,4.67,0,0,1,3.17,1,3.52,3.52,0,0,1,1.12,2.82,3.85,3.85,0,0,1-1.31,3,4.65,4.65,0,0,1-3.3,1.09h-1.66Zm0-6.46v5h1.5a3.36,3.36,0,0,0,2.27-.67,2.43,2.43,0,0,0,.77-1.92c0-1.63-1-2.43-2.88-2.43Zm8,2.78a5.86,5.86,0,0,1,3.1-.83c2.18,0,3.26,1.15,3.26,3.43v5.79h-1.56V50.11h0a3,3,0,0,1-2.75,1.6,2.93,2.93,0,0,1-2.08-.7,2.52,2.52,0,0,1-.77-1.92c0-1.67,1-2.66,3-3l2.66-.38c0-1.47-.61-2.21-1.83-2.21a4.44,4.44,0,0,0-2.94,1.09V43.1Zm2.65,4.13a2.89,2.89,0,0,0-1.53.55,1.61,1.61,0,0,0,0,2.2,1.64,1.64,0,0,0,1.21.42,2.27,2.27,0,0,0,1.73-.74,2.54,2.54,0,0,0,.67-1.82V47Zm13.63-4.73L168,52.83c-.77,1.92-1.82,2.88-3.2,2.88a3.16,3.16,0,0,1-1-.13v-1.4a2.5,2.5,0,0,0,.89.19c.74,0,1.25-.42,1.63-1.28l.71-1.63-3.52-9h1.76l2.33,6.75.2.73h0a6.71,6.71,0,0,1,.19-.73l2.46-6.79h1.6Z"/><path class="cls-2" d="M23.3,35.74a2,2,0,0,1-1,.23,2.13,2.13,0,0,1-1.86-1.09l-.13-.32L14.53,21.79a1,1,0,0,1-.1-.45,1.07,1.07,0,0,1,1.06-1.05,1,1,0,0,1,.64.22L23,25.38a3.22,3.22,0,0,0,1.76.51,3.14,3.14,0,0,0,1.08-.19L58.14,11.3C52.35,4.48,42.82,0,32,0,14.34,0,0,11.94,0,26.66c0,8,4.32,15.26,11.07,20.16a2.1,2.1,0,0,1,.9,1.72,2.72,2.72,0,0,1-.13.68c-.54,2-1.41,5.21-1.44,5.37a3.52,3.52,0,0,0-.16.77,1.07,1.07,0,0,0,1.06,1.06,1.3,1.3,0,0,0,.6-.2l7-4a3.19,3.19,0,0,1,1.7-.48,4.64,4.64,0,0,1,.93.12A38.09,38.09,0,0,0,32,53.38c17.66,0,32-11.94,32-26.66a22.91,22.91,0,0,0-3.65-12.35L23.52,35.62Z"/></g></g></svg>