<?xml version="1.0" standalone="no"?><!DOCTYPE svg PUBLIC "-//W3C//DTD SVG 1.1//EN" "http://www.w3.org/Graphics/SVG/1.1/DTD/svg11.dtd"><svg t="1621568639350" class="icon" viewBox="0 0 1024 1024" version="1.1" xmlns="http://www.w3.org/2000/svg" p-id="2438" xmlns:xlink="http://www.w3.org/1999/xlink" width="384" height="384"><defs><style type="text/css"></style></defs><path d="M875.158588 60.958118H149.202824c-55.717647 0-100.894118 44.574118-101.014589 99.689411v490.315295a100.472471 100.472471 0 0 0 101.014589 99.629176h196.909176l122.699294 135.529412a57.042824 57.042824 0 0 0 39.152941 18.251294h3.011765a56.199529 56.199529 0 0 0 42.285176-18.672941l120.109177-134.686118h201.788235a100.532706 100.532706 0 0 0 100.653177-97.942588V160.647529a100.412235 100.412235 0 0 0-100.653177-99.689411zM282.684235 457.607529a58.006588 58.006588 0 1 1 0.120471-116.073411 58.006588 58.006588 0 0 1-0.120471 116.073411z m229.25553 0a58.006588 58.006588 0 1 1 0.12047-116.073411 58.006588 58.006588 0 0 1-0.12047 116.073411z m229.376 0.180706a58.066824 58.066824 0 0 1-57.946353-58.127059c0-32.165647 25.901176-58.187294 57.946353-58.187294s58.006588 26.021647 58.006588 58.187294c0 32.105412-25.961412 58.127059-58.006588 58.127059z"  p-id="2439"></path></svg>