<svg xmlns="http://www.w3.org/2000/svg" width="16" height="16" viewBox="0 0 16 16">
  <defs>
    <style>
      .cls-1 {
        fill-rule: evenodd;
      }
    </style>
  </defs>
  <path id="icon-huiyuan" class="cls-1" d="M1107.67,29.364l-0.02.02-6.77,8.157a1.144,1.144,0,0,1-.89.468,1.115,1.115,0,0,1-.89-0.468l-6.78-8.176a1.737,1.737,0,0,1-.17-1.737l2.29-4.859a1.235,1.235,0,0,1,1.08-.761h8.95a1.246,1.246,0,0,1,1.08.761l2.29,4.859A1.691,1.691,0,0,1,1107.67,29.364Zm-6.1-.137h-3.18l1.58,5Zm1.45,0-1.8,5.633,4.66-5.633h-2.86ZM1098.7,34.8l-1.76-5.572h-2.85Zm-3.09-11.231-1.93,4.1h3.29l1.75-4.1h-3.11Zm2.89,4.079h2.96l-1.47-3.493Zm5.87-4.079h-3.1l1.7,4.1h3.32Z" transform="translate(-1092 -22)"/>
</svg>
