<svg xmlns="http://www.w3.org/2000/svg" width="24" height="24" viewBox="0 0 24 24">
  <defs>
    <style>
      .cls-1 {
        fill: #fff;
        fill-rule: evenodd;
      }
    </style>
  </defs>
  <path id="icon-renzheng" class="cls-1" d="M881.444,1549.91a7.06,7.06,0,0,1-1.509,2.13,6.9,6.9,0,0,1-2.243,1.43,7.444,7.444,0,0,1-5.517,0,6.843,6.843,0,0,1-2.239-1.43,6.918,6.918,0,0,1-1.513-2.13,6.308,6.308,0,0,1,0-5.21,6.946,6.946,0,0,1,1.511-2.13,7.269,7.269,0,0,1,10,0,7.06,7.06,0,0,1,1.509,2.13A6.329,6.329,0,0,1,881.444,1549.91Zm-2.386-5.09a0.867,0.867,0,0,0-.526-0.29c-0.24-.05-0.36-0.07-0.36-0.07l-0.346.1a0.738,0.738,0,0,0-.47.31l-2.415,4.13-2.416-4.13a0.736,0.736,0,0,0-.47-0.31,1.406,1.406,0,0,0-.706-0.03,0.861,0.861,0,0,0-.525.29,0.343,0.343,0,0,0-.04.42l3.286,5.61v0.01a0.571,0.571,0,0,1,.055.07,0.112,0.112,0,0,0,.016.01L874.2,1551a0.019,0.019,0,0,0,.016.01,0.271,0.271,0,0,0,.071.05,0.048,0.048,0,0,0,.023.01,0.282,0.282,0,0,0,.094.05h0.008l0.008,0.01,0.094,0.03,0.024,0.01a0.323,0.323,0,0,1,.094.02q0.031,0.015.015,0c0.027,0.01.061,0.01,0.1,0.02s0.055,0.01.04,0a1.115,1.115,0,0,0,.3,0c-0.016.01,0,0,.039,0s0.076-.01.1-0.02h0.015a0.33,0.33,0,0,1,.1-0.02l0.015-.01,0.1-.03c0.021-.01.026-0.01,0.016-0.01a0.8,0.8,0,0,0,.094-0.05l0.016-.01,0.078-.05c0.021-.01.026-0.02,0.016-0.01,0.022-.02.042-0.04,0.062-0.06,0.006,0,.011-0.01.016-0.01a0.571,0.571,0,0,1,.055-0.07v-0.01l3.286-5.61A0.342,0.342,0,0,0,879.058,1544.82Zm-6.584-6.03a1.13,1.13,0,0,1-.421.23c-0.032.09-.06,0.18-0.092,0.28l-0.113.29c-0.029.1-.067,0.21-0.11,0.32a8.557,8.557,0,0,0-2.1,1.19,8.466,8.466,0,0,0-1.647,1.7,7.844,7.844,0,0,0-1.076,2.09,7.5,7.5,0,0,0-.381,2.39,7.322,7.322,0,0,0,.3,2.12,8.084,8.084,0,0,0,.84,1.9h-0.6c-0.434,0-.938-0.02-1.512-0.04s-1.17-.07-1.781-0.12-1.221-.11-1.827-0.17-1.154-.13-1.648-0.2-0.911-.15-1.253-0.21a2.042,2.042,0,0,1-.65-0.22,1.641,1.641,0,0,1-.37-1.05,7.854,7.854,0,0,1,.1-2.26,1.8,1.8,0,0,1,.369-0.87,2.565,2.565,0,0,1,.683-0.58,3.615,3.615,0,0,1,.894-0.4c0.329-.1.666-0.19,1.009-0.29s0.669-.18,1-0.29a5.539,5.539,0,0,0,.885-0.39,3.641,3.641,0,0,0,.728-0.55,1.867,1.867,0,0,0,.368-0.52,1.312,1.312,0,0,0,.113-0.53c0-.19-0.008-0.39-0.022-0.62a1.144,1.144,0,0,0-.36-0.77c-0.208-.19-0.44-0.39-0.694-0.59a1.25,1.25,0,0,1-.323-0.41,4.782,4.782,0,0,1-.26-0.54q-0.111-.315-0.223-0.66a1.111,1.111,0,0,1-.314-0.15,2.32,2.32,0,0,1-.292-0.29,1.739,1.739,0,0,1-.268-0.55,1.853,1.853,0,0,1-.091-0.66,1.464,1.464,0,0,1,.134-0.53,1.327,1.327,0,0,1,.292-0.45,14.586,14.586,0,0,1,.089-1.61,10.223,10.223,0,0,1,.312-1.47,4.162,4.162,0,0,1,.7-1.4,4.428,4.428,0,0,1,2.041-1.55,5.179,5.179,0,0,1,1.109-.29,7.854,7.854,0,0,1,1.065-.07,5.6,5.6,0,0,1,1.288.14,6.331,6.331,0,0,1,1.2.37,5.18,5.18,0,0,1,1,.53,3.31,3.31,0,0,1,.682.59,4.285,4.285,0,0,1,.851,1.5,9.327,9.327,0,0,1,.379,1.56,12.634,12.634,0,0,1,.114,1.72,0.69,0.69,0,0,1,.249.28,1.207,1.207,0,0,1,.145.38,1.583,1.583,0,0,1,.009.57,1.787,1.787,0,0,1-.19.73A1.363,1.363,0,0,1,872.474,1538.79Z" transform="translate(-858 -1530)"/>
</svg>
