<svg xmlns="http://www.w3.org/2000/svg" width="17.97" height="18" viewBox="0 0 17.97 18">
  <defs>
    <style>
      .cls-1 {
        fill-rule: evenodd;
      }
    </style>
  </defs>
  <path id="icon-kecheng" class="cls-1" d="M2126.75,138h-5.32a0.413,0.413,0,0,0-.41.449v14.523a0.358,0.358,0,0,0,.41.325h4.92a3.609,3.609,0,0,1,1.63,2.7h1.23V140.7C2129.21,139.006,2126.75,138,2126.75,138Zm11.87,0h-5.32s-2.45,1.006-2.45,2.7V156h1.22a3.642,3.642,0,0,1,1.64-2.7h4.91a0.372,0.372,0,0,0,.38-0.2V138.244A0.368,0.368,0,0,0,2138.62,138Z" transform="translate(-2121.03 -138)"/>
</svg>
