<svg xmlns="http://www.w3.org/2000/svg" width="18" height="18" viewBox="0 0 18 18">
  <defs>
    <style>
      .cls-1 {
        fill: #00afff;
        fill-rule: evenodd;
      }
    </style>
  </defs>
  <path id="icon-lishi" class="cls-1" d="M6463.96,350.258a4.948,4.948,0,1,0,0,1.192A4.755,4.755,0,0,0,6463.96,350.258Zm-2.94,3.093a0.542,0.542,0,0,1-.59-0.132c-0.44-.435-2.16-2.157-2.56-2.592a0.763,0.763,0,0,1-.17-0.435v-2.554a0.606,0.606,0,0,1,.6-0.633,0.683,0.683,0,0,1,.69.633v2.2a0.387,0.387,0,0,0,.06.17c0.34,0.331,1.9,1.958,2.19,2.289A0.628,0.628,0,0,1,6461.02,353.351Zm-7.31-7.614a7.236,7.236,0,0,1,10.25-.2v-4.55a2.987,2.987,0,0,0-2.99-2.989h-11.98a2.987,2.987,0,0,0-2.99,2.989v12.022a2.987,2.987,0,0,0,2.99,2.988h4.93A7.265,7.265,0,0,1,6453.71,345.737Zm-5.04-4.928h7.78a0.763,0.763,0,0,1,0,1.523h-7.78A0.763,0.763,0,0,1,6448.67,340.809Zm0.92,9.8h-1.49a0.764,0.764,0,1,1,0-1.523h1.49A0.764,0.764,0,1,1,6449.59,350.608Zm0.43-3.887h-1.5a0.763,0.763,0,1,1,0-1.523h1.5A0.764,0.764,0,1,1,6450.02,346.721Z" transform="translate(-6446 -338)"/>
</svg>
