<svg xmlns="http://www.w3.org/2000/svg" viewBox="0 0 278.1 64"><defs><style>.cls-1{fill:#cf0a2c;}.cls-2{fill:#002856;}.cls-3{fill:#007078;}.cls-4{fill:#fff;}.cls-5{fill:#4c4948;}</style></defs><title>资源 1</title><g id="图层_2" data-name="图层 2"><g id="图层_1-2" data-name="图层 1"><path class="cls-1" d="M20,0H45.48a4.91,4.91,0,0,1,5.16,4.66,4.83,4.83,0,0,1-.24,1.81l-11.84,51A8.66,8.66,0,0,1,30.62,64H5.17A4.92,4.92,0,0,1,0,59.32a4.83,4.83,0,0,1,.24-1.81l11.84-51A8.62,8.62,0,0,1,20,0Z"/><path class="cls-2" d="M43.36,0H72.62c3.54,0,1.94,2.9,1.1,6.47l-11.83,51c-.84,3.57-.57,6.47-4.13,6.47H28.5a4.93,4.93,0,0,1-5.17-4.66,4.84,4.84,0,0,1,.25-1.81l11.83-51A8.64,8.64,0,0,1,43.36,0Z"/><path class="cls-3" d="M71.41,0H96.9a4.91,4.91,0,0,1,5.17,4.66,4.84,4.84,0,0,1-.25,1.81L90,57.51A8.64,8.64,0,0,1,82,64H56.65a4.92,4.92,0,0,1-5.17-4.66,4.84,4.84,0,0,1,.25-1.81l11.78-51A8.64,8.64,0,0,1,71.41,0Z"/><path class="cls-4" d="M67.2,48h2.46l.69-2.31H67.89Zm1.92-6.4-.81,2.69a11.67,11.67,0,0,1,1.4-.62,5.9,5.9,0,0,0,1.23-.2l.59-1.91Zm1.21-3.93-.79,2.63a11.6,11.6,0,0,1,1.38-.54,7.28,7.28,0,0,1,1.23-.17l.57-1.92Zm5.31,0L72.52,48h.84l-.64,2.11h-.84l-.2.67h-3l.2-.67h-6l.62-2H64l3.15-10.45.61-2.12h3.13l-.32,1.06a5.79,5.79,0,0,1,1.57-.79c.77-.19,5.12-.27,5.12-.27l-.64,2.09Z"/><path class="cls-4" d="M77,35.59h3.22v1.2c0,.2.15.3.52.3h.66l-.59,2H79c-1.5,0-2.07-.54-2-1.28V35.59Zm.42,9.4H74.31l.52-1.78h3.5l.49-1.6H75.37l.59-2h9.62l-.61,2h-3.2l-.52,1.6H84.5L84,45H80.47l-.62.73h1.4l.35,2.22a1.24,1.24,0,0,0,0,.47,1.84,1.84,0,0,0,.74,0h.41l-.66,2.16H80.24a2,2,0,0,1-.78-.32,1.06,1.06,0,0,1-.57-.76l-.34-2.22L77,49.46a2.71,2.71,0,0,1-2.46,1.21H72.25l.59-1.94h1a1.35,1.35,0,0,0,.62-.18.88.88,0,0,0,.46-.39l2.32-3.27ZM43.83,40.16H52l-.59,2H48.09l-.5,1.64h3.33l-.62,2H47l-.81,2.68c0,.3.78.34,1.1.34l1.65-.22-.66,2.22H44.54a4.12,4.12,0,0,1-.86,0,.9.9,0,0,1-.59-.45.87.87,0,0,1-.2-.86L44,45.9H42.13l.62-2h1.84l.49-1.65H43.24l.59-1.94Zm5.44-3.49h3.32l-.62,2h-4.5L47,39.1c-.2.2-.27,0-.57.28a3.38,3.38,0,0,1-1.5.39H43.46l.59-1.94h.44a1.84,1.84,0,0,0,.74,0,1.89,1.89,0,0,0,.49-.64l.84-1.53h3.32Z"/><path class="cls-4" d="M55.66,40a5.34,5.34,0,0,1,2.46-1.1h2.47l.34-1.11H56.25l-.66,2.26Zm4.38.87H55.42l-.3.93h4a3.11,3.11,0,0,1,.61,0l.3-.93Zm-6-5.27h2.83L56.43,37a7.93,7.93,0,0,1,1.52-1,15.76,15.76,0,0,1,2-.44h4.58L63,40.83a6,6,0,0,1-.76,1.72,2,2,0,0,1-.79.71,2.79,2.79,0,0,1-1.06.37H54.58l-1.25,4.14c0,.41-.18.61,0,.71a.49.49,0,0,0,.41.22l1.95-.2L55,50.77H51.28a1.92,1.92,0,0,1-.91-.17c-.19-.18-.51-.42-.51-.67a8.81,8.81,0,0,1,.24-1.11l4-13.21Z"/><path class="cls-4" d="M62.31,44,62,45.26a1.74,1.74,0,0,1-.52.93,2,2,0,0,1-1.53.54H58.42v1.43c0,.39,0,.37.15.42l.19.12h2l-.62,2.07H58.42A5.56,5.56,0,0,1,56,50.5c-.3-.18-.32-.42-.32-.82V44.15H58.4v1.13h.71a.94.94,0,0,0,.47,0,.57.57,0,0,0,.19-.29L60,44.1ZM23,16.3c0,.44-1.87,8.61-1.87,8.63a6,6,0,0,1-1.6,3.59,2.86,2.86,0,0,1-1.87.67,1.75,1.75,0,0,1-1.94-1.54.57.57,0,0,0,0-.13v-.45l.35-2.21s1.84-7.38,2.19-8.44a27.8,27.8,0,0,1-4.28,0V17l-1.9,8.39-.17.71-.32,2.34A3.42,3.42,0,0,0,12,30.12c.87,1.53,3.33,1.75,4.7,1.75a9.08,9.08,0,0,0,4.6-1.08,6.87,6.87,0,0,0,3-4.63l.22-.83s1.92-7.76,2.24-8.74a27.63,27.63,0,0,1-3.64,0ZM33.59,31.67H30.37c.12-.56.27-1.13.39-1.72l.2-.79c.27-1.2.54-2.63.59-3.05s0-.91-.61-.91a2.3,2.3,0,0,0-1,.3c-.18.64-.55,2.46-.72,3.29-.37,1.75-.39,1.95-.56,2.81H25.4v-.12c.25-1,.52-2.09.74-3.13a47.63,47.63,0,0,0,1-5.31c1.47-.2,1.84-.25,3.44-.57l.12.15-.24.88.81-.46a4.81,4.81,0,0,1,2.07-.49,1.73,1.73,0,0,1,1.79,1c.3.72,0,1.63-.29,3.37l-.2.89c-.42,2-.47,2.31-.71,3.67h-.15Zm5.19,0H35.29c.11-.42.24-.84.39-1.25a8.46,8.46,0,0,0,.37-1.28c.22-1,.37-1.67.47-2.26s.17-1.09.25-1.65L38.51,25l1.8-.32v-.05l-.44,1.85-.42,1.82c-.3,1.3-.39,1.77-.47,2.11a6.19,6.19,0,0,1-.2,1.19ZM47,27.07a6.48,6.48,0,0,1-.76,2.09,1.25,1.25,0,0,1-1,.62s-.74,0-.74-.94a6.49,6.49,0,0,1,.2-1.45c.34-1.5.74-2.75,1.75-2.75s.86.93.49,2.46Zm3.35.15A3.84,3.84,0,0,0,50,23.75a3.78,3.78,0,0,0-3.15-1.11A5.61,5.61,0,0,0,43,24a6.31,6.31,0,0,0-1.7,3.32c-.27,1.2-.59,3.39,1.4,4.18a5.89,5.89,0,0,0,2.07.35,5.44,5.44,0,0,0,4.08-1.6,7.19,7.19,0,0,0,1.41-3ZM81.57,31.8H78.15c.4-1.48.79-3,1.14-4.43A34,34,0,0,0,80,23.48c1.53-.22,2-.27,3.57-.59V23c-.29,1.21-.59,2.46-.86,3.64-.59,2.46-.81,3.84-1,5.17H81.5Z"/><path class="cls-4" d="M79.26,27.27a7.09,7.09,0,0,1-.76,2.09,1.8,1.8,0,0,1-1.26.62s-.74,0-.74-.94a6.41,6.41,0,0,1,.2-1.45c.35-1.48.74-2.71,1.75-2.71s1.13.91.79,2.46Zm3,.15c.44-2-1.35-.18-1.65-.81s-.14-3.08-1.87-3.77a4.26,4.26,0,0,0-3.66,1.33,6.31,6.31,0,0,0-1.7,3.32c-.27,1.18-.59,3.37,1.38,4.13a4,4,0,0,0,1.77.32c2,0,3.52-3.12,4.65-4.33s1,.37,1.16-.22Zm-23.2,4.25H55.89c.12-.56.27-1.13.41-1.72l.18-.79A29.36,29.36,0,0,0,57,26.11c0-.42,0-.91-.61-.91a2.3,2.3,0,0,0-1,.3c-.18.64-.54,2.46-.72,3.29-.37,1.75-.39,1.95-.54,2.81H50.92v-.12l.73-3.13a43.45,43.45,0,0,0,1-5.31c1.48-.2,1.85-.25,3.45-.57l.12.15L56,23.5l.69-.41a5,5,0,0,1,2-.5,1.79,1.79,0,0,1,1.8,1c.29.72,0,1.63-.3,3.37l-.2.89c-.41,2-.49,2.31-.71,3.67h-.15Zm11-15.37H64.62v.56l-1,4.6L61.18,31.72H65l.66-3.2s.47-2,.52-2.09a1.18,1.18,0,0,1,.3-.29h.22A10.2,10.2,0,0,0,73,24.78a6.69,6.69,0,0,0,2.46-4,6,6,0,0,0,.17-1.4,2.9,2.9,0,0,0-.49-1.78c-.93-1.32-2.8-1.32-4.92-1.35Zm1.28,4.79a3.35,3.35,0,0,1-1.75,2.29,5.43,5.43,0,0,1-2.46.4h-.56v-.23L67.7,19v-.45h.41l2.22.2a1.83,1.83,0,0,1,1,2.31Zm22.81,1.63v-.15c-1.57.32-1.87.37-3.32.57-1.08,2.46-1.06,2-1.92,3.93v-.24l-.22-4.28-.15-.15c-1.65.32-1.7.37-3.22.56s0,0,0,.18a22.16,22.16,0,0,1,.34,2.31,17,17,0,0,0,.3,2.26c.14,1.26.24,1.87.42,3.79-1,1.72-1.28,2.46-2.27,3.86v.15h2.95l.25-.27c.84-1.79,7.19-12.74,7.19-12.74Zm-54,1.06c.84-.6,1-1.41.25-1.83a2.9,2.9,0,0,0-2.86.2c-.86.59-1,1.4-.22,1.82a2.92,2.92,0,0,0,2.83-.29Zm46.7,11.86-1.25,2.14a2.5,2.5,0,0,1-2.29,1.28h-2L82,37.14h.39a1.24,1.24,0,0,0,.47,0,.53.53,0,0,0,.24-.23l.74-1.15Z"/><path class="cls-5" d="M150.3,22.77l2.85-12.31H138.39l1.18-5.06h-5.1l-1.18,5.09h-4.52a11.47,11.47,0,0,0-5.66,2.29l.51-2.29h-5l-3.74,16.19H129.6l-2.21,9.52h5l2.19-9.52h11.12a4.59,4.59,0,0,0,3.06-1.33,5.45,5.45,0,0,0,1.5-2.58Zm-19.84.29h-9.84l2.12-9.1h9.67Zm14.77-.91a1.29,1.29,0,0,1-1.09.81h-8.75l2.11-9.1h9.7Zm42.61,10.14,6.25-27.07h-24.6a11.7,11.7,0,0,0-5.66,2.29l.54-2.29h-5L152.22,36h31.12a4.4,4.4,0,0,0,2.88-1.18,5.31,5.31,0,0,0,1.62-2.56Zm-4.92-.64a1.28,1.28,0,0,1-1.13,1H158.12l5.51-23.72h24.61Z"/><path class="cls-5" d="M165.67,11.6h19.22l-.84,3.54H177L176.11,19h7.08l-.81,3.54H175.3l-.89,3.84H177a16.81,16.81,0,0,0-.25-2.46h3.64v2.46h1l-.81,3.54H161.44l.81-3.54h7.07l.88-3.86h-7L164,19H171l.88-3.82h-7Zm32.39-1.53h1.57s2.19-.22,3.74-4.72h5.34a19.66,19.66,0,0,1-1.16,2.46h6.57l-.74,3.44h-8.51a8.08,8.08,0,0,1-5.31,2.46H197.1Zm14.54,4.48-.94,3.57h-5.9L204.6,23h6l-.81,3.54h-6.06l-1.13,4.92c-.2,1.16.81,1.13.81,1.13h4.92l-.81,3.55H199.9a3.35,3.35,0,0,1-1.82-.5,2.45,2.45,0,0,1-.81-2.7l1.45-6.3H195.1l.84-3.57h3.62l1.15-4.92h-3.64l.81-3.54ZM233,17.67l2.86-12.3h-9.1a11.7,11.7,0,0,0-5.66,2.29l.41-2.31h-4.92l-6.42,27.46a2.48,2.48,0,0,0,.32,2.46,3.49,3.49,0,0,0,2.46.88h5.88l.81-3.54h-3.29a.86.86,0,0,1-.86-.87,1.09,1.09,0,0,1,0-.26l2.27-9.85h10.55a3.87,3.87,0,0,0,2.46-.78A5.49,5.49,0,0,0,233,17.67Zm-12.3-8.76h9.18l-.66,2.83h-4.16A11.78,11.78,0,0,0,219.58,14Zm7,9.18h-9.08l.64-2.83h9.18Z"/><path class="cls-5" d="M220.2,23.09h5v2.46h1.82a.88.88,0,0,0,.82-.57l.44-1.89h3.89l-.62,2.68a3.14,3.14,0,0,1-1.13,1.82,4.41,4.41,0,0,1-2.78.71h-2.46v3.6a.83.83,0,0,0,.92.73h3.71L229,36.18h-5.41s-2.46,0-3-1.09a4,4,0,0,1-.3-1.67Zm38.73-14.2.84-3.57h-6.45a12.33,12.33,0,0,0-5.51,2.29l.51-2.29h-5.06l-6,25.74h-1.82l-.81,3.54H246.4L246,36.15h5l.35-1.52h1.47l.81-3.55h-1.47l5.14-22.14ZM247.24,31h-4.92l1.16-4.92h4.92Zm2-8.51a10.67,10.67,0,0,0-5.39,2.24l1.7-7.38h4.92Zm2-8.59a10.71,10.71,0,0,0-5.39,2.24l1.7-7.38h4.92Zm6.3,3.55.91-3.5h17.77l-.81,3.52H269l-.77,3.35h6.35l-.93,3.52h-6.89l-1.08,1.82h3.05l.88,5s.22,1.28.89,1.38h1.25l-.83,3.54h-2.69A3.69,3.69,0,0,1,265.52,35a4.58,4.58,0,0,1-.64-2l-.73-4.23-2.47,4.28A7.79,7.79,0,0,1,260,35.17a4.46,4.46,0,0,1-3,1h-3.7l.82-3.55H256a2.11,2.11,0,0,0,1.5-1l4.38-7.21H256l.81-3.52h6.38l.78-3.37ZM278.1,5.35h-5.52a9.15,9.15,0,0,1-.93,2A3.09,3.09,0,0,1,269,8.52l-.79,3.57h3.06a5.84,5.84,0,0,0,4.23-2A11.47,11.47,0,0,0,278.1,5.35Zm-17.77,0h5.46a7.74,7.74,0,0,0,0,2s.2,1.11,2.1,1.13l-.84,3.57H264a3.61,3.61,0,0,1-3.32-2,7.58,7.58,0,0,1-.35-4.77ZM122.42,57.12a13.55,13.55,0,0,1-6.18,1.2,6.49,6.49,0,0,1-7-5.89,6.37,6.37,0,0,1,.33-2.7,11.19,11.19,0,0,1,10.7-8.61,9.15,9.15,0,0,1,5.46,1.21l-1.55,2.46a7.82,7.82,0,0,0-4.16-.94,7.71,7.71,0,0,0-6.74,5.91A4.45,4.45,0,0,0,116,55.44a4.4,4.4,0,0,0,1.29.25,11.85,11.85,0,0,0,4.7-.91Zm8.86.91L132.92,51c.25-1.08,0-1.69-1.35-1.69a5,5,0,0,0-2.46.86L127.29,58h-3.2l4-17.22,3.34-.35-1.77,7.7a8.31,8.31,0,0,1,4.06-1.37,2.46,2.46,0,0,1,2.61,3.34l-1.82,7.83Zm12-14.87a2.33,2.33,0,0,1-2.07,1.68,1.33,1.33,0,0,1-1.32-1.33,1.39,1.39,0,0,1,0-.35,2.47,2.47,0,0,1,2-1.69,1.32,1.32,0,0,1,1.36,1.3A1.27,1.27,0,0,1,143.26,43.16Zm-1,3.94L139.84,58h-3.3L139,47.1Zm7,10.93L150.91,51c.25-1.08,0-1.69-1.33-1.69a4.86,4.86,0,0,0-2.46.86L145.3,58h-3.17l2.46-10.92h3.1l-.13,1.05a8.27,8.27,0,0,1,4.16-1.37,2.46,2.46,0,0,1,2.8,2.06,2.42,2.42,0,0,1-.19,1.38L152.61,58Zm8.24.24c-2.19,0-3.27-1.33-2.85-3.15A5.35,5.35,0,0,1,160,51.36h2.31l.13-.54c.22-1,0-1.8-1.65-1.8a9,9,0,0,0-3.25.66l-.3-1.67a12.89,12.89,0,0,1,4.93-1.11c2.6,0,4,1.28,3.54,3.4l-1.4,6.05a4.58,4.58,0,0,0,0,1.73H161a3.09,3.09,0,0,1,0-1,6,6,0,0,1-3.49,1.15Zm4.4-5.34-1.57.13c-1,0-2.46.46-2.66,1.72s.79,1.33,1.38,1.33a5.36,5.36,0,0,0,2.34-.89Zm23.82-.61a8.12,8.12,0,0,1-8.36,6c-4.51,0-6.4-2.46-5.59-6l2.46-10.85h3.52L175.32,51.9c-.57,2.46.17,3.84,2.76,3.84a4.72,4.72,0,0,0,4.5-3.84L185,41.47h3.2ZM193.92,58,195.55,51c.24-1.08,0-1.69-1.33-1.69a4.71,4.71,0,0,0-2.46.86L189.94,58h-3.18l2.46-10.92h3.08l-.13,1.05a8.25,8.25,0,0,1,4.19-1.37,2.46,2.46,0,0,1,2.76,2.12A2.54,2.54,0,0,1,199,50.1l-1.83,7.83Zm12.23-14.87a2.32,2.32,0,0,1-2.07,1.68,1.33,1.33,0,0,1-1.32-1.33,1.39,1.39,0,0,1,0-.35,2.47,2.47,0,0,1,2-1.69,1.31,1.31,0,0,1,1.35,1.3A1,1,0,0,1,206.15,43.16Zm-1,3.94L202.73,58h-3.37l2.46-10.93Zm12.89,5.46a7.74,7.74,0,0,1-7.55,5.71,4.5,4.5,0,0,1-5.06-3.87,4.59,4.59,0,0,1,.14-1.84,7.74,7.74,0,0,1,7.55-5.8,4.49,4.49,0,0,1,4.92,5.8Zm-9,0c-.44,1.87,0,3.55,2,3.55a4.3,4.3,0,0,0,3.57-3.55c.44-1.89-.3-3.54-1.92-3.54A4,4,0,0,0,209.05,52.56ZM225.66,58,227.29,51c.24-1.08,0-1.69-1.36-1.69a4.77,4.77,0,0,0-2.46.86L221.65,58H218.5L221,47.08H224v1.05a8.31,8.31,0,0,1,4.06-1.37,2.46,2.46,0,0,1,2.76,2.12,2.54,2.54,0,0,1-.15,1.22L228.89,58Zm11.1-10.93V48a6.38,6.38,0,0,1,3.57-1.23c3,0,4.6,2,3.81,5.48a7.37,7.37,0,0,1-6.59,5.93,5.68,5.68,0,0,1-3.08-.64l-1.4,6.2h-3.25l3.84-16.63Zm.44,9.06c1.26,0,2.78-1,3.42-3.77s-.51-3.3-1.77-3.3a5.3,5.3,0,0,0-2.58.87l-1.33,5.7a4.23,4.23,0,0,0,2.29.5Zm10.12,2.11c-2.17,0-3.28-1.33-2.86-3.15a5.36,5.36,0,0,1,5.32-3.74h2.31l.12-.54c.22-1,0-1.79-1.65-1.79a8.6,8.6,0,0,0-3.24.66L247,48a12.48,12.48,0,0,1,4.92-1.11c2.61,0,4,1.28,3.54,3.39l-1.4,6.06a5,5,0,0,0,0,1.72h-3.39a2.58,2.58,0,0,1,0-1,6.1,6.1,0,0,1-3.37,1.13Zm4.4-5.34-1.6.13c-1,0-2.46.46-2.66,1.72s.79,1.33,1.38,1.33a5.36,5.36,0,0,0,2.34-.89Z"/><path class="cls-5" d="M259.69,60.81c-1.11,1.79-2.46,3.17-4.38,3.17a4.91,4.91,0,0,1-3.1-.76l1.23-1.95a4.32,4.32,0,0,0,1.8.42c1.23,0,1.75-.93,2.73-2.31l.74-1.18-2-11.12h3.35l1.05,7.38,4.38-7.38h2.73Z"/></g></g></svg>