<svg xmlns="http://www.w3.org/2000/svg" width="18.03" height="18" viewBox="0 0 18.03 18">
  <defs>
    <style>
      .cls-1 {
        fill-rule: evenodd;
      }
    </style>
  </defs>
  <path id="jiaolianshenhe" class="cls-1" d="M4229.66,249.178c-0.18-.063-0.35-0.126-0.53-0.189a1.08,1.08,0,0,1-.38-1.683h-0.01a7.45,7.45,0,0,0,2.02-4.941,4.118,4.118,0,1,0-8.22.009,7.417,7.417,0,0,0,2.01,4.95,1.172,1.172,0,0,1-.52,1.674c-4.14,1.647-5.03,3.87-5.03,3.87V256h7.03l1.2-4.383Zm4.43,0.72-0.68-.675-0.91-.909-4.11,4.086a0.429,0.429,0,0,0-.13.18l-0.95,3.42,3.49-.882a0.3,0.3,0,0,0,.17-0.117l4.13-4.1Zm-5.66,5.049s0.41-1.638.47-1.935a3.723,3.723,0,0,1,1.47,1.467Zm4.45-7.047,2.58,2.592,0.6-.558-2.59-2.592Zm3.86-.036-1.24-1.242a0.874,0.874,0,0,0-1.23-.009l-0.38.387,2.48,2.484,0.37-.387a0.864,0.864,0,0,0,.02-1.218C4236.75,247.874,4236.75,247.869,4236.74,247.864Z" transform="translate(-4219 -238)"/>
</svg>
