<svg xmlns="http://www.w3.org/2000/svg" width="24" height="24" viewBox="0 0 24 24">
  <defs>
    <style>
      .cls-1 {
        fill: #fff;
        fill-rule: evenodd;
      }
    </style>
  </defs>
  <path id="icon-fudao" class="cls-1" d="M880.953,1152.36l-2.258,1.01h0q0,0.015-6.709,3.1a4.708,4.708,0,0,1-3.953,0l-8.976-4.11a1.825,1.825,0,0,1-.875-0.9h0a1.828,1.828,0,0,1,.844-2.37l10.3-4.94A1.6,1.6,0,0,1,870,1144a1.643,1.643,0,0,1,.722.16L881,1149.09a1.748,1.748,0,0,1,.859.91A1.824,1.824,0,0,1,880.953,1152.36ZM862,1155.38l7.433,3.3a1.459,1.459,0,0,0,1.159,0l7.348-3.3a0.429,0.429,0,0,1,.193-0.04,0.5,0.5,0,0,1,.49.51v7.25a0.526,0.526,0,0,1-.257.45l-7.485,4.21a1.771,1.771,0,0,1-1.741,0l-7.563-4.21a0.528,0.528,0,0,1-.261-0.46v-7.24a0.51,0.51,0,0,1,.04-0.2A0.484,0.484,0,0,1,862,1155.38Zm19.351-1.25a0.4,0.4,0,0,1,.112-0.02,0.245,0.245,0,0,1,.244.25v4.08a1.6,1.6,0,0,1-.844,1.44,0.5,0.5,0,0,1-.661-0.24,0.556,0.556,0,0,1-.046-0.23h-0.014v-4.49a0.247,0.247,0,0,1,.135-0.22Z" transform="translate(-858 -1144)"/>
</svg>
