<svg xmlns="http://www.w3.org/2000/svg" width="14" height="14.031" viewBox="0 0 14 14.031">
  <defs>
    <style>
      .cls-1 {
        fill-rule: evenodd;
      }
    </style>
  </defs>
  <path id="icon-shouye" class="cls-1" d="M271.355,35.234A1.782,1.782,0,0,1,269.606,37h-9.23a1.777,1.777,0,0,1-1.75-1.73l-0.633-7.6a1.772,1.772,0,0,1,.9-1.544l5.1-2.884a2.037,2.037,0,0,1,2.016,0l5.1,2.867a1.769,1.769,0,0,1,.9,1.544V27.7Zm-8.1.407h3.451V31.825a0.3,0.3,0,0,0-.135-0.289h-3.18a0.293,0.293,0,0,0-.136.289v3.816Zm7.183-8.329-5.084-2.884a0.684,0.684,0,0,0-.717,0l-5.1,2.884a0.373,0.373,0,0,0-.215.339l0.65,7.583a0.413,0.413,0,0,0,.417.407h1.532V31.825a1.555,1.555,0,0,1,1.468-1.646h3.18a1.578,1.578,0,0,1,1.467,1.646v3.816h1.583a0.413,0.413,0,0,0,.416-0.407V35.183l0.617-7.531A0.388,0.388,0,0,0,270.44,27.312Z" transform="translate(-258 -22.969)"/>
</svg>
