<svg xmlns="http://www.w3.org/2000/svg" width="44" height="44" viewBox="0 0 44 44">
  <defs>
    <style>
      .cls-1 {
        fill: #fff;
        fill-rule: evenodd;
      }
    </style>
  </defs>
  <path id="icon-TTT" class="cls-1" d="M284.742,3863.35a1.6,1.6,0,0,0,.964-1.57,1.555,1.555,0,0,0-.964-1.56l-15.1-7.7a4.609,4.609,0,0,0-2.247-.52,4.713,4.713,0,0,0-2.272.52L250,3860.17a1.7,1.7,0,0,0-.961,1.61,1.649,1.649,0,0,0,.961,1.57l15.1,7.67a4.714,4.714,0,0,0,2.273.53h0.051a4.79,4.79,0,0,0,2.273-.53Zm3.18,3.32a2.022,2.022,0,0,0-.934.23l-14.835,7.86a4.279,4.279,0,0,0-2.218,3.78v15.24a2.174,2.174,0,0,0,2.085,2.22,2.152,2.152,0,0,0,.936-0.23l14.833-7.86a4.3,4.3,0,0,0,2.218-3.76v-15.29a2.172,2.172,0,0,0-2.082-2.2Zm-24.081,7.98-14.836-7.83a2.015,2.015,0,0,0-.933-0.23,2.147,2.147,0,0,0-2.085,2.19v15.29a4.182,4.182,0,0,0,2.218,3.76l14.835,7.83a2.063,2.063,0,0,0,.934.26,2.172,2.172,0,0,0,2.085-2.21v-15.3a4.33,4.33,0,0,0-2.218-3.76h0Z" transform="translate(-246 -3852)"/>
</svg>
