<svg xmlns="http://www.w3.org/2000/svg" width="18" height="18" viewBox="0 0 18 18">
  <defs>
    <style>
      .cls-1 {
        fill: #00afff;
        fill-rule: evenodd;
      }
    </style>
  </defs>
  <path id="icon-jifen" class="cls-1" d="M6455,201.267c-4.97,0-9-1.911-9-4.268a2.5,2.5,0,0,1,.77-1.724c1.39,1.5,4.55,2.543,8.23,2.543s6.84-1.046,8.23-2.543A2.5,2.5,0,0,1,6464,197C6464,199.356,6459.97,201.267,6455,201.267Zm0-4.733c-4.97,0-9-1.911-9-4.268s4.03-4.268,9-4.268,9,1.911,9,4.268S6459.97,196.534,6455,196.534Zm0,6.135c3.72,0,6.92-1.073,8.29-2.6a2.484,2.484,0,0,1,.71,1.665c0,2.357-4.03,4.268-9,4.268s-9-1.911-9-4.268a2.484,2.484,0,0,1,.71-1.665C6448.08,201.6,6451.28,202.669,6455,202.669Z" transform="translate(-6446 -188)"/>
</svg>
