<?xml version="1.0" standalone="no"?><!DOCTYPE svg PUBLIC "-//W3C//DTD SVG 1.1//EN" "http://www.w3.org/Graphics/SVG/1.1/DTD/svg11.dtd"><svg t="1597824273698" class="icon" viewBox="0 0 1024 1024" version="1.1" xmlns="http://www.w3.org/2000/svg" p-id="4150" xmlns:xlink="http://www.w3.org/1999/xlink" width="200" height="200"><defs><style type="text/css"></style></defs><path d="M653.5168 221.115733V195.925333c0-13.9264 11.195733-25.224533 24.9856-25.224533 13.789867 0 24.9856 11.298133 24.9856 25.258667v25.1904h58.2656C812.373333 221.115733 853.333333 262.5536 853.333333 313.617067v134.587733c0 13.9264-11.195733 25.258667-24.9856 25.258667a25.088 25.088 0 0 1-24.951466-25.258667v-58.88H220.603733v361.6768c0 23.210667 18.6368 42.052267 41.642667 42.052267h166.5024c13.789867 0 24.9856 11.264 24.9856 25.224533 0 13.9264-11.195733 25.258667-24.9856 25.258667H262.2464C211.626667 843.502933 170.666667 802.065067 170.666667 750.967467V313.6512c0-51.0976 40.994133-92.501333 91.579733-92.501333H320.512v-25.258667c0-13.9264 11.195733-25.224533 24.9856-25.224533 13.789867 0 24.9856 11.298133 24.9856 25.258666v25.1904h283.0336z m0 50.4832h-283.0336v25.224534c0 13.9264-11.195733 25.258667-24.9856 25.258666a25.088 25.088 0 0 1-24.9856-25.258666v-25.258667H262.2464c-23.005867 0-41.642667 18.8416-41.642667 42.0864v25.224533h582.792534v-25.258666c0-23.210667-18.6368-42.018133-41.642667-42.018134H703.488v25.224534c0 13.9264-11.195733 25.258667-24.9856 25.258666a25.088 25.088 0 0 1-24.9856-25.258666v-25.258667z m99.054933 545.621334a2836.821333 2836.821333 0 0 0-34.850133 11.0592l-17.169067 5.358933-15.394133 4.8128-10.001067 3.140267a815.786667 815.786667 0 0 0-24.200533 7.918933c-7.031467 2.389333-13.892267 3.822933-21.9136 3.822933-18.500267 0-32.768-7.133867-45.738667-19.114666-45.909333-43.1104-83.6608-82.773333-117.077333-124.279467a115.131733 115.131733 0 0 0-9.6256-10.069333l-1.365333-1.297067-6.314667-6.280533c-33.450667-34.816-24.132267-86.050133 19.319467-105.984 3.822933-1.809067 7.714133-3.2768 11.707733-4.4032l-3.6864-12.526934-5.802667-19.626666-11.537066-39.2192a161.006933 161.006933 0 0 1-2.389334-8.669867 97.28 97.28 0 0 1-2.013866-10.8544c-3.652267-31.914667 12.253867-61.5424 43.9296-72.362667 7.202133-2.901333 14.267733-4.096 21.6064-4.096 31.402667 0 50.7904 19.831467 59.869866 44.987734 2.389333 6.724267 4.130133 11.9808 7.748267 23.313066l0.375467 1.194667 0.853333 2.594133c1.024-0.2048 2.013867-0.443733 3.072-0.6144 5.154133-1.1264 10.274133-1.6384 15.189333-1.6384 10.820267 0 20.48 2.389333 28.808534 6.621867l0.477866-0.2048c9.216-3.857067 18.670933-6.0416 28.706134-6.0416 12.9024 0 24.917333 3.7888 34.986666 10.581333 3.413333-1.024 7.133867-1.911467 11.093334-2.525866 3.1744-0.341333 3.1744-0.341333 5.563733-0.477867 2.389333-0.068267 2.389333-0.068267 3.515733-0.034133 29.696 0 52.053333 18.568533 62.464 44.168533 33.450667 82.432 39.8336 160.324267 13.960534 237.397333-7.168 21.674667-22.698667 36.386133-44.168534 43.349334z m-3.1744-59.392c23.210667-68.983467 14.097067-135.8848-12.8-202.205867-3.140267-7.645867-8.635733-12.868267-16.2816-12.868267-0.955733 0-1.911467 0-2.8672 0.136534-9.693867 1.570133-7.645867 10.410667-7.645866 17.476266v1.092267c0 8.260267-3.003733 14.4384-11.741867 15.428267-0.580267 0.1024-1.194667 0.1024-1.774933 0.1024-7.304533 0-11.025067-5.12-12.219734-12.731734-1.194667-7.645867-3.003733-14.9504-7.0656-21.504-3.208533-5.597867-7.2704-7.509333-11.844266-7.509333a24.610133 24.610133 0 0 0-9.557334 2.1504c-8.362667 3.549867-7.406933 9.966933-5.393066 17.032533 0.955733 3.2768 2.048 6.417067 2.525866 9.8304 0.682667 6.792533-1.706667 12.4928-8.123733 14.677334a15.189333 15.189333 0 0 1-4.9152 0.989866c-4.437333 0-8.021333-2.184533-10.6496-6.690133a71.5776 71.5776 0 0 1-8.738133-24.541867c-1.672533-9.557333-5.7344-13.824-13.141334-13.824a22.459733 22.459733 0 0 0-4.676266 0.477867c-12.936533 2.423467-17.578667 8.4992-15.086934 20.2752 1.570133 7.406933 4.539733 14.574933 6.485334 21.845333 1.774933 6.4512 0 12.151467-6.485334 15.086934a12.049067 12.049067 0 0 1-5.461333 1.4336c-3.959467 0-7.5776-2.184533-10.205867-5.9392a30.549333 30.549333 0 0 1-4.437333-9.1136 993.4848 993.4848 0 0 0-19.2512-56.9344c-5.461333-14.9504-9.693867-30.242133-15.0528-45.192534-2.286933-6.314667-6.2464-11.776-12.936533-11.776a8.0896 8.0896 0 0 0-4.164267 0.955734c-9.557333 2.696533-12.8 9.864533-11.741867 19.217066 0.477867 3.618133 1.570133 7.2704 2.628267 10.922667 11.605333 39.2192 23.108267 78.574933 34.7136 117.6576 1.774933 5.700267 3.6864 11.537067 4.881067 17.5104 1.092267 6.0416-1.058133 11.400533-6.5536 14.4384a10.171733 10.171733 0 0 1-5.393067 1.570133 15.36 15.36 0 0 1-9.1136-3.754666c-3.072-2.423467-5.461333-5.461333-8.465067-7.645867a26.692267 26.692267 0 0 0-16.759466-6.314667 24.644267 24.644267 0 0 0-10.6496 2.389334c-12.424533 5.7344-14.1312 15.36-4.676267 25.156266 6.826667 6.929067 14.2336 13.482667 20.343467 21.162667 34.338133 42.5984 72.362667 81.578667 112.196266 118.9888 3.959467 3.652267 7.304533 5.597867 11.741867 5.597867a19.456 19.456 0 0 0 6.109867-1.2288c16.725333-5.802667 33.621333-10.820267 50.346666-16.145067 17.476267-5.358933 34.816-11.0592 52.394667-16.520533a15.837867 15.837867 0 0 0 11.502933-11.1616z"  p-id="4151"></path></svg>