<svg xmlns="http://www.w3.org/2000/svg" width="20" height="20" viewBox="0 0 20 20">
  <defs>
    <style>
      .cls-1 {
        fill-rule: evenodd;
      }
    </style>
  </defs>
  <path id="icon-D" class="cls-1" d="M156,392a10,10,0,1,1,10-10A10,10,0,0,1,156,392Zm4.695-12.536a3.515,3.515,0,0,0-.906-1.527,3.077,3.077,0,0,0-1.42-.742A8.264,8.264,0,0,0,156.5,377h-3.516v10H156.5a6.775,6.775,0,0,0,1.865-.238,3.272,3.272,0,0,0,1.42-.813,3.753,3.753,0,0,0,.906-1.535,7.8,7.8,0,0,0,.317-2.412A8.425,8.425,0,0,0,160.7,379.464Zm-2.809,4.559a1.13,1.13,0,0,1-.595.411,3.276,3.276,0,0,1-.945.115h-0.727v-5.157h0.727a3.183,3.183,0,0,1,.925.115,1.18,1.18,0,0,1,.6.4,1.829,1.829,0,0,1,.318.8,7.522,7.522,0,0,1,.092,1.29,7.392,7.392,0,0,1-.086,1.238A1.852,1.852,0,0,1,157.886,384.023Z" transform="translate(-146 -372)"/>
</svg>
