<svg xmlns="http://www.w3.org/2000/svg" width="30" height="30" viewBox="0 0 30 30">
  <defs>
    <style>
      .cls-1 {
        fill: #00afff;
        fill-rule: evenodd;
      }
    </style>
  </defs>
  <path id="icon-xxxs" class="cls-1" d="M102,1656H88a8,8,0,0,1-8-8v-14a8,8,0,0,1,8-8h14a8,8,0,0,1,8,8v14A8,8,0,0,1,102,1656Zm-7.655-20.75a3.252,3.252,0,0,0-3.238-3.25H89.234A3.252,3.252,0,0,0,86,1635.25v1.88a3.247,3.247,0,0,0,3.239,3.25h5.112v-5.13Zm0,6.37H89.234A3.252,3.252,0,0,0,86,1644.87v1.87a3.247,3.247,0,0,0,3.239,3.25h1.873a3.25,3.25,0,0,0,3.239-3.26v-5.11Zm9.655-6.37a3.241,3.241,0,0,0-3.239-3.25H98.9a3.252,3.252,0,0,0-3.239,3.25v5.13h5.1a3.241,3.241,0,0,0,3.239-3.25v-1.88Zm0,9.62h0a3.241,3.241,0,0,0-3.239-3.25h-5.1v5.11a3.249,3.249,0,0,0,3.239,3.26h1.862a3.248,3.248,0,0,0,3.239-3.25v-1.87Z" transform="translate(-80 -1626)"/>
</svg>
