<svg xmlns="http://www.w3.org/2000/svg" width="16" height="16" viewBox="0 0 16 16">
  <defs>
    <style>
      .cls-1 {
        fill-rule: evenodd;
      }
    </style>
  </defs>
  <path id="icon-women" class="cls-1" d="M1244.32,26.243a1.759,1.759,0,0,0-.4,1.292,0.7,0.7,0,0,1-.69.708,0.709,0.709,0,0,1-.7-0.708,3.077,3.077,0,0,1,.85-2.353,2.455,2.455,0,0,1,1.83-.637,0.7,0.7,0,0,1,.64.761,0.7,0.7,0,0,1-.74.655A1.155,1.155,0,0,0,1244.32,26.243Zm9.95,5.645-5.79,5.892a0.66,0.66,0,0,1-.97,0l-5.8-5.874a6.065,6.065,0,0,1,0-8.458,4.769,4.769,0,0,1,6.79,0l1.18,1.2a2.738,2.738,0,0,0,1.58.92,0.409,0.409,0,0,0,.3-0.177,0.679,0.679,0,0,1,.97-0.106,0.712,0.712,0,0,1,.11.991,1.765,1.765,0,0,1-1.32.69h-0.09a4.271,4.271,0,0,1-2.56-1.327l-1.18-1.2a3.36,3.36,0,0,0-4.8,0,4.648,4.648,0,0,0,0,6.458l5.3,5.379,5.29-5.4a4.61,4.61,0,0,0,0-6.458,3.338,3.338,0,0,0-3.16-.92,0.689,0.689,0,0,1-.84-0.531,0.7,0.7,0,0,1,.52-0.849,4.729,4.729,0,0,1,4.47,1.309A6.034,6.034,0,0,1,1254.27,31.888Z" transform="translate(-1240 -22)"/>
</svg>
