<svg xmlns="http://www.w3.org/2000/svg" width="25.97" height="24" viewBox="0 0 25.97 24">
  <defs>
    <style>
      .cls-1 {
        fill: #00afff;
        fill-rule: evenodd;
      }
    </style>
  </defs>
  <path id="icon-siwei" class="cls-1" d="M2414.06,1199.87l-0.74.26a5.666,5.666,0,0,1-1.66,5.11l2.07,2.21a3.841,3.841,0,0,1,4.92,1.69,3.326,3.326,0,0,1-1.84,4.54,3.832,3.832,0,0,1-4.91-1.69,3.212,3.212,0,0,1,.39-3.46l-2.08-2.21a6.887,6.887,0,0,1-3.29.82,6.781,6.781,0,0,1-3.75-1.11l-1.31,1.22a3.3,3.3,0,0,1-1.54,4.63,3.855,3.855,0,0,1-5.01-1.41,3.3,3.3,0,0,1,1.53-4.64,3.978,3.978,0,0,1,3.76.15l1.22-1.13a5.7,5.7,0,0,1-1.39-3.71,5.547,5.547,0,0,1,.75-2.79l-1.68-.93a3.944,3.944,0,0,1-5.24.29,3.252,3.252,0,0,1-.31-4.84,3.944,3.944,0,0,1,5.24-.29,3.3,3.3,0,0,1,1.16,3.31l1.92,1.07a6.711,6.711,0,0,1,4.65-1.81,6.91,6.91,0,0,1,2.51.46l0.98-1.33a2.43,2.43,0,0,1,.24-3.63,2.929,2.929,0,0,1,3.92.23,2.426,2.426,0,0,1-.24,3.62,2.882,2.882,0,0,1-2.29.61l-1.01,1.39a6,6,0,0,1,1.72,2l0.7-.25a1.848,1.848,0,0,1,2.16-1.36,1.726,1.726,0,0,1,1.48,2,1.86,1.86,0,0,1-2.17,1.37,1.93,1.93,0,0,1-.86-0.39h0Z" transform="translate(-2393 -1190)"/>
</svg>
