<svg xmlns="http://www.w3.org/2000/svg" width="16" height="16" viewBox="0 0 16 16">
  <defs>
    <style>
      .cls-1 {
        fill-rule: evenodd;
      }
    </style>
  </defs>
  <path id="icon-xuexi" class="cls-1" d="M677.932,26.1l-3.873,10a2.675,2.675,0,0,1-2.367,1.882h-7.681a2.473,2.473,0,0,1-2.02-2.706,4.022,4.022,0,0,1,.414-1.882l4.553-10.953A0.646,0.646,0,0,1,667.537,22h6.439a1.587,1.587,0,0,1,1.39.994,2.615,2.615,0,0,1,.067,2.03l-3.245,8.267a1.948,1.948,0,0,1-1.721,1.353h-7.085a2.216,2.216,0,0,0-.066.635,0.984,0.984,0,0,0,.695,1.015h7.681a1.316,1.316,0,0,0,1.175-.93l3.873-10.022a0.606,0.606,0,0,1,.895-0.381A0.968,0.968,0,0,1,677.932,26.1Zm-7.449,6.851a0.614,0.614,0,0,0,.53-0.423l3.245-8.246a0.469,0.469,0,0,0-.017-0.38,0.283,0.283,0,0,0-.265-0.19h-6.043l-3.84,9.24h6.39Zm0.563-8.077a0.871,0.871,0,0,1,0,1.692h-2.88a0.871,0.871,0,0,1,0-1.692h2.88Zm0.5,4.5a0.774,0.774,0,0,1-.663.846h-4.105a0.871,0.871,0,0,1,0-1.691h4.105A0.774,0.774,0,0,1,671.543,29.381Z" transform="translate(-662 -22)"/>
</svg>
