<svg xmlns="http://www.w3.org/2000/svg" width="24" height="24" viewBox="0 0 24 24">
  <defs>
    <style>
      .cls-1 {
        fill: #00afff;
        fill-rule: evenodd;
      }
    </style>
  </defs>
  <path id="icon-jiaolian-big" class="cls-1" d="M333.81,221.56l-1.9,2.054a0.747,0.747,0,0,0-.179.61l0.447,2.9a0.692,0.692,0,0,1-.235.666,0.6,0.6,0,0,1-.666.063l-2.344-1.372a0.553,0.553,0,0,0-.576,0l-2.344,1.369a0.6,0.6,0,0,1-.667-0.063,0.688,0.688,0,0,1-.235-0.666l0.451-2.9a0.741,0.741,0,0,0-.179-0.61l-1.9-2.051a0.724,0.724,0,0,1-.161-0.7,0.681,0.681,0,0,1,.5-0.48l2.621-.425a0.632,0.632,0,0,0,.467-0.378l1.17-2.638a0.6,0.6,0,0,1,1.118,0l1.17,2.641a0.633,0.633,0,0,0,.468.378l2.621,0.425a0.674,0.674,0,0,1,.5.48A0.728,0.728,0,0,1,333.81,221.56Zm-7.257-8.09a2.993,2.993,0,0,1-.4,1.342,7.885,7.885,0,0,0-4.351,7.159A8.041,8.041,0,0,0,324.449,228H310.007v-0.054c0.061-.926.327-3.176,0.851-3.887a5.7,5.7,0,0,1,1.565-1.388c1.358-.839,6.351-2.342,6.608-3.071v-1.2a2.025,2.025,0,0,1-1.3-1.182,7.252,7.252,0,0,1-.656-1.958,1.107,1.107,0,0,1-.784-0.7,3.477,3.477,0,0,1-.26-1.155,1.247,1.247,0,0,1,.468-1.045,13.025,13.025,0,0,1-.474-3.685,5.73,5.73,0,0,1,.513-2.244,3.76,3.76,0,0,1,1.2-1.444,6.23,6.23,0,0,1,3.6-.979,4.092,4.092,0,0,1,2.063.485,1.756,1.756,0,0,1,.557.548,3.067,3.067,0,0,1,1.644.717,3.615,3.615,0,0,1,1.045,2.334,10.956,10.956,0,0,1-.558,4.271A1.264,1.264,0,0,1,326.553,213.47Z" transform="translate(-310 -204)"/>
</svg>
