<svg xmlns="http://www.w3.org/2000/svg" width="16" height="16" viewBox="0 0 16 16">
  <defs>
    <style>
      .cls-1 {
        fill-rule: evenodd;
      }
    </style>
  </defs>
  <path id="icon-guanli" class="cls-1" d="M1391.13,29.552h-2.79A2.356,2.356,0,0,1,1386,27.19V24.375a2.356,2.356,0,0,1,2.34-2.363h2.79a2.356,2.356,0,0,1,2.34,2.363V27.19A2.343,2.343,0,0,1,1391.13,29.552Zm-2.79-5.965a0.785,0.785,0,0,0-.78.788V27.19a0.785,0.785,0,0,0,.78.787h2.79a0.785,0.785,0,0,0,.78-0.787V24.375a0.785,0.785,0,0,0-.78-0.788h-2.79Zm11.32,5.965h-2.79a2.356,2.356,0,0,1-2.34-2.362V24.375a2.356,2.356,0,0,1,2.34-2.363h2.79a2.356,2.356,0,0,1,2.34,2.363V27.19A2.356,2.356,0,0,1,1399.66,29.552Zm-2.79-5.965a0.785,0.785,0,0,0-.78.788V27.19a0.785,0.785,0,0,0,.78.787h2.79a0.785,0.785,0,0,0,.78-0.787V24.375a0.785,0.785,0,0,0-.78-0.788h-2.79ZM1399.66,38h-2.79a2.356,2.356,0,0,1-2.34-2.362V32.82a2.356,2.356,0,0,1,2.34-2.363h2.79A2.356,2.356,0,0,1,1402,32.82v2.815A2.356,2.356,0,0,1,1399.66,38Zm-2.79-5.965a0.785,0.785,0,0,0-.78.787v2.815a0.785,0.785,0,0,0,.78.788h2.79a0.785,0.785,0,0,0,.78-0.788V32.82a0.785,0.785,0,0,0-.78-0.787h-2.79ZM1391.13,38h-2.79a2.356,2.356,0,0,1-2.34-2.362V32.82a2.356,2.356,0,0,1,2.34-2.363h2.79a2.356,2.356,0,0,1,2.34,2.363v2.815A2.343,2.343,0,0,1,1391.13,38Zm-2.79-5.965a0.785,0.785,0,0,0-.78.787v2.815a0.785,0.785,0,0,0,.78.788h2.79a0.785,0.785,0,0,0,.78-0.788V32.82a0.785,0.785,0,0,0-.78-0.787h-2.79Z" transform="translate(-1386 -22)"/>
</svg>
