<svg xmlns="http://www.w3.org/2000/svg" width="24" height="24" viewBox="0 0 24 24">
  <defs>
    <style>
      .cls-1 {
        fill: #fff;
        fill-rule: evenodd;
      }
    </style>
  </defs>
  <path id="icon-jiaolian" class="cls-1" d="M97.172,3406.87a1.6,1.6,0,0,0-.133.69,3.423,3.423,0,0,0,2.5,3.5c0.04-.38.073-0.7,0.073-0.83l-0.856-2.67a0.861,0.861,0,0,1,.856-0.88h0.856a0.861,0.861,0,0,1,.856.88l-0.856,2.67c0,0.14-.029.46-0.079,0.85a3.383,3.383,0,0,0,2.648-3.51,3.14,3.14,0,0,0-.052-0.63c4.163,0.8,5.5,3.44,5.895,6.85H91.122c0.248-3.51,1.326-6.19,6.05-6.92m2.828-1.09c-2.128,0-3.854-2.19-3.854-4.89S97.874,3396,100,3396s3.853,2.19,3.853,4.89-1.725,4.89-3.853,4.89m10.684,8.88H89.316A1.318,1.318,0,0,0,88,3415.98v0.94a1.316,1.316,0,0,0,1.316,1.31h1.9v1.21a0.556,0.556,0,0,0,.557.55h16.444a0.556,0.556,0,0,0,.557-0.55v-1.21h1.9a1.315,1.315,0,0,0,1.317-1.31v-0.94a1.318,1.318,0,0,0-1.316-1.32" transform="translate(-88 -3396)"/>
</svg>
