<svg xmlns="http://www.w3.org/2000/svg" width="18" height="18" viewBox="0 0 18 18">
  <defs>
    <style>
      .cls-1 {
        fill-rule: evenodd;
      }
    </style>
  </defs>
  <path id="icon-yonghu" class="cls-1" d="M4237,100.836a3.712,3.712,0,0,1-.04.668,0.652,0.652,0,0,1-.47.471l-0.15.036a1.656,1.656,0,0,0-.97.711,1.474,1.474,0,0,0-.18,1.139l0.05,0.152a0.632,0.632,0,0,1-.19.622,5.157,5.157,0,0,1-.6.365,4.422,4.422,0,0,1-.63.3,0.7,0.7,0,0,1-.67-0.151l-0.11-.115a1.719,1.719,0,0,0-2.27,0l-0.12.116a0.73,0.73,0,0,1-.67.15,7.466,7.466,0,0,1-1.22-.667,0.636,0.636,0,0,1-.19-0.622l0.05-.144a1.551,1.551,0,0,0-1.14-1.85l-0.15-.036a0.671,0.671,0,0,1-.48-0.471,5.589,5.589,0,0,1,0-1.335,0.666,0.666,0,0,1,.48-0.471l0.16-.036a1.627,1.627,0,0,0,.96-0.711,1.451,1.451,0,0,0,.18-1.139l-0.05-.151a0.626,0.626,0,0,1,.19-0.623,5.083,5.083,0,0,1,.6-0.364,4.541,4.541,0,0,1,.63-0.3,0.7,0.7,0,0,1,.67.152l0.12,0.115a1.659,1.659,0,0,0,1.13.427,1.7,1.7,0,0,0,1.14-.427l0.11-.115a0.728,0.728,0,0,1,.67-0.152,5.381,5.381,0,0,1,.62.3,4.1,4.1,0,0,1,.6.364,0.616,0.616,0,0,1,.19.623l-0.05.142a1.555,1.555,0,0,0,1.14,1.851l0.17,0.036a0.692,0.692,0,0,1,.47.47A4.337,4.337,0,0,1,4237,100.836Zm-5.08-1.9a1.912,1.912,0,1,0,0,3.817h0A1.912,1.912,0,1,0,4231.92,98.932Zm-1.13-4.528a0.876,0.876,0,0,1-.32.168,2.367,2.367,0,0,1-.1.355,5.894,5.894,0,0,0-4.25,8.133c0.1,0.223,1.24,2.736,1.38,2.94-2.31,0-6.82-.01-8.46,0-0.04-1.069-.04-3.833-0.04-4a6.732,6.732,0,0,1,.12-1.132,1.354,1.354,0,0,1,.5-0.873,3.046,3.046,0,0,1,.94-0.471c0.36-.116,2.03-0.65,2.41-0.747a3.63,3.63,0,0,0,1-.41,2.437,2.437,0,0,0,.54-0.391,0.991,0.991,0,0,0,.26-0.373,1.057,1.057,0,0,0,.08-0.391c0-.133-0.01-0.275-0.02-0.435a0.829,0.829,0,0,0-.25-0.579c-0.16-.133-0.33-0.276-0.52-0.418a0.827,0.827,0,0,1-.23-0.3,3.534,3.534,0,0,1-.18-0.4c-0.06-.151-0.12-0.311-0.17-0.481a0.617,0.617,0,0,1-.24-0.106,1.86,1.86,0,0,1-.22-0.223,1.309,1.309,0,0,1-.19-0.409,1.052,1.052,0,0,1-.06-0.481,1.377,1.377,0,0,1,.29-0.695,6.807,6.807,0,0,1,.07-1.191,5.609,5.609,0,0,1,.23-1.068,3.87,3.87,0,0,1,.52-1.014,3.09,3.09,0,0,1,.7-0.694,4.477,4.477,0,0,1,.8-0.428,3.822,3.822,0,0,1,.8-0.222,5.065,5.065,0,0,1,.8-0.062,3.472,3.472,0,0,1,.92.106,5.334,5.334,0,0,1,.82.285,4.37,4.37,0,0,1,.69.382,2.959,2.959,0,0,1,.48.427,3.657,3.657,0,0,1,.62,1.1,7.345,7.345,0,0,1,.3,1.129,7.52,7.52,0,0,1,.08,1.254,0.468,0.468,0,0,1,.18.187,1.444,1.444,0,0,1,.1.284,1.177,1.177,0,0,1,.01.418,1.311,1.311,0,0,1-.16.525A1.011,1.011,0,0,1,4230.79,94.4Z" transform="translate(-4219 -88)"/>
</svg>
