<svg xmlns="http://www.w3.org/2000/svg" width="14" height="13.969" viewBox="0 0 14 13.969">
  <defs>
    <style>
      .cls-1 {
        fill-rule: evenodd;
      }
    </style>
  </defs>
  <path id="icon-mubiao" class="cls-1" d="M371.824,25.942l-1.832,2.079,0.735,2.641a0.577,0.577,0,0,1-.14.561,0.6,0.6,0,0,1-.437.183,0.385,0.385,0,0,1-.125-0.016l-5.807-1.244-0.452,3.84a0.628,0.628,0,0,1-.611.516h-0.062a0.6,0.6,0,0,1-.532-0.653l0.532-4.492,0.11-.926,0.359-2.99,0.233-1.912a0.614,0.614,0,0,1,.267-0.425,0.59,0.59,0,0,1,.5-0.076l7.011,1.958a0.614,0.614,0,0,1,.405.394A0.535,0.535,0,0,1,371.824,25.942Zm-6.9-1.594-0.546,4.6,4.944,1.063-0.547-2a0.606,0.606,0,0,1,.123-0.531l1.426-1.624Zm-4.645,8.817a1.487,1.487,0,0,0-1.065,1.033c0,0.667,1.55,1.593,4.051,1.593s4.056-.941,4.056-1.609a1.634,1.634,0,0,0-1.19-1.092,0.583,0.583,0,0,1-.315-0.774,0.613,0.613,0,0,1,.8-0.3,2.678,2.678,0,0,1,1.939,2.186c0,1.593-2.267,2.792-5.272,2.792s-5.272-1.2-5.272-2.792a2.471,2.471,0,0,1,1.739-2.095,0.607,0.607,0,0,1,.812.273A0.574,0.574,0,0,1,360.277,33.165Z" transform="translate(-358 -23.031)"/>
</svg>
