<svg xmlns="http://www.w3.org/2000/svg" width="14" height="16" viewBox="0 0 14 16">
  <defs>
    <style>
      .cls-1 {
        fill-rule: evenodd;
      }
    </style>
  </defs>
  <path id="icon-flag" class="cls-1" d="M1662.06,376.912a0.371,0.371,0,0,0-.41.416v5.408a0.41,0.41,0,1,0,.82,0v-5.408A0.375,0.375,0,0,0,1662.06,376.912Zm11.9,6.879a1.4,1.4,0,0,1-.38.961,4.069,4.069,0,0,1-3.23,1.279c-1.9-.032-3.48-1.248-5.66-1.248a5.731,5.731,0,0,0-3.04.832v3.552a0.825,0.825,0,1,1-1.65,0V374.832a0.825,0.825,0,1,1,1.65,0v0.832a4.784,4.784,0,0,1,3.04-.832c2.18,0,3.29,1.664,5,1.664,1.84,0,2.47-.544,2.72-0.832a1.379,1.379,0,0,1,.79-0.416,0.653,0.653,0,0,1,.79.544v8h-0.03Z" transform="translate(-1660 -374)"/>
</svg>
