<svg xmlns="http://www.w3.org/2000/svg" width="20" height="20" viewBox="0 0 20 20">
  <defs>
    <style>
      .cls-1 {
        fill-rule: evenodd;
      }
    </style>
  </defs>
  <path id="icon-C" class="cls-1" d="M156,496a10,10,0,1,1,10-10A10,10,0,0,1,156,496Zm3.986-7.759a6.779,6.779,0,0,1-1.238.273,10.04,10.04,0,0,1-1.223.077,3.7,3.7,0,0,1-.976-0.112,1.421,1.421,0,0,1-.677-0.4,1.783,1.783,0,0,1-.4-0.791,5.213,5.213,0,0,1-.131-1.288,5.852,5.852,0,0,1,.115-1.253,1.887,1.887,0,0,1,.377-0.819,1.454,1.454,0,0,1,.661-0.441,3.145,3.145,0,0,1,.985-0.133,7.4,7.4,0,0,1,2.384.364v-2.366a6.222,6.222,0,0,0-1.169-.259,10.949,10.949,0,0,0-1.461-.091,8.624,8.624,0,0,0-2.169.252,4.065,4.065,0,0,0-1.654.84,3.8,3.8,0,0,0-1.054,1.547,6.625,6.625,0,0,0-.368,2.359,6.893,6.893,0,0,0,.384,2.5,3.56,3.56,0,0,0,1.084,1.526,4.03,4.03,0,0,0,1.692.763,10.779,10.779,0,0,0,2.223.21,9.014,9.014,0,0,0,1.43-.112,7.393,7.393,0,0,0,1.185-.28v-2.366Z" transform="translate(-146 -476)"/>
</svg>
