<svg xmlns="http://www.w3.org/2000/svg" width="20" height="20" viewBox="0 0 20 20">
  <defs>
    <style>
      .cls-1 {
        fill-rule: evenodd;
      }
    </style>
  </defs>
  <path id="icon-G" class="cls-1" d="M164,123a10,10,0,1,1,10-10A10,10,0,0,1,164,123Zm4.009-11.067h-3.87v2.331h1.385v1.419c-0.1.009-.179,0.014-0.237,0.014h-0.36a3.166,3.166,0,0,1-1.011-.134,1.143,1.143,0,0,1-.6-0.449,1.969,1.969,0,0,1-.279-0.836,10.333,10.333,0,0,1-.068-1.278,6.373,6.373,0,0,1,.1-1.236,1.95,1.95,0,0,1,.346-0.821,1.372,1.372,0,0,1,.638-0.457,3,3,0,0,1,.991-0.14,7.451,7.451,0,0,1,1.16.1,7.044,7.044,0,0,1,1.188.3V108.31a4.311,4.311,0,0,0-.515-0.127c-0.2-.037-0.414-0.07-0.645-0.1s-0.469-.051-0.713-0.07-0.48-.029-0.706-0.029a7.415,7.415,0,0,0-2.009.253,3.611,3.611,0,0,0-1.521.843,3.853,3.853,0,0,0-.963,1.552,7.172,7.172,0,0,0-.34,2.366,8.072,8.072,0,0,0,.326,2.507,3.479,3.479,0,0,0,.944,1.531,3.365,3.365,0,0,0,1.506.765,8.818,8.818,0,0,0,2.03.211c0.281,0,.574-0.012.883-0.035s0.6-.056.889-0.1,0.552-.092.8-0.148,0.464-.112.645-0.168v-5.632Z" transform="translate(-154 -103)"/>
</svg>
