<svg xmlns="http://www.w3.org/2000/svg" width="20" height="20" viewBox="0 0 20 20">
  <defs>
    <style>
      .cls-1 {
        fill: #db1717;
        fill-rule: evenodd;
      }
    </style>
  </defs>
  <path id="icon-jinji" class="cls-1" d="M239.938,289.99a10.01,10.01,0,1,0,8.7,15.046,10.079,10.079,0,0,0,0-10.075A9.923,9.923,0,0,0,239.938,289.99Zm-0.1,16.3s-4.864-1.8-4.864-4.439c0-2.576,2.243-3.541,3.34-5.4,0.751-1.271.71-4.181,0.71-4.181s3.406,2.074,3.267,4.337c-0.283,4.636-1.669,4.178-2.237,6A9.7,9.7,0,0,0,239.834,306.293Zm3.106-1.413a7.288,7.288,0,0,1-2.447,1.363,7.74,7.74,0,0,1,.139-2.971c0.395-1.086,1.2-1.434,1.688-2.688a13.543,13.543,0,0,0,.658-3.873s1.925,2.831,1.925,4.71A4.541,4.541,0,0,1,242.94,304.88Z" transform="translate(-230 -290)"/>
</svg>
