<svg xmlns="http://www.w3.org/2000/svg" width="18" height="18" viewBox="0 0 18 18">
  <defs>
    <style>
      .cls-1 {
        fill-rule: evenodd;
      }
    </style>
  </defs>
  <path id="icon-xiaoshoushenhe" class="cls-1" d="M4228,188a9,9,0,1,0,9,9A9,9,0,0,0,4228,188Zm-0.89,12.6a0.868,0.868,0,0,1-.07,1.148,0.886,0.886,0,0,1-.61.251,0.851,0.851,0,0,1-.61-0.251l-0.85-.848-0.86.851a0.852,0.852,0,0,1-1.21,0,0.857,0.857,0,0,1-.08-1.147l0.03-.027,0.89-.9-0.85-.859a0.867,0.867,0,0,1,.62-1.476,0.861,0.861,0,0,1,.53.186l0.03,0.024,0.9,0.9,0.92-.919a0.855,0.855,0,0,1,.53-0.186,0.881,0.881,0,0,1,.62.258,0.856,0.856,0,0,1,0,1.219l-0.85.853Zm0.58-7.141-2.7,2.7a0.848,0.848,0,0,1-.6.25,0.828,0.828,0,0,1-.58-0.229l-0.03-.021h0l-1.54-1.542a0.861,0.861,0,0,1,0-1.208,0.857,0.857,0,0,1,1.21,0l0.94,0.939,2.1-2.1a0.846,0.846,0,0,1,1.2,0A0.849,0.849,0,0,1,4227.69,193.455Zm1.89,7.082a0.849,0.849,0,0,1-.61-0.253,0.868,0.868,0,0,1,.51-1.471l0.03,0,3.69,0a0.854,0.854,0,0,1,.76.862,0.862,0.862,0,0,1-.86.862Zm0-5.451a0.849,0.849,0,0,1-.61-0.253,0.868,0.868,0,0,1,.51-1.471l0.03,0,3.69,0a0.854,0.854,0,0,1,.76.863,0.862,0.862,0,0,1-.86.862Z" transform="translate(-4219 -188)"/>
</svg>
