<svg xmlns="http://www.w3.org/2000/svg" width="24" height="24" viewBox="0 0 24 24">
  <defs>
    <style>
      .cls-1 {
        fill: #222;
        fill-rule: evenodd;
      }
    </style>
  </defs>
  <path id="icon-liucheng" class="cls-1" d="M92,2636a12,12,0,1,0,12,12A12,12,0,0,0,92,2636Zm3.451,5.68a7.213,7.213,0,0,1,3.692,5.93,3.44,3.44,0,0,0-1.5-.45,5.759,5.759,0,0,0-2.413-3.9,3.527,3.527,0,0,0,.232-1.26A2.816,2.816,0,0,0,95.452,2641.68Zm-3.469-2.08a2.5,2.5,0,1,1-2.5,2.49,2.488,2.488,0,0,1,2.5-2.49h0Zm-3.491,2.09a3.5,3.5,0,0,0,.218,1.57,5.741,5.741,0,0,0-2.413,3.9,3.482,3.482,0,0,0-1.5.49,7.2,7.2,0,0,1,3.7-5.96h0Zm-4.292,8.93a2.493,2.493,0,1,1,2.493,2.5A2.483,2.483,0,0,1,84.2,2650.62Zm7.772,4.58a7.141,7.141,0,0,1-4.094-1.29,3.474,3.474,0,0,0,1.3-.89A5.731,5.731,0,0,0,94.8,2653a3.545,3.545,0,0,0,1.283.9A7.134,7.134,0,0,1,91.972,2655.2Zm5.336-2.08a2.5,2.5,0,1,1,2.493-2.51v0.01A2.5,2.5,0,0,1,97.307,2653.12Z" transform="translate(-80 -2636)"/>
</svg>
