<svg xmlns="http://www.w3.org/2000/svg" width="18" height="18" viewBox="0 0 18 18">
  <defs>
    <style>
      .cls-1 {
        fill-rule: evenodd;
      }
    </style>
  </defs>
  <path id="icon-quanyi" class="cls-1" d="M6451.09,256l-2.28-1.764-2.81-.967,2.07-3.187,5.1,2.73Zm7.82,0,2.28-1.764,2.81-.967-2.07-3.187-5.1,2.73Zm-3.87-18-7.18,3.76v7.521l7.18,3.76,7.17-3.76V241.76Zm4.05,6.767-1.76,1.16a0.435,0.435,0,0,0-.18.509l0.67,1.876a0.49,0.49,0,0,1-.77.509l-1.76-1.162a0.548,0.548,0,0,0-.59,0l-1.76,1.16a0.485,0.485,0,0,1-.76-0.509l0.67-1.877a0.435,0.435,0,0,0-.18-0.508l-1.76-1.16a0.448,0.448,0,0,1,.29-0.821h2.17a0.506,0.506,0,0,0,.48-0.313l0.67-1.877a0.516,0.516,0,0,1,.95,0l0.68,1.877a0.48,0.48,0,0,0,.47.313h2.18A0.45,0.45,0,0,1,6459.09,244.767Z" transform="translate(-6446 -238)"/>
</svg>
