<svg xmlns="http://www.w3.org/2000/svg" width="16" height="16" viewBox="0 0 16 16">
  <defs>
    <style>
      .cls-1 {
        fill: #00afff;
        fill-rule: evenodd;
      }
    </style>
  </defs>
  <path id="icon-plan" class="cls-1" d="M1267.79,3830.86l-3.14,3.14,2.42,2.43a0.524,0.524,0,0,1,.1.11,0.705,0.705,0,0,1,.32.6v3.64a0.715,0.715,0,0,1-.71.72h-3.65a0.731,0.731,0,0,1-.6-0.32,1,1,0,0,1-.11-0.1l-2.43-2.43-3.14,3.14a0.712,0.712,0,0,1-1.01,0l-3.65-3.64a0.712,0.712,0,0,1,0-1.01l3.14-3.15-2.43-2.43h0a0.712,0.712,0,0,1,0-1.01l3.65-3.65a0.751,0.751,0,0,1,1.01,0l2.43,2.44,3.14-3.15a0.731,0.731,0,0,1,1.01,0l3.65,3.65A0.724,0.724,0,0,1,1267.79,3830.86Zm-1.73,9.2v-1.6l-1.6,1.6h1.6Zm-12.36-2.42,2.63,2.65,2.65-2.65-2.64-2.64Zm3.35-9.22-2.63,2.64,2.35,2.35a0.607,0.607,0,0,1,.1.07,0.558,0.558,0,0,1,.05.08l6.01,6.01,2.63-2.64-6.04-6.04a0.1,0.1,0,0,1-.05-0.04c-0.02-.01-0.02-0.03-0.04-0.04Zm6.6-.72-2.65,2.65,2.64,2.63,2.64-2.64Z" transform="translate(-1252 -3826)"/>
</svg>
