<svg xmlns="http://www.w3.org/2000/svg" width="18" height="18" viewBox="0 0 18 18">
  <defs>
    <style>
      .cls-1 {
        fill-rule: evenodd;
      }
    </style>
  </defs>
  <path id="icon-jiaolian" class="cls-1" d="M2138.86,101.17l-1.43,1.541a0.54,0.54,0,0,0-.13.457l0.34,2.175a0.549,0.549,0,0,1-.18.5,0.452,0.452,0,0,1-.5.047l-1.76-1.03a0.415,0.415,0,0,0-.43,0l-1.76,1.027a0.452,0.452,0,0,1-.5-0.046,0.546,0.546,0,0,1-.18-0.5l0.34-2.176a0.54,0.54,0,0,0-.13-0.458l-1.43-1.538a0.579,0.579,0,0,1-.12-0.523,0.517,0.517,0,0,1,.38-0.359l1.97-.319a0.486,0.486,0,0,0,.35-0.284l0.88-1.978a0.445,0.445,0,0,1,.42-0.288,0.467,0.467,0,0,1,.42.286l0.87,1.98a0.486,0.486,0,0,0,.35.284l1.97,0.319a0.513,0.513,0,0,1,.38.359A0.554,0.554,0,0,1,2138.86,101.17Zm-5.45-6.068a2.1,2.1,0,0,1-.3,1.007,5.918,5.918,0,0,0-3.26,5.369,6.012,6.012,0,0,0,1.99,4.519h-10.83v-0.04a7.955,7.955,0,0,1,.63-2.916,4.2,4.2,0,0,1,1.18-1.04c1.02-.63,4.76-1.757,4.95-2.3V98.8a1.541,1.541,0,0,1-.98-0.886,5.518,5.518,0,0,1-.49-1.469,0.82,0.82,0,0,1-.58-0.525,2.59,2.59,0,0,1-.2-0.866,0.921,0.921,0,0,1,.35-0.783,9.58,9.58,0,0,1-.35-2.764,4.248,4.248,0,0,1,.38-1.683,2.779,2.779,0,0,1,.9-1.083,4.691,4.691,0,0,1,2.7-.734,3.057,3.057,0,0,1,1.55.364,1.344,1.344,0,0,1,.42.411,2.267,2.267,0,0,1,1.23.538,2.738,2.738,0,0,1,.79,1.75,8.3,8.3,0,0,1-.42,3.2A0.946,0.946,0,0,1,2133.41,95.1Z" transform="translate(-2121 -88)"/>
</svg>
