<svg xmlns="http://www.w3.org/2000/svg" width="30" height="30" viewBox="0 0 30 30">
  <defs>
    <style>
      .cls-1 {
        fill: #00afff;
        fill-rule: evenodd;
      }
    </style>
  </defs>
  <path id="icon-dz" class="cls-1" d="M155.006,4386.99a15,15,0,1,1,15-14.99A15,15,0,0,1,155.006,4386.99Zm5.158-21.66a7.144,7.144,0,0,0-11.142,8.79h0l4.081,6.36a2.191,2.191,0,0,0,.749.94,2.182,2.182,0,0,0,3.252-.92l4.075-6.36,0.006-.01A7.12,7.12,0,0,0,160.164,4365.33Zm-5.055,7.21a2.13,2.13,0,1,1,2.131-2.13A2.134,2.134,0,0,1,155.109,4372.54Z" transform="translate(-140 -4357)"/>
</svg>
