<svg xmlns="http://www.w3.org/2000/svg" width="30" height="30" viewBox="0 0 30 30">
  <defs>
    <style>
      .cls-1 {
        fill: #00afff;
        fill-rule: evenodd;
      }
    </style>
  </defs>
  <path id="icon-wx" class="cls-1" d="M160.521,4533.24a0.582,0.582,0,0,1-.541-0.63,0.6,0.6,0,0,1,.541-0.63A0.633,0.633,0,1,1,160.521,4533.24Zm-3.722,0a0.582,0.582,0,0,1-.54-0.63,0.6,0.6,0,0,1,.54-0.63,0.663,0.663,0,0,1,.69.63A0.681,0.681,0,0,1,156.8,4533.24Zm7.563,0.6c0-2.7-2.641-4.95-5.612-4.95-3.151,0-5.612,2.25-5.612,4.95s2.461,4.96,5.612,4.96a7.232,7.232,0,0,0,1.951-.36l1.77,1.05-0.51-1.74A5.184,5.184,0,0,0,164.362,4533.84Zm-14.615-4.98a0.991,0.991,0,0,1-1.02-.94,0.968,0.968,0,0,1,1.02-.93,0.88,0.88,0,0,1,.84.93A0.865,0.865,0,0,1,149.747,4528.86Zm5.012-1.87a0.94,0.94,0,0,1,0,1.87,0.954,0.954,0,0,1-1.021-.94A0.919,0.919,0,0,1,154.759,4526.99Zm3.391,1.66h0.6c-0.6-2.77-3.391-4.78-6.6-4.78-3.632,0-6.513,2.52-6.513,5.83a5.671,5.671,0,0,0,2.611,4.59l-0.69,2.08,2.281-1.21a9.767,9.767,0,0,0,2.281.36h0.6a3.65,3.65,0,0,1-.18-1.38,5.727,5.727,0,0,1,1.68-3.93A5.249,5.249,0,0,1,158.15,4528.65ZM155,4547a15.005,15.005,0,1,1,15-14.99A15.019,15.019,0,0,1,155,4547Z" transform="translate(-140 -4517)"/>
</svg>
