<svg xmlns="http://www.w3.org/2000/svg" width="24" height="24" viewBox="0 0 24 24">
  <defs>
    <style>
      .cls-1 {
        fill: #fff;
        fill-rule: evenodd;
      }
    </style>
  </defs>
  <path id="icon-gongju" class="cls-1" d="M124.376,1159.19l1.688-1.69-2.25-2.44,1.687-1.69,2.25,2.26,1.686-1.69-2.061-2.44,1.687-1.69,2.249,2.25,1.874-1.69-2.249-2.25,3.561-3.56a1.425,1.425,0,0,1,.938-0.38,1.963,1.963,0,0,1,.937.38l5.248,5.25a1.431,1.431,0,0,1,.375.94,2.023,2.023,0,0,1-.375.94l-15.932,15.94a1.425,1.425,0,0,1-.938.38,1.963,1.963,0,0,1-.937-0.38l-5.248-5.25a1.431,1.431,0,0,1-.375-0.94,2.023,2.023,0,0,1,.375-0.94l3.561-3.56Zm13.5-.56,3.374,3.37v5.26H136l-3.374-3.38Zm-19.306-8.82-0.375-.38c0-.18-0.188-0.37-0.188-0.56a0.683,0.683,0,0,1,.188-0.56,0.667,0.667,0,0,1,.187-0.38l3.562-3.56a1.42,1.42,0,0,1,.937-0.38,1.963,1.963,0,0,1,.937.38l3.562,3.56-5.249,5.44Z" transform="translate(-118 -1144)"/>
</svg>
