<svg xmlns="http://www.w3.org/2000/svg" width="24" height="24" viewBox="0 0 24 24">
  <defs>
    <style>
      .cls-1 {
        fill: #fff;
        fill-rule: evenodd;
      }
    </style>
  </defs>
  <path id="icon-women" class="cls-1" d="M110.8,4158.47l-8.4-3.28v18.78h7.874a2.028,2.028,0,0,0,1.728-2.24v-11.11A2.277,2.277,0,0,0,110.8,4158.47Zm-13.767-8.31-7.682,3.21A2.252,2.252,0,0,0,88,4155.46v16.29a2.208,2.208,0,0,0,2.16,2.25H100v-21.75A2.153,2.153,0,0,0,97.036,4150.16Zm-1.2,20.28h-3.6a0.941,0.941,0,0,1,0-1.88h3.6A0.941,0.941,0,0,1,95.836,4170.44Zm-0.036-4.16H92.2a0.919,0.919,0,0,1-.9-0.94,0.933,0.933,0,0,1,.9-0.94h3.6a0.941,0.941,0,0,1,0,1.88h0Zm0-4.18H92.2a0.941,0.941,0,0,1,0-1.88h3.6A0.941,0.941,0,0,1,95.8,4162.1Zm0-4.17H92.2a0.941,0.941,0,0,1,0-1.88h3.6A0.941,0.941,0,0,1,95.8,4157.93Z" transform="translate(-88 -4150)"/>
</svg>
