<svg xmlns="http://www.w3.org/2000/svg" width="24" height="24" viewBox="0 0 24 24">
  <defs>
    <style>
      .cls-1 {
        fill: #aaa;
        fill-rule: evenodd;
      }
    </style>
  </defs>
  <path id="icon-ren-gray" class="cls-1" d="M1104,792h-16a4,4,0,0,1-4-4V772a4,4,0,0,1,4-4h16a4,4,0,0,1,4,4v16A4,4,0,0,1,1104,792Zm-9.1-20a4.592,4.592,0,0,0-4.52,4.651v0.406A4.762,4.762,0,0,0,1093,781.3v0.407a1.773,1.773,0,0,1-1.36,1.31c-1.11.326-4.05,1.554-4.52,3.27s0.63,1.717.96,1.717h3.45a1.748,1.748,0,0,1-.13-1.322c0.28-1.324,1.94-2.386,3.09-2.93a8.052,8.052,0,0,1,1.83-.747v-0.357a4.365,4.365,0,0,1-2.18-3.759V778.53a4.307,4.307,0,0,1,4.33-4.35c0.12,0,.23.007,0.34,0.016A4.46,4.46,0,0,0,1094.9,772Zm8.85,13.16a22.475,22.475,0,0,1-2.83-1.423,1.236,1.236,0,0,1-.66-1.357,3.939,3.939,0,0,0,2.2-3.451v-0.336a3.884,3.884,0,0,0-3.84-3.858,3.8,3.8,0,0,0-3.75,3.858v0.336a3.933,3.933,0,0,0,2.17,3.519v0.336a1.467,1.467,0,0,1-1.13,1.087c-0.92.27-3.35,1.289-3.74,2.712s0.52,1.423.79,1.423h11.45a1.165,1.165,0,0,0,.59-1.087A1.884,1.884,0,0,0,1103.75,785.156Z" transform="translate(-1084 -768)"/>
</svg>
