<svg xmlns="http://www.w3.org/2000/svg" width="30" height="30" viewBox="0 0 30 30">
  <defs>
    <style>
      .cls-1 {
        fill: #00afff;
        fill-rule: evenodd;
      }
    </style>
  </defs>
  <path id="icon-xdsj" class="cls-1" d="M862,1656H848a8,8,0,0,1-8-8v-14a8,8,0,0,1,8-8h14a8,8,0,0,1,8,8v14A8,8,0,0,1,862,1656Zm-8.117-5.38c0,0.01,0,.03,0,0.05a0.387,0.387,0,0,0,.44.33,0.4,0.4,0,0,0,.233-0.11l2.387-2.38a0.377,0.377,0,0,0,.1-0.18,0.387,0.387,0,0,0-.288-0.47l-2.39-.58c-0.032,0-.064-0.01-0.1-0.01a0.394,0.394,0,0,0-.393.39Zm12.043-19.23a0.859,0.859,0,0,0-.52-0.36,2.277,2.277,0,0,0-1.624.43l-19.084,9.88a1.032,1.032,0,0,0-.686.84,0.924,0.924,0,0,0,.732.78l6.033,1.95,0.9,0.36,9.84-9.49-7.644,10.37,1.242,0.5,6.062,1.97a1.283,1.283,0,0,0,.511.11,1.076,1.076,0,0,0,.468-0.11,1.554,1.554,0,0,0,.72-1.32l3.1-15.6A0.435,0.435,0,0,0,865.926,1631.39Z" transform="translate(-840 -1626)"/>
</svg>
