<svg xmlns="http://www.w3.org/2000/svg" width="30" height="30" viewBox="0 0 30 30">
  <defs>
    <style>
      .cls-1 {
        fill: #ccc;
        fill-rule: evenodd;
      }
    </style>
  </defs>
  <path id="icon-back" class="cls-1" d="M65,3123a15.005,15.005,0,0,0,0,30.01h0A15.005,15.005,0,0,0,65,3123Zm9.1,16.78H60.8l4.4,4.4a1.683,1.683,0,0,1-2.378,2.38l-7.272-7.27a1.684,1.684,0,0,1,0-2.38l7.272-7.28a1.683,1.683,0,0,1,2.378,2.38l-4.4,4.4H74.1A1.685,1.685,0,0,1,74.1,3139.78Z" transform="translate(-50 -3123)"/>
</svg>
