<svg xmlns="http://www.w3.org/2000/svg" width="18" height="18" viewBox="0 0 18 18">
  <defs>
    <style>
      .cls-1 {
        fill-rule: evenodd;
      }
    </style>
  </defs>
  <path id="icon-fudao" class="cls-1" d="M321.745,204.27h-3.968a1.831,1.831,0,0,1-1.822-1.839v-0.659h1.854a4,4,0,0,0,3.977-4.015v-0.931h1.39A1.83,1.83,0,0,1,325,198.665V206Zm-3.65-3.487h-5.607L307,203.448V190.83A2.819,2.819,0,0,1,309.806,188H318.1a2.82,2.82,0,0,1,2.807,2.834v7.119A2.821,2.821,0,0,1,318.1,200.783Zm0.172-8.508H310.1v0.875h8.169v-0.875Zm0,3.155H310.1v0.875h8.169V195.43Z" transform="translate(-307 -188)"/>
</svg>
