<svg xmlns="http://www.w3.org/2000/svg" viewBox="0 0 176.41 63.3"><defs><style>.cls-1{fill:#333;}.cls-2{fill:#1eb7fc;}</style></defs><title>资源 1</title><g id="图层_2" data-name="图层 2"><g id="图层_1-2" data-name="图层 1"><path class="cls-1" d="M73.8,9.6H85.91V5.79a1.24,1.24,0,0,1,1.25-1.25h4.52a1.24,1.24,0,0,1,1.25,1.24V9.6H105a.58.58,0,0,1,.58.58V11.5a.58.58,0,0,1-.58.58H93v3.85h10.84A33.71,33.71,0,0,1,92.63,30.51a38.8,38.8,0,0,0,13,5.62V39A51.56,51.56,0,0,1,89.5,32.7,47.5,47.5,0,0,1,73.67,39V36.36c0-.17,7.67-2.32,12.87-5.68a35.82,35.82,0,0,1-9.39-9.74h5.63a35.56,35.56,0,0,0,6.72,7.19,39.93,39.93,0,0,0,7.21-9.77H76a.58.58,0,0,1-.58-.58h0V16.53A.58.58,0,0,1,76,16h9.92V12.08H73.8a.58.58,0,0,1-.58-.58V10.18a.58.58,0,0,1,.58-.58Zm43.55,5.27V38.12a.49.49,0,0,1-.49.49h-4.54a.5.5,0,0,1-.5-.49h0V20.31h-5.4L113.64,5h6l-4.7,9.94h2.43v-.06ZM120,11.25h13.62V6.4a.81.81,0,0,1,.81-.81h3.92a.81.81,0,0,1,.81.81v4.85h2.2a.41.41,0,0,1,.41.41v1.39a.4.4,0,0,1-.41.4h-2.2V35.92c0,2.29-2.83,2-2.83,2l-6.72.16V35.87A7,7,0,0,0,133,35.5a1.75,1.75,0,0,0,.58-1.88V13.45H120a.4.4,0,0,1-.4-.4V11.66a.4.4,0,0,1,.4-.41Zm1.76,5.88a.24.24,0,0,0-.25.24.52.52,0,0,0,0,.11l3.8,10.41a.58.58,0,0,0,.5.35h4.85A.26.26,0,0,0,131,28a.2.2,0,0,0,0-.11l-3.8-10.41a.54.54,0,0,0-.49-.35ZM146,8.25h11.72V5.13a.4.4,0,0,1,.42-.38h5.63a.4.4,0,0,1,.44.36V8.25h11.44a.4.4,0,0,1,.4.4v4.84a.4.4,0,0,1-.4.4h-5.38a.4.4,0,0,1-.41-.4V10.34H151.78v3.15a.4.4,0,0,1-.4.4H146a.4.4,0,0,1-.4-.4V8.65A.4.4,0,0,1,146,8.25ZM164.25,18v5.07H176a.4.4,0,0,1,.41.4v1.39a.4.4,0,0,1-.41.4h-11.7V35.46h6.11l-1.58-4.71a.23.23,0,0,1,0-.24.26.26,0,0,1,.21-.11h4.86a.56.56,0,0,1,.49.35l2,6a.3.3,0,0,1,0,.26v.18a.41.41,0,0,1-.41.4H146.22a.4.4,0,0,1-.4-.4V35.87a.41.41,0,0,1,.4-.41h11.65V25.28H146.22a.4.4,0,0,1-.4-.4V23.49a.4.4,0,0,1,.4-.4h11.65V18H146.22a.4.4,0,0,1-.4-.4V16.25a.39.39,0,0,1,.38-.42H176a.41.41,0,0,1,.41.41v1.35A.41.41,0,0,1,176,18h-11.7v0ZM89.67,57.11a1.25,1.25,0,0,1,.11.39.28.28,0,0,1,0,.22.52.52,0,0,1-.32.11H87.84a.33.33,0,0,1-.15-.11l-.11-.15L86.3,54.05H80.1l-1.23,3.52a.56.56,0,0,1-.09.17.38.38,0,0,1-.17.12H77.24a.51.51,0,0,1-.3-.1.24.24,0,0,1,0-.23,1.4,1.4,0,0,1,.1-.39l5-13.31a.49.49,0,0,1,.36-.31h1.93a.51.51,0,0,1,.23.12.45.45,0,0,1,.12.21l5,13.31-.07,0ZM83.22,45.36,80.63,52.5h5.28l-2.62-7.14ZM106.81,57a2.28,2.28,0,0,1,0,.37,1.13,1.13,0,0,1,0,.26.48.48,0,0,1-.12.16.28.28,0,0,1-.18,0H99.76a.82.82,0,0,1-.52-.18A.69.69,0,0,1,99,57V43.73a.22.22,0,0,1,0-.16.31.31,0,0,1,.16-.11h1.58a.36.36,0,0,1,.16.11.22.22,0,0,1,0,.16V56.12h5.56a.31.31,0,0,1,.12.39,2.29,2.29,0,0,1,0,.37Zm11,.54a.43.43,0,0,1,0,.16.36.36,0,0,1-.16.11h-1.58a.31.31,0,0,1-.16-.11.22.22,0,0,1,0-.16V43.73a.22.22,0,0,1,0-.16.45.45,0,0,1,.17-.11h1.57a.36.36,0,0,1,.16.11.43.43,0,0,1,0,.16V57.51Zm20.06-9.84a4.91,4.91,0,0,1-.37,1.93,4.11,4.11,0,0,1-1.06,1.48,4.85,4.85,0,0,1-1.76,1,7.71,7.71,0,0,1-2.39.33h-1.76V57.5a.2.2,0,0,1,0,.15.36.36,0,0,1-.16.11h-1.55a.29.29,0,0,1-.16-.11.38.38,0,0,1,0-.15V44.27a.76.76,0,0,1,.25-.63.92.92,0,0,1,.55-.19h4.15a9.15,9.15,0,0,1,1.05.15,4.62,4.62,0,0,1,1.25.48,3.9,3.9,0,0,1,1.08.86,3.62,3.62,0,0,1,.66,1.18A4.34,4.34,0,0,1,138,47.6Zm-2.1.16a2.75,2.75,0,0,0-.35-1.46,2.29,2.29,0,0,0-.84-.88,2.82,2.82,0,0,0-1-.37,6.25,6.25,0,0,0-1.06,0h-1.76v5.75h1.76a4.73,4.73,0,0,0,1.5-.21,3.05,3.05,0,0,0,1-.62,2.74,2.74,0,0,0,.62-.95,3.47,3.47,0,0,0,.21-1.19l0-.07Zm21.48,9.3a1.27,1.27,0,0,1,.11.38.3.3,0,0,1,0,.23.59.59,0,0,1-.32.11h-1.46a.42.42,0,0,1-.16-.11l-.1-.16-1.28-3.51h-6.25l-1.23,3.51a.51.51,0,0,1-.09.18.44.44,0,0,1-.18.12H145a.57.57,0,0,1-.3-.1.3.3,0,0,1,0-.23,1.74,1.74,0,0,1,.11-.39l5-13.31a.62.62,0,0,1,.12-.19.57.57,0,0,1,.23-.12h1.74a.55.55,0,0,1,.24.12.72.72,0,0,1,.12.21l5,13.31,0,0Zm-6.45-11.75-2.59,7.14h5.28l-2.62-7.14Zm18.86,6.86v5.27a.43.43,0,0,1,0,.16.36.36,0,0,1-.16.11H168a.31.31,0,0,1-.16-.11.22.22,0,0,1,0-.16V52.24l-4.24-8.09a1.52,1.52,0,0,1-.16-.4.2.2,0,0,1,0-.21.52.52,0,0,1,.32-.11h1.51a.37.37,0,0,1,.19.11,1.09,1.09,0,0,1,.13.17l2.07,4.12c.19.38.39.8.58,1.23l.6,1.3c.18-.42.35-.85.55-1.27l.58-1.23L172,43.71a.45.45,0,0,1,.11-.19.37.37,0,0,1,.17-.13h1.46a.68.68,0,0,1,.34.11.26.26,0,0,1,0,.21,1.68,1.68,0,0,1-.16.39l-4.24,8.14Z"/><path class="cls-2" d="M12.31,0H50.88A12.41,12.41,0,0,1,63.19,12.31V43.24Q52.57,39.55,41.89,36a58.86,58.86,0,0,0,5.49-12.92H35.22v-4.4h15v-2h-15V9.41H28.47v7.28h-15v2h15v4.42h-13v2.35H39.73a17.92,17.92,0,0,1-3.52,8.92C23.89,31,14.5,29,8.29,34s-3,21.24,14.78,17.65A26.38,26.38,0,0,0,38.48,41.14L63.23,51.87A12.41,12.41,0,0,1,50.92,63.3H12.31A12.43,12.43,0,0,1,0,51V12.31A12.42,12.42,0,0,1,12.31,0ZM33.08,38.68C21.46,32.42,14.81,33,11.33,35.17c-3.84,2.25-5.54,7.49-1.48,10.9A10,10,0,0,0,14,47.83c11.17,2.44,19-9.15,19-9.15Z"/></g></g></svg>