<svg xmlns="http://www.w3.org/2000/svg" width="40" height="40" viewBox="0 0 40 40">
  <defs>
    <style>
      .cls-1 {
        fill: #00afff;
        fill-rule: evenodd;
      }
    </style>
  </defs>
  <path id="icon-dashi" class="cls-1" d="M108,926H92a12,12,0,0,1-12-12V898a12,12,0,0,1,12-12h16a12,12,0,0,1,12,12v16A12,12,0,0,1,108,926ZM91.189,900.889H89.581a1.605,1.605,0,0,0-1.136.441,1.422,1.422,0,0,0-.472,1.079v3.85a1.419,1.419,0,0,0,.472,1.078,1.6,1.6,0,0,0,1.136.442h1.608v-6.89Zm1.685,10.224a8.064,8.064,0,0,0,.306,1.165,7.664,7.664,0,0,0,.817,1.63q0.485,0.81.906,1.4a6.971,6.971,0,0,0,.817.968,2.734,2.734,0,0,0,.829.564,2.388,2.388,0,0,0,.944.184h1.454a0.64,0.64,0,0,0,.728-0.343,1.375,1.375,0,0,0-.141-0.871,7.219,7.219,0,0,0-.676-1.176q-0.446-.651-0.88-1.239-0.357-.49-0.612-0.907t-0.408-.735q-0.179-.343-0.306-0.638c-0.17-.065-0.357-0.131-0.561-0.2-0.187-.065-0.4-0.127-0.625-0.184s-0.489-.118-0.778-0.184q-0.434-.073-0.766-0.147l-0.561-.123a3.808,3.808,0,0,0-.485-0.1A2.139,2.139,0,0,0,92.874,911.113Zm18.961-8.937a22.687,22.687,0,0,0-.459-2.746,12.752,12.752,0,0,0-.791-2.378,4.3,4.3,0,0,0-1.174-1.618,2.076,2.076,0,0,0-1.582-.454,3.752,3.752,0,0,0-1.991,1.1,9.874,9.874,0,0,1-2.45,1.607,19.23,19.23,0,0,1-2.769,1.029,26.245,26.245,0,0,1-2.782.638q-1.365.232-2.45,0.429a14.72,14.72,0,0,0-1.786.417,1.1,1.1,0,0,0-.8.563v7.675a1.389,1.389,0,0,0,.957.416q0.855,0.173,2.131.356t2.807,0.417q1.531,0.232,3.024.613a17.949,17.949,0,0,1,2.756.931,5.653,5.653,0,0,1,2,1.386,2.766,2.766,0,0,0,1.467.956,1.73,1.73,0,0,0,1.315-.294,3.83,3.83,0,0,0,1.11-1.275,10.291,10.291,0,0,0,.867-2,15,15,0,0,0,.562-2.44,17.9,17.9,0,0,0,.191-2.6A25.817,25.817,0,0,0,111.835,902.176Z" transform="translate(-80 -886)"/>
</svg>
