<svg xmlns="http://www.w3.org/2000/svg" width="12" height="12" viewBox="0 0 12 12">
  <defs>
    <style>
      .cls-1 {
        fill: #fff;
        fill-rule: evenodd;
      }
    </style>
  </defs>
  <path id="icon-xingcheng" class="cls-1" d="M1667.92,128.926a6.065,6.065,0,0,1-6.91-5.078c0-.033-0.01-0.067-0.01-0.1a0.767,0.767,0,0,1,.77-0.752,0.743,0.743,0,0,1,.74.639,4.547,4.547,0,0,0,8.99,0,0.753,0.753,0,0,1,.75-0.639,0.981,0.981,0,0,1,.1.006,0.759,0.759,0,0,1,.65.847A6.066,6.066,0,0,1,1667.92,128.926Zm2.12-6.815q-0.24.463-.51,0.916v0.006c-0.11.184-.21,0.366-0.33,0.546v0.014c-0.17.268-.34,0.531-0.52,0.79l-0.02.031c-0.17.245-.34,0.482-0.53,0.711-0.07.089-.14,0.176-0.22,0.261v0.005a4.139,4.139,0,0,1-.49.467,0.678,0.678,0,0,1-.82,0,3.018,3.018,0,0,1-.49-0.467c-0.06-.064-0.12-0.128-0.17-0.193l-0.06-.075c-0.19-.228-0.36-0.464-0.53-0.707l-0.02-.035q-0.27-.388-0.51-0.788l-0.01-.014c-0.12-.191-0.23-0.377-0.33-0.546v-0.006h0c-0.31-.529-0.51-0.916-0.51-0.916a3.7,3.7,0,0,1-.34-1.572,3.632,3.632,0,0,1,.27-1.38,3.422,3.422,0,0,1,.72-1.127,3.316,3.316,0,0,1,1.71-.968,3.247,3.247,0,0,1,1.36,0,3.327,3.327,0,0,1,1.7.968,3.619,3.619,0,0,1,.73,1.127,3.824,3.824,0,0,1,.26,1.38,3.743,3.743,0,0,1-.19,1.2A2.618,2.618,0,0,1,1670.04,122.111Zm-3.03-3.618a1.969,1.969,0,0,0-1.88,2.047,2.137,2.137,0,0,0,.21.93,0.452,0.452,0,0,1,.04.105c0.13,0.234.26,0.467,0.4,0.7l0.02,0.045c0.09,0.15.19,0.311,0.29,0.476,0.16,0.261.31,0.5,0.48,0.741l0.02,0.034q0.2,0.289.42,0.563c0.14-.184.28-0.373,0.41-0.565l0.03-.033c0.16-.236.32-0.479,0.47-0.726,0.1-.173.2-0.333,0.29-0.493l0.01-.007,0.02-.036c0.16-.273.31-0.549,0.46-0.828a2.166,2.166,0,0,0,.18-0.905A1.96,1.96,0,0,0,1667.01,118.493Z" transform="translate(-1661 -117)"/>
</svg>
