<svg xmlns="http://www.w3.org/2000/svg" width="16" height="16" viewBox="0 0 16 16">
  <defs>
    <style>
      .cls-1 {
        fill: #00afff;
        fill-rule: evenodd;
      }
    </style>
  </defs>
  <path id="icon-ques" class="cls-1" d="M10968,634a8.331,8.331,0,0,1-2.3,5.655,8.107,8.107,0,0,1-11.4,0A7.953,7.953,0,0,1,10952,634a8.327,8.327,0,0,1,2.3-5.655,8.107,8.107,0,0,1,11.4,0A7.952,7.952,0,0,1,10968,634Zm-8,6.664a6.747,6.747,0,1,0-4.7-1.952A6.459,6.459,0,0,0,10960,640.664Zm0.1-11.27a2.977,2.977,0,0,1,2.1.689,2.479,2.479,0,0,1,.8,1.885,2.833,2.833,0,0,1-.5,1.616c-0.2.138-.5,0.49-1.1,0.978a1.443,1.443,0,0,0-.4.551,1.714,1.714,0,0,0-.2.711v0.348h-1.8v-0.348a2.473,2.473,0,0,1,.3-1.269,7.966,7.966,0,0,1,1.5-1.583l0.1-.168a1.069,1.069,0,0,0,.3-0.75,1.108,1.108,0,0,0-.3-0.823,1.254,1.254,0,0,0-.9-0.289,1.2,1.2,0,0,0-1,.427,2.819,2.819,0,0,0-.2,1.086v0.177h-1.8v-0.177a2.869,2.869,0,0,1,.9-2.244A2.933,2.933,0,0,1,10960.1,629.394Zm-0.2,7.019a1.116,1.116,0,0,1,.8.308,1.094,1.094,0,0,1,.3.782,1.116,1.116,0,0,1-.3.8,1.189,1.189,0,0,1-1.6-.013,1.113,1.113,0,0,1-.3-0.786,1.078,1.078,0,0,1,.3-0.787A1.129,1.129,0,0,1,10959.9,636.413Z" transform="translate(-10952 -626)"/>
</svg>
