<svg xmlns="http://www.w3.org/2000/svg" width="18" height="18" viewBox="0 0 18 18">
  <defs>
    <style>
      .cls-1 {
        fill: #00afff;
        fill-rule: evenodd;
      }
    </style>
  </defs>
  <path id="icon-tuichu" class="cls-1" d="M6463.71,397.736l-5.63,5.86a1,1,0,0,1-1.7-.721v-1.382a1,1,0,0,0-1-1.022h-4.6a1,1,0,0,1-1-1.022v-4.9a1,1,0,0,1,1-1.022h4.6a1,1,0,0,0,1-1.021v-1.383a0.986,0.986,0,0,1,1.7-.721l5.63,5.89A1.054,1.054,0,0,1,6463.71,397.736Zm-9.76-7.512h-5.81v13.552h5.81a1.112,1.112,0,0,1,0,2.224h-6.87a1.116,1.116,0,0,1-1.08-1.112V389.112a1.1,1.1,0,0,1,1.08-1.112h6.87a1.116,1.116,0,0,1,1.08,1.112A1.1,1.1,0,0,1,6453.95,390.224Z" transform="translate(-6446 -388)"/>
</svg>
