<svg xmlns="http://www.w3.org/2000/svg" width="26.06" height="24.031" viewBox="0 0 26.06 24.031">
  <defs>
    <style>
      .cls-1 {
        fill: #00afff;
        fill-rule: evenodd;
      }
    </style>
  </defs>
  <path id="icon-mengxiang" class="cls-1" d="M2412.93,643.243c-1.77-.324-10.9-3.269-10.9-3.269a16.834,16.834,0,0,0,.47,4.472c0.49,1.167.9,2.612,5.59,3.7a4.94,4.94,0,0,0-1.26.346c-2.76.618-4.49,0.59-4.65,1.063-0.07.236,0.68,3.761,3.02,4.579,0.7,0.245,3.57-1.349,3.57-1.137a2.921,2.921,0,0,1-.6.828,33.161,33.161,0,0,1-2.7,1.933s-0.79,1.036,2.72,3.333c0.5,0.37,2.94-1.018,2.94-1.018s0.46,4.939.87,5.694,2.32-.737,2.32-0.737V645.979S2414.7,643.564,2412.93,643.243Zm10.29,5.264a4.646,4.646,0,0,0-1.25-.346c4.68-1.091,5.09-2.536,5.58-3.7a16.993,16.993,0,0,0,.48-4.472s-9.13,2.945-10.91,3.269-1.38,2.74-1.38,2.74v17.054s1.9,1.49,2.31.736,0.88-5.694.88-5.694,2.44,1.388,2.94,1.018c3.51-2.3,2.72-3.333,2.72-3.333a32.9,32.9,0,0,1-2.7-1.933,2.892,2.892,0,0,1-.6-0.827c-0.01-.213,2.87,1.381,3.57,1.136,2.34-.818,3.09-4.342,3.01-4.579C2427.71,649.1,2425.98,649.125,2423.22,648.507Z" transform="translate(-2402.03 -639.969)"/>
</svg>
