<svg xmlns="http://www.w3.org/2000/svg" width="30" height="30" viewBox="0 0 30 30">
  <defs>
    <style>
      .cls-1 {
        fill: #00afff;
        fill-rule: evenodd;
      }
    </style>
  </defs>
  <path id="icon-jlfd" class="cls-1" d="M482,1656H468a8,8,0,0,1-8-8v-14a8,8,0,0,1,8-8h14a8,8,0,0,1,8,8v14A8,8,0,0,1,482,1656Zm-3.112-21.6a3.02,3.02,0,0,0-.873-1.95,2.653,2.653,0,0,0-1.373-.6,1.452,1.452,0,0,0-.466-0.45,3.431,3.431,0,0,0-1.724-.41,5.218,5.218,0,0,0-3.011.82,3.188,3.188,0,0,0-1,1.2,4.833,4.833,0,0,0-.428,1.88,10.877,10.877,0,0,0,.4,3.07,1.042,1.042,0,0,0-.391.87,2.856,2.856,0,0,0,.217.96,0.923,0.923,0,0,0,.655.59,6.1,6.1,0,0,0,.548,1.63,1.7,1.7,0,0,0,1.09.99v1c-0.215.61-4.386,1.86-5.521,2.56a4.563,4.563,0,0,0-1.308,1.16,8.92,8.92,0,0,0-.711,3.24V1651h12.067a6.688,6.688,0,0,1-2.213-5.02,6.567,6.567,0,0,1,3.635-5.97,2.486,2.486,0,0,0,.335-1.12,1.058,1.058,0,0,0-.386-0.93A9.145,9.145,0,0,0,478.888,1634.4Zm6.118,10.65a0.573,0.573,0,0,0-.422-0.4l-2.189-.35a0.529,0.529,0,0,1-.391-0.32l-0.978-2.2a0.5,0.5,0,0,0-.934,0l-0.977,2.2a0.531,0.531,0,0,1-.391.32l-2.19.35a0.572,0.572,0,0,0-.421.4,0.6,0.6,0,0,0,.133.58l1.587,1.71a0.632,0.632,0,0,1,.149.51l-0.376,2.42a0.583,0.583,0,0,0,.2.56,0.5,0.5,0,0,0,.557.05l1.958-1.14a0.464,0.464,0,0,1,.482,0l1.958,1.14a0.5,0.5,0,0,0,.557-0.05,0.572,0.572,0,0,0,.2-0.55l-0.374-2.42a0.616,0.616,0,0,1,.15-0.51l1.586-1.71A0.623,0.623,0,0,0,485.006,1645.05Z" transform="translate(-460 -1626)"/>
</svg>
