<svg xmlns="http://www.w3.org/2000/svg" width="30" height="30" viewBox="0 0 30 30">
  <defs>
    <style>
      .cls-1 {
        fill: #00afff;
        fill-rule: evenodd;
      }
    </style>
  </defs>
  <path id="icon-xxap" class="cls-1" d="M639,1060H625a8,8,0,0,1-8-8v-14a8,8,0,0,1,8-8h14a8,8,0,0,1,8,8v14A8,8,0,0,1,639,1060Zm-13.342-7.82a8.574,8.574,0,0,0,6.421,2.83,8.145,8.145,0,0,0,6.085-2.83v-7.06c-1.711.89-3.275,1.84-4.429,2.41a3.794,3.794,0,0,1-3.5-.02c-1.787-.73-3.256-1.3-4.578-1.94v6.61Zm16.266-12.65c-2.27-1.14-6.588-3.19-8.58-4.19-1.116-.67-1.768-0.35-2.977.25-2.048.93-5.695,2.66-8.04,3.74-1.8.82-1.693,1.43-.037,2.39,2.494,1.44,7.276,3.65,8.319,4.13a2.843,2.843,0,0,0,2.885-.09c1.06-.57,2.363-1.33,7.146-3.7v3.56l-0.893,1.21,1.489,1.71,1.618-1.71-0.837-1.19v-4.29C642.576,1040.92,643.9,1040.58,641.924,1039.53Z" transform="translate(-617 -1030)"/>
</svg>
