<svg xmlns="http://www.w3.org/2000/svg" width="20" height="20" viewBox="0 0 20 20">
  <defs>
    <style>
      .cls-1 {
        fill: #fea900;
        fill-rule: evenodd;
      }
    </style>
  </defs>
  <path id="icon-zhongyao" class="cls-1" d="M240,634a10,10,0,1,0,10.011,10A10,10,0,0,0,240,634Zm0,17.849a1.839,1.839,0,1,1,1.842-1.839A1.841,1.841,0,0,1,240,651.847Zm2.223-13.12v0.013s0,0.013,0,.018l-0.8,7.32c0,0.018,0,.037-0.006.055l0,0.041h0a1.428,1.428,0,0,1-2.822,0h0l0-.039a0.511,0.511,0,0,1,0-.055l-0.794-7.308c0-.012,0-0.025,0-0.037v-0.017q-0.009-.1-0.009-0.2a2.232,2.232,0,0,1,4.463,0C242.228,638.589,242.225,638.66,242.219,638.727Z" transform="translate(-230 -634)"/>
</svg>
