<svg xmlns="http://www.w3.org/2000/svg" width="40" height="40" viewBox="0 0 40 40">
  <defs>
    <style>
      .cls-1 {
        fill: #00afff;
        fill-rule: evenodd;
      }
    </style>
  </defs>
  <path id="icon-jiaolian" class="cls-1" d="M748,200H732a12,12,0,0,1-12-12V172a12,12,0,0,1,12-12h16a12,12,0,0,1,12,12v16A12,12,0,0,1,748,200Zm-3.349-27.921a3.621,3.621,0,0,0-1.044-2.336,3.076,3.076,0,0,0-1.643-.718,1.777,1.777,0,0,0-.557-0.548,4.093,4.093,0,0,0-2.063-.486,6.22,6.22,0,0,0-3.6.981,3.766,3.766,0,0,0-1.2,1.444,5.747,5.747,0,0,0-.512,2.247,13.008,13.008,0,0,0,.473,3.688,1.252,1.252,0,0,0-.468,1.046,3.513,3.513,0,0,0,.26,1.156,1.107,1.107,0,0,0,.784.7,7.263,7.263,0,0,0,.655,1.96,2.027,2.027,0,0,0,1.3,1.183v1.2c-0.257.731-5.247,2.235-6.605,3.075a5.726,5.726,0,0,0-1.564,1.388c-0.523.712-.789,2.965-0.851,3.891V192h14.435a8.053,8.053,0,0,1-2.647-6.03,7.894,7.894,0,0,1,4.349-7.165,3,3,0,0,0,.4-1.344,1.265,1.265,0,0,0-.462-1.111A11.01,11.01,0,0,0,744.651,172.079Zm7.318,12.784a0.673,0.673,0,0,0-.5-0.48l-2.619-.426a0.628,0.628,0,0,1-.467-0.378l-1.17-2.643a0.614,0.614,0,0,0-.56-0.381,0.607,0.607,0,0,0-.557.384l-1.17,2.64a0.632,0.632,0,0,1-.467.378l-2.62.426a0.679,0.679,0,0,0-.5.48,0.731,0.731,0,0,0,.16.7l1.9,2.053a0.74,0.74,0,0,1,.179.61l-0.451,2.9a0.69,0.69,0,0,0,.235.667,0.6,0.6,0,0,0,.666.063l2.343-1.371a0.557,0.557,0,0,1,.576,0l2.343,1.374a0.6,0.6,0,0,0,.666-0.063,0.7,0.7,0,0,0,.235-0.667l-0.448-2.9a0.749,0.749,0,0,1,.179-0.61l1.9-2.056A0.732,0.732,0,0,0,751.969,184.863Z" transform="translate(-720 -160)"/>
</svg>
