<svg xmlns="http://www.w3.org/2000/svg" width="20" height="20" viewBox="0 0 20 20">
  <defs>
    <style>
      .cls-1 {
        fill-rule: evenodd;
      }
    </style>
  </defs>
  <path id="icon-_P" data-name="icon- P" class="cls-1" d="M321,282a10,10,0,1,1,10-10A10,10,0,0,1,321,282Zm3.794-13.069a2.318,2.318,0,0,0-.681-1.1,2.948,2.948,0,0,0-1.269-.619,8.337,8.337,0,0,0-1.964-.195h-3.87v10h2.852V274.29h1.018a8.267,8.267,0,0,0,1.9-.187,2.951,2.951,0,0,0,1.276-.62,2.446,2.446,0,0,0,.716-1.145,5.97,5.97,0,0,0,.223-1.764A5.836,5.836,0,0,0,324.794,268.931Zm-4.33,3.083h-0.6v-2.8h0.6a2.039,2.039,0,0,1,1.248.3,1.389,1.389,0,0,1,.372,1.131,1.314,1.314,0,0,1-.365,1.08A2.074,2.074,0,0,1,320.464,272.014Z" transform="translate(-311 -262)"/>
</svg>
