<svg xmlns="http://www.w3.org/2000/svg" width="18" height="18" viewBox="0 0 18 18">
  <defs>
    <style>
      .cls-1 {
        fill-rule: evenodd;
      }
    </style>
  </defs>
  <path id="icon-xuexi" class="cls-1" d="M316.448,156h-0.9a0.674,0.674,0,0,1-.673-0.638,6.633,6.633,0,0,0-3.266-1,4.5,4.5,0,0,0-2.877,1.066,1.172,1.172,0,0,1-1.443-.039,0.77,0.77,0,0,1,.044-1.226,5.722,5.722,0,0,1,4.276-1.534,8.166,8.166,0,0,1,3.345.759,2.571,2.571,0,0,0,2.087,0,8.166,8.166,0,0,1,3.345-.759,5.723,5.723,0,0,1,4.276,1.534,0.769,0.769,0,0,1,.044,1.226,1.17,1.17,0,0,1-1.442.039,4.5,4.5,0,0,0-2.878-1.067,6.626,6.626,0,0,0-3.265,1A0.675,0.675,0,0,1,316.448,156Zm3.939-4.5a10.668,10.668,0,0,0-3.154.687,3.851,3.851,0,0,1-2.469,0,10.662,10.662,0,0,0-3.154-.687,7.693,7.693,0,0,0-3.473.816c0-.042-0.007-0.085-0.007-0.128,0-2.4,3.507-4.345,7.834-4.345s7.9,1.946,7.9,4.346c0,0.044,0,.086-0.006.127A7.7,7.7,0,0,0,320.387,151.5ZM316,146.859a4.43,4.43,0,1,1,4.406-4.012A4.426,4.426,0,0,1,316,146.859Z" transform="translate(-307 -138)"/>
</svg>
