<svg xmlns="http://www.w3.org/2000/svg" width="40" height="40" viewBox="0 0 40 40">
  <defs>
    <style>
      .cls-1 {
        fill: #00afff;
        fill-rule: evenodd;
      }
    </style>
  </defs>
  <path id="icon-jingdian" class="cls-1" d="M908,700H892a12,12,0,0,1-12-12V672a12,12,0,0,1,12-12h16a12,12,0,0,1,12,12v16A12,12,0,0,1,908,700Zm6.651-23.2a1.01,1.01,0,0,0-.024-0.106,15.044,15.044,0,0,0-12.053-11.471,0.72,0.72,0,0,0-.116-0.019,14.988,14.988,0,0,0-17.085,11.487c-0.009.037-.018,0.075-0.026,0.112A14.977,14.977,0,0,0,885,680c0,0.212,0,.424.013,0.634a1.093,1.093,0,1,0,2.184-.09c-0.009-.18-0.01-0.362-0.01-0.544a13.16,13.16,0,0,1,.143-1.926h4.086c-0.006.207-.013,0.407-0.013,0.616a1.093,1.093,0,1,0,2.186,0c0-.207.008-0.409,0.016-0.616h5.306v1.735a1.092,1.092,0,1,0,2.184,0v-1.735h5.3c0.008,0.205.015,0.407,0.015,0.616a20.032,20.032,0,0,1-.7,5.371,1.093,1.093,0,0,0,.762,1.347,1.047,1.047,0,0,0,.292.039,1.1,1.1,0,0,0,1.054-.8,22.362,22.362,0,0,0,.781-5.959c0-.206-0.009-0.408-0.014-0.614h4.085a13.047,13.047,0,0,1,.143,1.927,12.805,12.805,0,0,1-1.067,5.113c-0.317.447-2.286,2.957-6.834,3.328-0.6.047-1.15,0.073-1.665,0.073a12.152,12.152,0,0,1-6.467-1.727l2.447-2.609a1.092,1.092,0,0,0-.795-1.842h-9.891a1.094,1.094,0,0,0-1.093,1.093v9.88a1.093,1.093,0,0,0,1.865.774l2.462-2.464A12.92,12.92,0,0,0,900,695h0a14.976,14.976,0,0,0,13.627-8.734c0.008-.017.015-0.035,0.023-0.051,0.024-.056.052-0.108,0.075-0.166a0.372,0.372,0,0,0,.022-0.064A14.923,14.923,0,0,0,914.651,676.8Zm-7.539-6.092c0.15-.111.305-0.214,0.45-0.331a1.068,1.068,0,0,0,.332-0.461,12.873,12.873,0,0,1,4.239,5.972h-3.711A19.973,19.973,0,0,0,907.112,670.708Zm-6.019,2.266a12.145,12.145,0,0,0,4.121-1.136,18.162,18.162,0,0,1,1.011,4.05h-5.132v-2.914Zm0-5.737c0.289,0.024.579,0.054,0.864,0.1a7.3,7.3,0,0,1,2.318,2.537,9.766,9.766,0,0,1-3.182.9v-3.538Zm-6.318,4.588a12.105,12.105,0,0,0,4.132,1.147v2.916H893.77A17.836,17.836,0,0,1,894.775,671.825Zm3.251-4.485c0.289-.045.585-0.079,0.881-0.1v3.538a9.725,9.725,0,0,1-3.191-.913A7.362,7.362,0,0,1,898.026,667.34Zm-10.159,8.548a12.864,12.864,0,0,1,4.235-5.968,1.1,1.1,0,0,0,.319.435c0.144,0.118.3,0.221,0.451,0.33a20.024,20.024,0,0,0-1.3,5.2h-3.7Zm19.175,14.837A13.3,13.3,0,0,1,900,692.816v1.093l0-1.093c-4.239,0-7.393-3.426-7.423-3.458a1.091,1.091,0,0,0-.784-0.362h-0.028a1.1,1.1,0,0,0-.773.321l-1.355,1.355v-6.146h6.27l-1.607,1.712a1.091,1.091,0,0,0,.158,1.631,14.451,14.451,0,0,0,8.791,2.834c0.576,0,1.178-.027,1.842-0.081a14.032,14.032,0,0,0,2.769-.5c-0.232.182-.471,0.357-0.718,0.522C907.107,690.667,907.076,690.7,907.042,690.725Z" transform="translate(-880 -660)"/>
</svg>
