<svg xmlns="http://www.w3.org/2000/svg" width="20" height="20" viewBox="0 0 20 20">
  <defs>
    <style>
      .cls-1 {
        fill: #000;
        fill-rule: evenodd;
      }
    </style>
  </defs>
  <path id="icon-rong" class="cls-1" d="M10920,105a10,10,0,1,1,10-10,10.015,10.015,0,0,1-10,10m4.1-14.08a0.9,0.9,0,0,0-1.3,0l-2.8,2.772-2.7-2.661a0.919,0.919,0,0,0-1.3,0,1.049,1.049,0,0,0,0,1.3h0l2.7,2.662-2.8,2.773a0.985,0.985,0,0,0,.1,1.335,0.964,0.964,0,0,0,1.3,0l2.7-2.772,2.7,2.676a0.92,0.92,0,0,0,1.3,0,0.851,0.851,0,0,0,0-1.3h0l-2.7-2.676,2.8-2.773a0.893,0.893,0,0,0,0-1.336" transform="translate(-10910 -85)"/>
</svg>
