<svg xmlns="http://www.w3.org/2000/svg" viewBox="0 0 502.27 135.95"><defs><style>.cls-1{fill:#00afff;}</style></defs><title>资源 1</title><g id="图层_2" data-name="图层 2"><g id="图层_1-2" data-name="图层 1"><polygon class="cls-1" points="19.18 0 136.55 0 97.71 66.71 138 135.95 98.67 135.95 78.59 100.97 39.69 100.97 78.59 34.26 0 34.26 19.18 0"/><polygon points="0.72 67.31 0.72 100.73 20.63 67.31 0.72 67.31"/><path d="M180.77,30.62a6.4,6.4,0,0,1,1.11-1.39c.74-.82,1.61-1.86,2.63-3.12s2.05-2.68,3.11-4.27a25.24,25.24,0,0,0,2.59-4.92.57.57,0,0,1,.57-.41c.39,0,.69.28.91.86s.38,1,.49,1.27a20.24,20.24,0,0,1,.62,2.05c.13.6.39.9.77.9H210a.57.57,0,0,0,.65-.65V6.33c0-.49.25-.71.74-.66L223.12,7.4c.49.11.66.38.49.82a2.47,2.47,0,0,1-.74,1.31,6,6,0,0,1-.94.66l-.82.41a.57.57,0,0,0-.37.57c0,.39,0,.89,0,1.52s.2.94.69.94h26.43c.49,0,.71.25.66.74s-.3.74-.74.74H221.39a.58.58,0,0,0-.65.66v5.17a.57.57,0,0,0,.65.65h22.16a.64.64,0,0,0,.66-.4l1.4-4.19c.21-.55.57-.66,1.06-.33l9.19,7.39a.57.57,0,0,1,.25.53.55.55,0,0,1-.41.53l-13.95,7A.67.67,0,0,1,241,32a.59.59,0,0,1-.17-.7l2.47-7.47c.05-.54-.17-.82-.66-.82H194.07a.52.52,0,0,0-.58.41,5.24,5.24,0,0,0,0,1.19c0,.52.05,1.15.08,1.89a9.37,9.37,0,0,1-.29,2.5,13,13,0,0,1-1.55,4.1,6.43,6.43,0,0,1-3,2.79,10.86,10.86,0,0,1-3.45.82,4.55,4.55,0,0,1-2.66-.57,3.69,3.69,0,0,1-1.6-2A7.11,7.11,0,0,1,180.77,30.62ZM255.7,49.74a.59.59,0,0,1,.57.37.66.66,0,0,1-.08.7,34.59,34.59,0,0,0-3.08,4.31c-.9,1.51-1.73,3.05-2.5,4.64a.74.74,0,0,1-.82.32A43.91,43.91,0,0,1,243.47,58a.69.69,0,0,0-.7,0,.63.63,0,0,0-.28.53V82.08c0,.44-.2.65-.58.65a24,24,0,0,1-4.22,0,10.65,10.65,0,0,1-4.07-1.1.68.68,0,0,1-.41-.7c0-.36,0-.73,0-1.11a3.81,3.81,0,0,0,0-1c-.05-.3-.27-.45-.65-.45H203.18c-.33,0-.53.14-.58.41a5.14,5.14,0,0,0-.08.91c0,.33,0,.64,0,.94a.71.71,0,0,1-.37.62,16,16,0,0,1-4,1.19,29.27,29.27,0,0,1-4.19.28.58.58,0,0,1-.66-.65V58.28a.72.72,0,0,0-.28-.62.58.58,0,0,0-.62,0,40.87,40.87,0,0,1-4.27,1.6l-4.34,1.36a.57.57,0,0,1-.78-.33.64.64,0,0,1,.2-.82q3.28-2.13,7.59-5.21t8.46-6.65a93.79,93.79,0,0,0,7.63-7.35,31.22,31.22,0,0,0,5.21-7.3.76.76,0,0,1,.82-.33l10.09,4c.33.11.48.29.46.54a1.2,1.2,0,0,1-.46.73,3.52,3.52,0,0,1-1.15.66,4.28,4.28,0,0,1-1.64.29l-.08.08a18.52,18.52,0,0,0,2.09,1.31c.8.44,1.66.88,2.59,1.32a86.39,86.39,0,0,0,15,5.7A65.62,65.62,0,0,0,255.7,49.74ZM196,32.67c.17-.43.47-.52.91-.24l8.37,4.26a.89.89,0,0,1,.33.5.41.41,0,0,1-.17.49,1.73,1.73,0,0,1-1.48.86,1.45,1.45,0,0,0-1.14.29,56,56,0,0,1-8.21,5.7,72.2,72.2,0,0,1-9,4.31.62.62,0,0,1-.74-.2.56.56,0,0,1,0-.79q3.12-3.52,6-7.22A63.87,63.87,0,0,0,196,32.67Zm.25-2.29c-.44,0-.66-.24-.66-.7s.22-.7.66-.7h41.61c.43,0,.64.23.61.7s-.26.7-.69.7Zm7,23a.58.58,0,0,0-.66.66v5.67a.58.58,0,0,0,.66.65h29.38a.58.58,0,0,0,.65-.65V54a.58.58,0,0,0-.65-.66Zm0,8.13a.58.58,0,0,0-.66.65V67.8a.58.58,0,0,0,.66.65h29.38a.57.57,0,0,0,.65-.65V62.13a.58.58,0,0,0-.65-.65Zm0,8.29a.58.58,0,0,0-.66.65v5.83a.58.58,0,0,0,.66.66h29.38a.58.58,0,0,0,.65-.66V70.42a.58.58,0,0,0-.65-.65Zm16.49-29.38a.56.56,0,0,0-1,0,72.56,72.56,0,0,1-13.22,10.42.56.56,0,0,0-.24.74.64.64,0,0,0,.66.49H230.5a.68.68,0,0,0,.41-1.23,59.7,59.7,0,0,1-6-4.88A60.41,60.41,0,0,1,219.67,40.39Zm26.51,6.07a.9.9,0,0,1-.66-.08q-3.77-3-8.37-6.16a71.11,71.11,0,0,0-9-5.25c-.27-.11-.37-.34-.28-.7a.59.59,0,0,1,.61-.53q3,0,6.08.12a50.52,50.52,0,0,1,5.74.54,15.57,15.57,0,0,1,6.93,2.29A6.6,6.6,0,0,1,250,40.18a4.29,4.29,0,0,1-.61,3.57A7.53,7.53,0,0,1,246.18,46.46Z"/><path d="M263.25,70a.74.74,0,0,1,.16-.82,47.19,47.19,0,0,0,11.33-16.25.61.61,0,0,1,.61-.41.63.63,0,0,1,.62.5c.38,1.47.75,3.23,1.11,5.25a28.84,28.84,0,0,1,.41,6.07A17,17,0,0,1,276.34,70a7,7,0,0,1-3.49,3.82c-2.3,1.09-4.22,1.24-5.78.45A8.78,8.78,0,0,1,263.25,70Zm64.67-62.7a.56.56,0,0,1,.61.05.62.62,0,0,1,.29.53V47.12a.58.58,0,0,1-.66.65,13.61,13.61,0,0,1-4.43-.41,14.66,14.66,0,0,1-4.18-1.72.67.67,0,0,1-.33-.66c0-.32,0-.65,0-1a2.39,2.39,0,0,0-.08-.9.57.57,0,0,0-.62-.42h-35c-.38,0-.6.16-.66.46a4.18,4.18,0,0,0,0,1c0,.39,0,.77,0,1.15a.69.69,0,0,1-.41.74,21.07,21.07,0,0,1-4.1,1.44A18.88,18.88,0,0,1,274,48a.58.58,0,0,1-.66-.66v-40c0-.43.25-.65.74-.65a23.48,23.48,0,0,1,4.52,1.23,30.66,30.66,0,0,1,4.26,2.05V10h36.52a9.86,9.86,0,0,0,1.4-.37c.82-.24,1.72-.51,2.71-.82s1.9-.6,2.75-.9S327.64,7.43,327.92,7.31Zm-45.3,45.55c0-.49.24-.71.74-.65l10.66,2c.6.11.77.38.5.82a2.12,2.12,0,0,1-.7,1.06c-.3.22-.59.41-.86.58s-.52.3-.74.41a.52.52,0,0,0-.33.49v9q0,3.53,3.2,3.36h13.62a4.72,4.72,0,0,0,3.08-1.11,10.36,10.36,0,0,0,2.34-2.75,21.47,21.47,0,0,0,1.68-3.44c.47-1.2.84-2.27,1.11-3.2a.58.58,0,0,1,.7-.49.54.54,0,0,1,.53.57,25.25,25.25,0,0,0,1.19,6.56,14,14,0,0,0,1.73,3.45,6.08,6.08,0,0,0,1.51,1.56c.44.28.63.58.58.9a10.8,10.8,0,0,1-1.36,4,6.13,6.13,0,0,1-2.38,2.21,9.24,9.24,0,0,1-3.28.94,36,36,0,0,1-4.06.21H293c-3.72,0-6.38-.78-8-2.34s-2.38-4.23-2.38-8Zm.9-41.28a.58.58,0,0,0-.66.66V24.71a.58.58,0,0,0,.66.66h12.06a.58.58,0,0,0,.66-.66V12.24a.58.58,0,0,0-.66-.66Zm0,15.43a.58.58,0,0,0-.66.66V40.39a.58.58,0,0,0,.66.65h12.06a.58.58,0,0,0,.66-.65V27.67a.58.58,0,0,0-.66-.66ZM302.23,64.6a.6.6,0,0,1-.82-.49,71.31,71.31,0,0,0-3-8.87q-1.89-4.68-3.86-8.61a.72.72,0,0,1,.08-.74.51.51,0,0,1,.66-.17A36.74,36.74,0,0,1,299.73,47a29.2,29.2,0,0,1,4.8,2.26,14.88,14.88,0,0,1,3.86,3.2,6.3,6.3,0,0,1,1.55,4.15,6.7,6.7,0,0,1-.65,3,7.18,7.18,0,0,1-1.77,2.25,11.44,11.44,0,0,1-2.46,1.6A16,16,0,0,1,302.23,64.6Zm4.1-53a.58.58,0,0,0-.65.66V24.71a.58.58,0,0,0,.65.66h12.23a.58.58,0,0,0,.66-.66V12.24a.58.58,0,0,0-.66-.66Zm0,15.43a.58.58,0,0,0-.65.66V40.39a.57.57,0,0,0,.65.65h12.23a.58.58,0,0,0,.66-.65V27.67a.58.58,0,0,0-.66-.66ZM331,73.71a.53.53,0,0,1-.53,0,.89.89,0,0,1-.45-.45c-1-3.29-2.19-6.77-3.61-10.47a70,70,0,0,0-4.76-10,.67.67,0,0,1,.12-.74.57.57,0,0,1,.7-.16c1.37.49,2.91,1.12,4.64,1.89A35.28,35.28,0,0,1,332,56.43a18.7,18.7,0,0,1,4,3.49,7.88,7.88,0,0,1,1.93,4.43,6.26,6.26,0,0,1-.41,3,8.79,8.79,0,0,1-1.6,2.54,14.3,14.3,0,0,1-2.34,2.1A28.26,28.26,0,0,1,331,73.71Z"/><path d="M347.12,27.91a1.67,1.67,0,0,1-.24-.86c0-.3.21-.45.65-.45h12.72a.64.64,0,0,0,.66-.49,48.33,48.33,0,0,0,.57-4.8c.11-1.62.17-3.27.17-5a.58.58,0,0,0-.66-.65l-1.39,0c-.66,0-1.07.07-1.23.28a31.82,31.82,0,0,1-4.07,4.27q-2.18,1.89-4.55,3.77a.59.59,0,0,1-.82,0,.58.58,0,0,1-.25-.73,82.82,82.82,0,0,0,2.83-8.58A67.59,67.59,0,0,0,353.28,6c.05-.49.32-.68.82-.57l10.34,3.12a.64.64,0,0,1,.45.53,1.06,1.06,0,0,1-.29.78,3.57,3.57,0,0,1-1,.78,3.91,3.91,0,0,1-1.64.45c-.28.06-.59.37-1,.94s-.67,1.06-.94,1.44a.78.78,0,0,0,0,.7.59.59,0,0,0,.57.37h20.77c.38,0,.6.14.65.41a.79.79,0,0,1-.24.74h-9.93a.58.58,0,0,0-.66.65c-.11,1.64-.23,3.24-.37,4.8a41.05,41.05,0,0,1-.7,4.72c-.11.5.11.74.66.74H384.3c.43,0,.67.15.7.45a1.2,1.2,0,0,1-.29.86H370.18c-.38,0-.64.28-.78.83a15.79,15.79,0,0,1-.53,1.72c-.06.11-.15.29-.29.53a2.81,2.81,0,0,0-.28.78,1.54,1.54,0,0,0,0,.74q.07.33.57.33c1.2,0,2.54.15,4,.29a22.18,22.18,0,0,1,4.31.82,12.24,12.24,0,0,1,3.69,1.76,5.72,5.72,0,0,1,2.18,3,4.73,4.73,0,0,1-.49,4,14.22,14.22,0,0,1-2.8,3.2c-.16.16-.35.34-.57.53a4.68,4.68,0,0,1-.66.49,1.65,1.65,0,0,1-.65.25c-.22,0-.41-.09-.58-.37a79.29,79.29,0,0,0-4.14-6.93,47,47,0,0,0-4.8-6c-.39-.39-.74-.33-1.07.16a21.89,21.89,0,0,1-3.53,5A28.6,28.6,0,0,1,359.31,43a40.55,40.55,0,0,1-5.17,3c-1.83.9-3.74,1.76-5.71,2.58a.54.54,0,0,1-.78-.2.62.62,0,0,1,.13-.86A55.17,55.17,0,0,0,355.49,39a30.28,30.28,0,0,0,4.76-10.21c.06-.55-.16-.83-.65-.83ZM406.46,45.8c.54,0,.82.17.82.66V81.18a.6.6,0,0,1-.58.65,20.55,20.55,0,0,1-5-.29,8.86,8.86,0,0,1-4.39-2,1.23,1.23,0,0,1-.25-.9c0-.44,0-.89,0-1.35a4,4,0,0,0-.08-1.19.59.59,0,0,0-.62-.5H368.79a.54.54,0,0,0-.58.5,7.22,7.22,0,0,0-.08,1.11v1.23a1,1,0,0,1-.33.86A12.46,12.46,0,0,1,363.41,81a18,18,0,0,1-4.64.29.58.58,0,0,1-.65-.66V46.22a.66.66,0,0,1,.25-.54.49.49,0,0,1,.49-.12c1.09.16,2.19.36,3.28.57a22,22,0,0,1,3.2.9,10.61,10.61,0,0,1,1.81.78,4,4,0,0,0,1.23.54H397a15,15,0,0,0,1.52-.33c.9-.22,1.88-.48,2.95-.78l3.08-.86A19.5,19.5,0,0,0,406.46,45.8Zm-37.67,3.94a.58.58,0,0,0-.66.66V60.49a.58.58,0,0,0,.66.66h27.65a.58.58,0,0,0,.66-.66V50.4a.58.58,0,0,0-.66-.66Zm0,12.72a.58.58,0,0,0-.66.66V73.54a.58.58,0,0,0,.66.66h27.65a.58.58,0,0,0,.66-.66V63.12a.58.58,0,0,0-.66-.66Zm46.94-51.21c.55-.05.82.17.82.66V42.19q0,.66-.57.66a16.33,16.33,0,0,1-4.31-.25,8.08,8.08,0,0,1-3.9-1.8,1.13,1.13,0,0,1-.33-.95,14.18,14.18,0,0,1,.08-1.43,4.77,4.77,0,0,0,0-1.31.59.59,0,0,0-.65-.58H396.61a.58.58,0,0,0-.66.66v3.94a.57.57,0,0,1-.41.57,13.43,13.43,0,0,1-3.94,1.35,22.73,22.73,0,0,1-4.1.37.58.58,0,0,1-.66-.65V11.66a.58.58,0,0,1,.25-.45.79.79,0,0,1,.49-.2c1.48.22,2.87.49,4.19.82a13.83,13.83,0,0,1,3.85,1.64,8.61,8.61,0,0,0,1.81.12c1.15,0,2.42,0,3.81,0s2.74,0,4,0l2.42,0a10.67,10.67,0,0,0,1.31-.28c.77-.2,1.6-.43,2.5-.7l2.59-.78C414.91,11.54,415.45,11.37,415.73,11.25Zm-19.12,3.61a.58.58,0,0,0-.66.66V34.64a.58.58,0,0,0,.66.66h10.26a.58.58,0,0,0,.65-.66V15.52a.58.58,0,0,0-.65-.66Z"/><path d="M443.14,22c.27-.43.57-.54.9-.32L455,27.17c.43.28.54.58.33.91a2.35,2.35,0,0,1-1,1,3,3,0,0,1-1.15.33c-.36,0-.68,0-1,0a.71.71,0,0,0-.62.25c-1.09,1.42-2.19,2.83-3.28,4.23a45.84,45.84,0,0,1-3.53,4,.54.54,0,0,0-.17.65.81.81,0,0,0,.79.46l1.27.08a3.73,3.73,0,0,1,1.1.2c.3.11.4.36.29.74a2.89,2.89,0,0,1-.61,1.11,5.54,5.54,0,0,1-.74.61l-.62.41a.56.56,0,0,0-.24.49l.08,35.21a.71.71,0,0,1-.25.5A9.2,9.2,0,0,1,442.15,80a19.37,19.37,0,0,1-3.77.57c-.33,0-.77,0-1.31,0s-.82-.2-.82-.69V46.71a.59.59,0,0,0-.33-.58.7.7,0,0,0-.66,0c-2.19,1.59-4.59,3.18-7.22,4.76a.65.65,0,0,1-.9-.9q4.68-6.65,8.9-13.46A81.18,81.18,0,0,0,443.14,22ZM441,4q.4-.66.9-.33l10.75,5.25a.59.59,0,0,1,.37.82,2.54,2.54,0,0,1-.53.91,2.29,2.29,0,0,1-1.07.74,3.91,3.91,0,0,1-1.07.16,7.31,7.31,0,0,1-.86,0,.51.51,0,0,0-.53.2,73.77,73.77,0,0,1-9.15,9.61,62.59,62.59,0,0,1-10.88,7.63.6.6,0,0,1-.78-.12A.58.58,0,0,1,428,28q3.69-5.74,7.14-11.7A80.87,80.87,0,0,0,441,4Zm12.63,39a.62.62,0,0,1-.69-.65c0-.44.17-.66.61-.66h44.73c.44,0,.64.22.61.66a.62.62,0,0,1-.69.65h-7.39a.58.58,0,0,0-.66.66V52a.58.58,0,0,0,.66.66h10.75c.44,0,.67.13.7.41a1,1,0,0,1-.37.82H490.82a.58.58,0,0,0-.66.65V68.21q0,6.32-2.7,9.19t-8.87,3.37a.6.6,0,0,1-.65-.58c-.22-1-.44-1.94-.66-2.71a8.57,8.57,0,0,0-.9-2.09,6.79,6.79,0,0,0-1.56-1.72,13.29,13.29,0,0,0-2.55-1.52c-.6-.27-.83-.58-.69-.91a.71.71,0,0,1,.69-.49l4.27.25a4.24,4.24,0,0,0,2.91-.7,3.64,3.64,0,0,0,.95-2.91V54.5a.58.58,0,0,0-.66-.65h-30a.82.82,0,0,1-.69-.45c-.2-.3-.37-.56-.54-.78h31.27a.58.58,0,0,0,.66-.66V43.59a.58.58,0,0,0-.66-.66ZM493.12,7.64a.49.49,0,0,1,.57,0,.66.66,0,0,1,.25.54V37.43c0,.44-.19.66-.58.66a12.56,12.56,0,0,1-4.47-.16,10,10,0,0,1-4.06-1.81.9.9,0,0,1-.25-.66v-.82a2.07,2.07,0,0,0-.12-.73.51.51,0,0,0-.53-.33H466.28c-.38,0-.6.13-.65.41a3.17,3.17,0,0,0,0,.94c0,.36,0,.71,0,1.07a.65.65,0,0,1-.41.69,14.33,14.33,0,0,1-4.11,1.44,24.14,24.14,0,0,1-4.35.37.58.58,0,0,1-.65-.66V8a.6.6,0,0,1,.24-.45.49.49,0,0,1,.5-.12,21.94,21.94,0,0,1,4.34.86,27.41,27.41,0,0,1,4.11,1.68,4.9,4.9,0,0,0,1.39.08c.88,0,2,0,3.29,0s2.74,0,4.3,0,3.05,0,4.48,0,2.65,0,3.69,0h2.05a11.46,11.46,0,0,0,1.4-.33c.82-.21,1.71-.47,2.66-.77s1.89-.58,2.79-.82S492.84,7.7,493.12,7.64ZM470.22,63a6,6,0,0,1-1.64,5.83,9.7,9.7,0,0,1-1.52,1,10.55,10.55,0,0,1-1.89.86,6.17,6.17,0,0,1-1.64.37c-.46,0-.75-.12-.86-.45q-1.07-3.69-2.38-7.06c-.87-2.24-1.86-4.51-3-6.81a.73.73,0,0,1,.08-.74.51.51,0,0,1,.66-.16c1,.16,2.21.41,3.52.74A19.33,19.33,0,0,1,465.34,58a13.72,13.72,0,0,1,3.12,2.09A5.7,5.7,0,0,1,470.22,63Zm-3.94-51.7a.57.57,0,0,0-.65.65v8.54a.58.58,0,0,0,.65.66h17.65a.58.58,0,0,0,.65-.66V12a.58.58,0,0,0-.65-.65Zm0,11.07a.58.58,0,0,0-.65.66v8.46a.57.57,0,0,0,.65.65h17.65a.58.58,0,0,0,.65-.65V23.07a.58.58,0,0,0-.65-.66Z"/><path d="M184.09,131.18a.21.21,0,0,0,.24-.24v-27.6a.21.21,0,0,0-.24-.24h-3.21c-.13,0-.2-.09-.2-.26s.07-.27.2-.27h11.65a18.63,18.63,0,0,1,3.63.37,11.66,11.66,0,0,1,3.45,1.21,7.65,7.65,0,0,1,2.58,2.28,5.94,5.94,0,0,1,1,3.53,4.68,4.68,0,0,1-.52,2.21,6.55,6.55,0,0,1-1.39,1.76,8,8,0,0,1-1.92,1.3,11.68,11.68,0,0,1-2.17.81c-.14.06-.21.14-.21.26s.07.2.21.23a10.31,10.31,0,0,1,4,1.5,6.84,6.84,0,0,1,2.16,2.35,7.84,7.84,0,0,1,.85,2.92c.09,1.06.14,2.12.14,3.17,0,.73,0,1.4,0,2a6.35,6.35,0,0,0,.26,1.57,2.14,2.14,0,0,0,.69,1,2.12,2.12,0,0,0,1.32.36,2.68,2.68,0,0,0,1.34-.3,5,5,0,0,0,.85-.59q.09-.08.12,0t0,.12a5,5,0,0,1-1.17.89,4.18,4.18,0,0,1-2.19.49,7.89,7.89,0,0,1-3.39-.63,5.45,5.45,0,0,1-2.07-1.64,5.69,5.69,0,0,1-1-2.33,13.34,13.34,0,0,1-.27-2.66v-.9c0-.4,0-.84,0-1.31s0-.94-.06-1.41a10,10,0,0,0-.12-1.09,4.81,4.81,0,0,0-.65-1.73,3.44,3.44,0,0,0-1.1-1,4.26,4.26,0,0,0-1.42-.53,9.1,9.1,0,0,0-1.58-.14h-4.26a.21.21,0,0,0-.24.24v14.09a.21.21,0,0,0,.24.24h3.25c.13,0,.2.09.2.26s-.07.27-.2.27h-12q-.24,0-.24-.27c0-.17.08-.26.24-.26Zm5.56-28a.21.21,0,0,0-.24.24v12.54a.22.22,0,0,0,.24.25h4.26a5,5,0,0,0,1.44-.21,2.78,2.78,0,0,0,1.3-.85,4.67,4.67,0,0,0,.93-1.87,12.46,12.46,0,0,0,.35-3.28,13.4,13.4,0,0,0-.25-2.7,5.67,5.67,0,0,0-.85-2.15,4.27,4.27,0,0,0-1.66-1.45,5.91,5.91,0,0,0-2.64-.52Z"/><path d="M210.75,131.18a.26.26,0,0,0,.24-.12l11.53-29q.19-.36.45,0l11.93,29q0,.12.24.12h2.52c.16,0,.24.09.24.26s-.08.27-.24.27H225.81c-.16,0-.25-.09-.25-.27a.23.23,0,0,1,.25-.26h3.33a.3.3,0,0,0,.2-.1.19.19,0,0,0,0-.23l-3.82-9.7a.23.23,0,0,0-.2-.12H215.7c-.13,0-.2,0-.2.12l-3.85,9.7a.17.17,0,0,0,0,.23.26.26,0,0,0,.2.1h2.92c.16,0,.24.09.24.26s-.08.27-.24.27h-6.49c-.17,0-.25-.09-.25-.27s.08-.26.25-.26Zm5.07-11a.33.33,0,0,0,0,.25.26.26,0,0,0,.21.12H225a.24.24,0,0,0,.2-.12.23.23,0,0,0,0-.25l-4.43-11.08a.26.26,0,0,0-.48,0Z"/><path d="M242.36,131.18c.17,0,.25-.08.25-.24V103.3c0-.16-.08-.24-.25-.24H239.2a.21.21,0,0,1-.24-.24c0-.17.08-.25.24-.25h11.93c.16,0,.24.08.24.25a.21.21,0,0,1-.24.24h-3.21a.21.21,0,0,0-.24.24v27.64a.21.21,0,0,0,.24.24h3.21c.16,0,.24.09.24.26s-.08.27-.24.27H239.2q-.24,0-.24-.27c0-.17.08-.26.24-.26Z"/><path d="M256,132c-.17,0-.25-.08-.25-.24v-9.86a.23.23,0,0,1,.23-.26c.15,0,.23,0,.26.22A13.39,13.39,0,0,0,257.4,126a12.12,12.12,0,0,0,2.13,3.18,9.63,9.63,0,0,0,2.8,2.09,7,7,0,0,0,3.12.75,8.51,8.51,0,0,0,2.46-.35,6.69,6.69,0,0,0,2.13-1,5.29,5.29,0,0,0,1.5-1.72,5,5,0,0,0,.57-2.46,5.19,5.19,0,0,0-.41-2.15,4.6,4.6,0,0,0-1.36-1.66,14.55,14.55,0,0,0-2.47-1.57c-1-.52-2.26-1.14-3.72-1.84-1.19-.57-2.24-1.1-3.14-1.58a10,10,0,0,1-2.29-1.65,6.17,6.17,0,0,1-1.43-2.11,7.94,7.94,0,0,1-.48-2.94,9.61,9.61,0,0,1,2.39-6.31,8.8,8.8,0,0,1,2.64-2,7.83,7.83,0,0,1,5.27-.51c.57.17,1.24.39,2,.69a4.38,4.38,0,0,0,1.73.39c.5,0,.84-.33,1-1a.27.27,0,0,1,.29-.18.2.2,0,0,1,.2.23v7.67a.23.23,0,0,1-.24.26c-.17,0-.25-.09-.25-.31a12,12,0,0,0-.65-2.59,9,9,0,0,0-1.34-2.46,7.09,7.09,0,0,0-2.06-1.83,5.6,5.6,0,0,0-2.85-.7,6.23,6.23,0,0,0-1.74.26,5.73,5.73,0,0,0-1.75.83,4.5,4.5,0,0,0-1.33,1.5,4.6,4.6,0,0,0-.53,2.32,5.32,5.32,0,0,0,.53,2.49,6,6,0,0,0,1.56,1.89,14.54,14.54,0,0,0,2.56,1.64c1,.53,2.19,1.1,3.55,1.73q1.5.69,2.82,1.35a10.78,10.78,0,0,1,2.31,1.57,6.72,6.72,0,0,1,1.58,2.11,6.79,6.79,0,0,1,.59,3,8.18,8.18,0,0,1-.81,3.57,10.64,10.64,0,0,1-2.15,3,10.31,10.31,0,0,1-3.09,2.1,8.47,8.47,0,0,1-3.61.8,11.54,11.54,0,0,1-2.59-.25,14.08,14.08,0,0,1-1.95-.55l-1.59-.54a4.62,4.62,0,0,0-1.46-.25,2,2,0,0,0-1,.19,1.37,1.37,0,0,0-.45.4,2.17,2.17,0,0,0-.2.41A.23.23,0,0,1,256,132Z"/><path d="M302.7,125.3a.22.22,0,0,1,.29-.15.26.26,0,0,1,.2.27v6.24c0,.17-.08.25-.24.25H279.33q-.24,0-.24-.27c0-.17.08-.26.24-.26h3.17c.18,0,.28-.08.28-.24V103.51c0-.17-.1-.25-.28-.25h-3.17a.21.21,0,0,1-.24-.24c0-.17.08-.25.24-.25h21.26a.22.22,0,0,1,.25.25v5.15a.25.25,0,0,1-.21.26c-.13,0-.22,0-.28-.14a7.88,7.88,0,0,0-1.12-1.93,7.75,7.75,0,0,0-1.72-1.6,8.63,8.63,0,0,0-2.37-1.1,11,11,0,0,0-3.11-.4h-4c-.16,0-.24.08-.24.25v12.9a.21.21,0,0,0,.24.24c.68,0,1.39,0,2.13-.1a5.55,5.55,0,0,0,2.11-.63A4.74,4.74,0,0,0,294,114.3a7.13,7.13,0,0,0,1-3.12.25.25,0,0,1,.49.07v11.41c0,.13-.08.22-.24.24s-.25-.05-.25-.24a7.18,7.18,0,0,0-1-3.15,5.06,5.06,0,0,0-1.74-1.66,5.34,5.34,0,0,0-2.12-.65c-.74-.07-1.44-.1-2.09-.1a.21.21,0,0,0-.24.24v13.8a.21.21,0,0,0,.24.24h5.85a12.53,12.53,0,0,0,2.78-.3,7.86,7.86,0,0,0,4.5-2.9A10.31,10.31,0,0,0,302.7,125.3Z"/><path d="M318.17,103.26c0-.11-.11-.16-.25-.16h-2.44c-.16,0-.24-.08-.24-.25a.21.21,0,0,1,.24-.24h12.34c.17,0,.24.08.24.24s-.07.25-.24.25h-3.89c-.19,0-.26.11-.21.32l8.49,21.67a.18.18,0,0,0,.2.16.25.25,0,0,0,.24-.16L339.31,109a.21.21,0,0,0,0-.16l-2.23-5.56c0-.11-.11-.16-.25-.16H334.4a.22.22,0,0,1-.25-.25c0-.16.08-.24.25-.24h12.29a.22.22,0,0,1,.25.24.22.22,0,0,1-.25.25h-3.85a.26.26,0,0,0-.21.1.18.18,0,0,0,0,.22l8.45,21.71c.16.22.31.22.44,0l9-21.71c.05-.21,0-.32-.24-.32h-3c-.16,0-.24-.08-.24-.25a.21.21,0,0,1,.24-.24h6.58a.21.21,0,0,1,.24.24c0,.17-.08.25-.24.25H361.3c-.13,0-.2.05-.2.16l-12,29a.29.29,0,0,1-.25.12c-.11,0-.16-.06-.16-.17l-8.84-22.11q-.25-.37-.45,0l-9.17,22.16q-.25.27-.45,0Z"/><path d="M368.69,131.18a.21.21,0,0,0,.24-.24V103.3a.21.21,0,0,0-.24-.24h-3.17a.21.21,0,0,1-.24-.24c0-.17.08-.25.24-.25h11.93a.22.22,0,0,1,.25.25.22.22,0,0,1-.25.24h-3.2c-.17,0-.25.08-.25.24v27.64c0,.16.08.24.25.24h3.2a.23.23,0,0,1,.25.26c0,.18-.09.27-.25.27H365.52q-.24,0-.24-.27c0-.17.08-.26.24-.26Z"/><path d="M382.32,132a.21.21,0,0,1-.24-.24v-9.86c0-.16.07-.25.22-.26s.24,0,.27.22a13.39,13.39,0,0,0,1.15,4.08,12.12,12.12,0,0,0,2.13,3.18,9.63,9.63,0,0,0,2.8,2.09,7.09,7.09,0,0,0,3.13.75,8.49,8.49,0,0,0,2.45-.35,6.59,6.59,0,0,0,2.13-1,5.29,5.29,0,0,0,1.5-1.72,5,5,0,0,0,.57-2.46,5.19,5.19,0,0,0-.4-2.15,4.82,4.82,0,0,0-1.36-1.66,14.68,14.68,0,0,0-2.48-1.57c-1-.52-2.25-1.14-3.71-1.84-1.19-.57-2.24-1.1-3.15-1.58A10.2,10.2,0,0,1,385,116a6.14,6.14,0,0,1-1.42-2.11,7.93,7.93,0,0,1-.49-2.94,9.55,9.55,0,0,1,2.4-6.31,8.64,8.64,0,0,1,2.63-2,7.26,7.26,0,0,1,3.29-.75,7.38,7.38,0,0,1,2,.24c.57.17,1.23.39,2,.69a4.33,4.33,0,0,0,1.72.39c.5,0,.85-.33,1-1a.26.26,0,0,1,.28-.18c.14,0,.2.09.2.23v7.67a.23.23,0,0,1-.24.26c-.16,0-.24-.09-.24-.31a12.59,12.59,0,0,0-.65-2.59,9.31,9.31,0,0,0-1.34-2.46,7.26,7.26,0,0,0-2.07-1.83,5.56,5.56,0,0,0-2.84-.7,6.35,6.35,0,0,0-1.75.26,5.57,5.57,0,0,0-1.74.83,4.53,4.53,0,0,0-1.34,1.5,4.71,4.71,0,0,0-.53,2.32,5.45,5.45,0,0,0,.53,2.49,6,6,0,0,0,1.56,1.89,14.54,14.54,0,0,0,2.56,1.64c1,.53,2.2,1.1,3.55,1.73q1.5.69,2.82,1.35a10.54,10.54,0,0,1,2.31,1.57,6.31,6.31,0,0,1,2.17,5.07,8.18,8.18,0,0,1-.81,3.57,10.64,10.64,0,0,1-2.15,3,10.39,10.39,0,0,1-3.08,2.1,8.5,8.5,0,0,1-3.61.8,11.63,11.63,0,0,1-2.6-.25,14.92,14.92,0,0,1-1.95-.55l-1.58-.54a4.72,4.72,0,0,0-1.46-.25,2.07,2.07,0,0,0-1,.19,1.24,1.24,0,0,0-.44.4,1.77,1.77,0,0,0-.21.41A.22.22,0,0,1,382.32,132Z"/><path d="M408.94,131.18a.21.21,0,0,0,.24-.24V103.3a.21.21,0,0,0-.24-.24h-3.16c-.17,0-.25-.08-.25-.24a.22.22,0,0,1,.25-.25h12.37a15.19,15.19,0,0,1,14.22,9.35,14.47,14.47,0,0,1,1.16,5.74,14.19,14.19,0,0,1-.93,5,13.23,13.23,0,0,1-2.84,4.5,14.7,14.7,0,0,1-4.81,3.29,16.93,16.93,0,0,1-6.84,1.28H405.78c-.17,0-.25-.09-.25-.27s.08-.26.25-.26Zm5.56-28.08a.21.21,0,0,0-.24.24v27.55c0,.17.08.25.24.25h3.9a8.55,8.55,0,0,0,4.88-1.24,7.94,7.94,0,0,0,2.82-3.21,13.61,13.61,0,0,0,1.3-4.44,37.41,37.41,0,0,0,.33-5,42.36,42.36,0,0,0-.33-5.38A12.94,12.94,0,0,0,426,107.4a7.85,7.85,0,0,0-3-3.12A9.61,9.61,0,0,0,418,103.1Z"/><path d="M438.32,117.22a15.23,15.23,0,0,1,1.24-6.25,15.61,15.61,0,0,1,3.21-4.79,13.93,13.93,0,0,1,4.46-3.06,12.35,12.35,0,0,1,10.1,0,14.08,14.08,0,0,1,4.47,3.06A15.76,15.76,0,0,1,465,111a15.23,15.23,0,0,1,1.24,6.25,15.07,15.07,0,0,1-1.26,6.25,16,16,0,0,1-3.26,4.79,14.77,14.77,0,0,1-4.51,3.06,11.79,11.79,0,0,1-9.86,0,14.73,14.73,0,0,1-4.5-3.06,15.88,15.88,0,0,1-3.27-4.79A15.07,15.07,0,0,1,438.32,117.22Zm5.76,0c0,.51,0,1.26.05,2.25s.1,2.06.22,3.21a24,24,0,0,0,.61,3.43,10,10,0,0,0,1.19,2.92,5.35,5.35,0,0,0,2.58,2.23,10,10,0,0,0,7.1,0,5.35,5.35,0,0,0,2.58-2.23,10.25,10.25,0,0,0,1.2-2.92,27.1,27.1,0,0,0,.61-3.43c.12-1.15.19-2.22.22-3.21s0-1.74,0-2.25,0-1.26,0-2.23-.11-2-.25-3.17a29.37,29.37,0,0,0-.6-3.41,11.25,11.25,0,0,0-1.18-3,5.09,5.09,0,0,0-2.56-2.23,10.13,10.13,0,0,0-7.14,0,5.09,5.09,0,0,0-2.56,2.23,10.91,10.91,0,0,0-1.17,3,29.43,29.43,0,0,0-.61,3.41,31.5,31.5,0,0,0-.24,3.17C444.1,116,444.08,116.71,444.08,117.22Z"/><path d="M473.3,131.18a.21.21,0,0,0,.24-.24V103.3a.21.21,0,0,0-.24-.24h-3.25a.21.21,0,0,1-.24-.24c0-.17.08-.25.24-.25h8.85a.26.26,0,0,1,.24.2L485,123a.18.18,0,0,0,.2.16.25.25,0,0,0,.24-.16l7.59-20.29a.19.19,0,0,1,.2-.16H502c.16,0,.24.08.24.25a.21.21,0,0,1-.24.24h-3.25a.21.21,0,0,0-.24.24v27.64a.21.21,0,0,0,.24.24H502c.16,0,.24.09.24.26s-.08.27-.24.27h-12q-.24,0-.24-.27c0-.17.08-.26.24-.26h3.16c.17,0,.25-.08.25-.24v-26.5a.23.23,0,0,0-.19-.25.22.22,0,0,0-.26.16l-10.06,27a.28.28,0,0,1-.25.17.26.26,0,0,1-.24-.17l-8-26.66a.26.26,0,0,0-.29-.18.2.2,0,0,0-.2.22v26.22a.21.21,0,0,0,.24.24h3.33c.16,0,.24.09.24.26s-.08.27-.24.27h-7.51q-.24,0-.24-.27c0-.17.08-.26.24-.26Z"/></g></g></svg>