<?xml version="1.0" standalone="no"?><!DOCTYPE svg PUBLIC "-//W3C//DTD SVG 1.1//EN" "http://www.w3.org/Graphics/SVG/1.1/DTD/svg11.dtd"><svg t="1629946657758" class="icon" viewBox="0 0 1024 1024" version="1.1" xmlns="http://www.w3.org/2000/svg" p-id="4098" xmlns:xlink="http://www.w3.org/1999/xlink" width="384" height="384"><defs><style type="text/css"></style></defs><path d="M204.8 143.36h614.4a81.92 81.92 0 0 1 81.92 81.92v593.92a81.92 81.92 0 0 1-81.92 81.92H204.8a81.92 81.92 0 0 1-81.92-81.92V225.28a81.92 81.92 0 0 1 81.92-81.92z m20.48 81.92a20.48 20.48 0 0 0-20.48 20.48v552.96a20.48 20.48 0 0 0 20.48 20.48h573.44a20.48 20.48 0 0 0 20.48-20.48V245.76a20.48 20.48 0 0 0-20.48-20.48H225.28z m61.44-61.44h40.96a20.48 20.48 0 0 1 20.48 20.48v696.32a20.48 20.48 0 0 1-20.48 20.48h-40.96a20.48 20.48 0 0 1-20.48-20.48V184.32a20.48 20.48 0 0 1 20.48-20.48z m409.6 0h40.96a20.48 20.48 0 0 1 20.48 20.48v696.32a20.48 20.48 0 0 1-20.48 20.48h-40.96a20.48 20.48 0 0 1-20.48-20.48V184.32a20.48 20.48 0 0 1 20.48-20.48z"  p-id="4099"></path><path d="M163.84 286.72m20.48 0l143.36 0q20.48 0 20.48 20.48l0 40.96q0 20.48-20.48 20.48l-143.36 0q-20.48 0-20.48-20.48l0-40.96q0-20.48 20.48-20.48Z" p-id="4100"></path><path d="M184.32 491.52m20.48 0l614.4 0q20.48 0 20.48 20.48l0 40.96q0 20.48-20.48 20.48l-614.4 0q-20.48 0-20.48-20.48l0-40.96q0-20.48 20.48-20.48Z"  p-id="4101"></path><path d="M143.36 675.84m20.48 0l143.36 0q20.48 0 20.48 20.48l0 40.96q0 20.48-20.48 20.48l-143.36 0q-20.48 0-20.48-20.48l0-40.96q0-20.48 20.48-20.48Z"  p-id="4102"></path><path d="M696.32 286.72m20.48 0l143.36 0q20.48 0 20.48 20.48l0 40.96q0 20.48-20.48 20.48l-143.36 0q-20.48 0-20.48-20.48l0-40.96q0-20.48 20.48-20.48Z"  p-id="4103"></path><path d="M675.84 675.84m20.48 0l143.36 0q20.48 0 20.48 20.48l0 40.96q0 20.48-20.48 20.48l-143.36 0q-20.48 0-20.48-20.48l0-40.96q0-20.48 20.48-20.48Z" p-id="4104"></path></svg>