<?xml version="1.0" standalone="no"?><!DOCTYPE svg PUBLIC "-//W3C//DTD SVG 1.1//EN" "http://www.w3.org/Graphics/SVG/1.1/DTD/svg11.dtd"><svg t="1603698588888" class="icon" viewBox="0 0 1024 1024" version="1.1" xmlns="http://www.w3.org/2000/svg" p-id="3800" xmlns:xlink="http://www.w3.org/1999/xlink" width="300" height="300"><defs><style type="text/css"></style></defs><path d="M315.742151 558.550199c-18.552541 0-33.767058 14.730493-33.767058 33.767058 0 18.067494 15.214517 32.845059 33.767058 32.845059 18.332531 0 33.30657-14.777565 33.30657-32.845059C349.047698 573.279668 334.074681 558.550199 315.742151 558.550199L315.742151 558.550199zM315.742151 699.831946 315.742151 699.831946c-18.552541 0-33.767058 15.017018-33.767058 33.54807 0 18.794042 15.214517 33.546024 33.767058 33.546024 18.332531 0 33.30657-14.751982 33.30657-33.546024C349.047698 714.848964 334.074681 699.831946 315.742151 699.831946L315.742151 699.831946zM315.742151 417.004439 315.742151 417.004439c-18.552541 0-33.767058 14.512529-33.767058 33.546024 0 18.313088 15.214517 33.790594 33.767058 33.790594 18.332531 0 33.30657-15.47853 33.30657-33.790594C349.047698 431.516967 334.074681 417.004439 315.742151 417.004439L315.742151 417.004439zM707.071837 430.330956 707.071837 430.330956 415.879825 430.330956c-10.934027 0-20.22053 9.287527-20.22053 20.218484 0 10.936073 9.287527 19.97903 20.22053 19.97903l291.193035 0c10.934027 0 19.97903-9.04398 19.97903-19.97903C727.051891 439.618483 718.005864 430.330956 707.071837 430.330956L707.071837 430.330956zM859.771635 205.069539 859.771635 205.069539l-92.300172 0 0-18.574031c0-10.934027-9.023514-20.199041-19.97903-20.199041L640.196731 166.296467c-5.928013-23.559579-18.311041-44.964074-34.95307-61.847603-23.800056-23.799032-56.842613-38.794561-93.243661-38.794561l0 0c-36.379559 0-69.466118 14.995529-93.485161 38.794561-16.664541 16.883529-28.783557 38.288025-34.733059 61.847603l-107.273189 0c-11.417027 0-20.001543 9.265014-20.001543 20.199041l0 18.574031-92.300172 0c-18.530029 0-33.284057 14.730493-33.284057 33.789571l0 686.014242c0 18.09103 14.754029 33.30657 33.284057 33.30657l695.564759 0c18.552541 0 33.30657-15.214517 33.30657-33.30657l0-686.014242C893.077182 219.800032 878.323153 205.069539 859.771635 205.069539L859.771635 205.069539zM446.814372 132.99092 446.814372 132.99092c16.883529-16.664541 39.980573-27.358091 65.185628-27.358091l0 0c25.226544 0 48.038086 10.694573 64.702628 27.358091 9.529027 9.287527 17.125029 21.162995 21.406542 33.30657L425.89083 166.29749C430.413843 154.153916 437.790858 142.278447 446.814372 132.99092L446.814372 132.99092zM296.486598 206.717062 296.486598 206.717062l431.025781 0 0 63.296605L296.486598 270.013667 296.486598 206.717062 296.486598 206.717062zM826.465065 890.842281 826.465065 890.842281 197.995423 890.842281 197.995423 271.660166l58.510602 0 0 18.552541c0 11.438517 8.584516 20.22053 20.001543 20.22053l470.983841 0c10.955516 0 19.97903-8.782014 19.97903-20.22053l0-18.552541 58.993602 0L826.464041 890.842281 826.465065 890.842281zM707.071837 713.641463 707.071837 713.641463 415.879825 713.641463c-10.934027 0-20.22053 8.562003-20.22053 19.73753s9.287527 20.22053 20.22053 20.22053l291.193035 0c10.934027 0 19.97903-9.046027 19.97903-20.22053S718.005864 713.641463 707.071837 713.641463L707.071837 713.641463zM707.071837 571.635215 707.071837 571.635215 415.879825 571.635215c-10.934027 0-20.22053 9.287527-20.22053 20.682042 0 10.472516 9.287527 19.760043 20.22053 19.760043l291.193035 0c10.934027 0 19.97903-9.287527 19.97903-19.760043C727.051891 580.921719 718.005864 571.635215 707.071837 571.635215L707.071837 571.635215z" p-id="3801"></path></svg>