<?xml version="1.0" standalone="no"?><!DOCTYPE svg PUBLIC "-//W3C//DTD SVG 1.1//EN" "http://www.w3.org/Graphics/SVG/1.1/DTD/svg11.dtd"><svg t="1615786913390" class="icon" viewBox="0 0 1024 1024" version="1.1" xmlns="http://www.w3.org/2000/svg" p-id="4905" xmlns:xlink="http://www.w3.org/1999/xlink" width="200" height="200"><defs><style type="text/css"></style></defs><path d="M943.004682 80.995318a277.233445 277.233445 0 0 0-391.791304 0L393.846154 237.848829a55.309699 55.309699 0 0 0 78.255518 78.255519l156.682274-156.682274A166.271572 166.271572 0 0 1 864.749164 393.846154l-156.853512 156.682274a55.480936 55.480936 0 0 0 78.426756 78.426756l156.682274-156.853512a277.233445 277.233445 0 0 0 0-391.106354zM551.213378 707.895652L393.846154 864.749164A166.271572 166.271572 0 0 1 159.250836 629.640134l156.853512-156.853512A55.480936 55.480936 0 1 0 237.677592 393.846154l-156.682274 157.367224a277.062207 277.062207 0 0 0 391.791304 391.791304l156.682274-156.682274a55.480936 55.480936 0 0 0-78.255518-78.426756z" p-id="4906"></path><path d="M316.104348 707.895652a55.480936 55.480936 0 0 0 78.426756 0L707.895652 393.846154a55.480936 55.480936 0 0 0-78.426756-78.426756l-313.364548 314.220736a55.480936 55.480936 0 0 0 0 78.255518z" p-id="4907"></path></svg>