<?xml version="1.0" standalone="no"?><!DOCTYPE svg PUBLIC "-//W3C//DTD SVG 1.1//EN" "http://www.w3.org/Graphics/SVG/1.1/DTD/svg11.dtd"><svg t="1600911267278" class="icon" viewBox="0 0 1024 1024" version="1.1" xmlns="http://www.w3.org/2000/svg" p-id="5533" xmlns:xlink="http://www.w3.org/1999/xlink" width="200" height="200"><defs><style type="text/css"></style></defs><path d="M1015.466667 836.266667C1015.466667 836.266667 1015.466667 836.266667 1015.466667 836.266667c0 17.066667-12.8 29.866667-29.866667 29.866667l-234.666667 0c17.066667-4.266667 29.866667-21.333333 29.866667-38.4 0 0 0 0 0 0l0 0c0 0 0-140.8-102.4-196.266667-42.666667-21.333333-46.933333-17.066667-68.266667-21.333333l0-59.733333c0 0-25.6-17.066667-29.866667-76.8-17.066667 4.266667-21.333333-17.066667-21.333333-34.133333 0-12.8-8.533333-55.466667 8.533333-51.2-4.266667-29.866667-8.533333-55.466667-4.266667-68.266667 4.266667-46.933333 51.2-98.133333 123.733333-102.4 85.333333 4.266667 115.2 55.466667 119.466667 102.4 0 12.8 0 38.4-4.266667 68.266667 17.066667-4.266667 8.533333 38.4 8.533333 51.2 0 12.8-4.266667 38.4-21.333333 29.866667-8.533333 59.733333-29.866667 76.8-29.866667 76.8l0 59.733333c0 0 17.066667 8.533333 81.066667 34.133333 64 25.6 42.666667 8.533333 98.133333 34.133333C1015.466667 721.066667 1015.466667 836.266667 1015.466667 836.266667L1015.466667 836.266667zM546.133333 627.2c72.533333 29.866667 46.933333 8.533333 106.666667 38.4 93.866667 46.933333 93.866667 170.666667 93.866667 170.666667l0 0c0 0 0 0 0 0 0 17.066667-17.066667 34.133333-34.133333 34.133333L42.666667 870.4c-17.066667 0-34.133333-17.066667-34.133333-34.133333 0 0 0 0 0 0l0 0c0 0 0-123.733333 93.866667-170.666667 59.733333-29.866667 34.133333-4.266667 106.666667-34.133333 72.533333-29.866667 89.6-38.4 89.6-38.4l0-68.266667c0 0-25.6-21.333333-34.133333-85.333333-17.066667 4.266667-21.333333-21.333333-21.333333-34.133333C238.933333 384 230.4 337.066667 247.466667 341.333333 243.2 311.466667 243.2 281.6 243.2 268.8 247.466667 213.333333 298.666667 157.866667 375.466667 157.866667 469.333333 157.866667 503.466667 213.333333 512 268.8c0 17.066667 0 42.666667-4.266667 72.533333 21.333333-4.266667 12.8 42.666667 8.533333 59.733333 0 17.066667-8.533333 38.4-21.333333 34.133333-8.533333 64-34.133333 85.333333-34.133333 85.333333l0 68.266667C456.533333 588.8 473.6 597.333333 546.133333 627.2z" p-id="5534"></path></svg>