<svg xmlns="http://www.w3.org/2000/svg" width="40" height="40" viewBox="0 0 40 40">
  <defs>
    <style>
      .cls-1 {
        fill: #fa0;
        fill-rule: evenodd;
      }
    </style>
  </defs>
  <path id="icon-xs" class="cls-1" d="M272.631,1650.73c2.345,0.83,6.366-3.42,8.706-6.19s2.245-4.35,1.59-5.37-1.028,0-1.028,0,0.843-4.75-1.407-7.62c-3.771-4.81-11.489-4.65-14.39-.16s-1.427,7.78-1.427,7.78-1.124-1.84-1.683,0,0.372,2.59,2.341,4.9S270.293,1649.89,272.631,1650.73Zm6.516,1.04-3.519,8.08-1.233-3.57a7.524,7.524,0,0,1,.663-1.87c0.575-1.23.667-1.79-.473-2.54a2.1,2.1,0,0,0-3.138.94c-0.475,1.22.856,1.87,0.856,2.63a37.287,37.287,0,0,1-.95,4.22s0.094,0.94-1.138-1.69-2.569-6.48-2.569-6.48c-6.742,2.38-10.171,7.07-10.171,14.19,0,2.79,30.908,3.89,31.5-1.51C289.532,1658.97,280.22,1649.31,279.147,1651.77Zm-14.7-1.06v-5.6s-6.548-6.07-7.628-7.12c-0.34.33-7.811,7.03-7.811,7.12v20.58a1.4,1.4,0,0,0,1.542,1.16c1.655,0,3.127.13,4.4,0.03,1.325-.1-0.2-5.08,2.905-10.27C260.732,1651.79,264.448,1652.15,264.448,1650.71Zm-12-4.09a4.189,4.189,0,1,1,4.186,4.13,4.168,4.168,0,0,1-4.186-4.13h0Z" transform="translate(-249 -1628)"/>
</svg>
