<svg xmlns="http://www.w3.org/2000/svg" width="40" height="40" viewBox="0 0 40 40">
  <defs>
    <style>
      .cls-1 {
        fill: #00afff;
        fill-rule: evenodd;
      }
    </style>
  </defs>
  <path id="icon-xy" class="cls-1" d="M288.913,241.229v15.5a1.5,1.5,0,1,1-3,0v-13.25l-15.667,9.769a2.735,2.735,0,0,1-2.749,0l-17.925-11.5a1.221,1.221,0,0,1-.492-1.5,0.49,0.49,0,0,1,.492-0.247l17.9-11.5a2.515,2.515,0,0,1,2.994,0l17.925,11.5A0.834,0.834,0,0,1,288.913,241.229ZM269,257.489a8.013,8.013,0,0,0,4.716-1.5l9.722-6.243v6.76A11.611,11.611,0,0,1,271.994,268h-5.721a11.611,11.611,0,0,1-11.444-11.5v-6.76l9.7,6.243A6.816,6.816,0,0,0,269,257.489Z" transform="translate(-249 -228)"/>
</svg>
