<svg xmlns="http://www.w3.org/2000/svg" width="40" height="40" viewBox="0 0 40 40">
  <defs>
    <style>
      .cls-1 {
        fill: #04ae0f;
        fill-rule: evenodd;
      }
    </style>
  </defs>
  <path id="icon-jl" class="cls-1" d="M267.006,1165.33v-3.89a1.984,1.984,0,1,1,3.967,0v3.89l2.647-4.55-2.379-5.1c6.746,0.94,10.981,5.77,12.964,14.62h-30.42c1.983-8.99,6.217-13.95,12.964-14.62l-2.384,5.1Zm-14.367,9.76h32.717V1180H252.639v-4.91ZM249,1171.4h39.988v3.69H249v-3.69Zm15.2-29.79a8.245,8.245,0,0,1,9.789,0c1.325,1.21,1.85,3.22,1.587,5.77-0.395,4.29-3.042,7.23-6.613,7.23-3.438,0-6.084-2.94-6.613-7.23,0-2.55.524-4.43,1.85-5.77" transform="translate(-249 -1140)"/>
</svg>
