<svg xmlns="http://www.w3.org/2000/svg" width="18" height="16" viewBox="0 0 18 16">
  <defs>
    <style>
      .cls-1 {
        fill: #fa0;
        fill-rule: evenodd;
      }
    </style>
  </defs>
  <path id="icon-chengjiu-jin" class="cls-1" d="M10325,206v-1h-12v1h-3v4a3.076,3.076,0,0,0,3,3v1c0.4,1.5,3,2.6,5,3v2h-3a7.33,7.33,0,0,0-1,2h10a9.217,9.217,0,0,0-1-2h-3v-2c2-.4,4.6-1.5,5-3v-1a3.225,3.225,0,0,0,3-3v-4h-3Zm-12,5a1.075,1.075,0,0,1-1-1v-2h1v3Zm8.4,2.5-2.4-1.5-2.4,1.4,1-2.7-2.6-1.7h3l1-2.7,1,2.7h2.8l-2.3,1.8,1,2.7h-0.1Zm4.6-3.5a1.075,1.075,0,0,1-1,1v-3h1v2Z" transform="translate(-10310 -205)"/>
</svg>
