<svg xmlns="http://www.w3.org/2000/svg" width="16" height="16" viewBox="0 0 16 16">
  <defs>
    <style>
      .cls-1 {
        fill: #00afff;
        fill-rule: evenodd;
      }
    </style>
  </defs>
  <path id="icon-ques" class="cls-1" d="M3597,138a8.01,8.01,0,1,1-2.35-5.655A7.982,7.982,0,0,1,3597,138Zm-8,6.664a6.661,6.661,0,1,0-4.71-1.952A6.6,6.6,0,0,0,3589,144.664Zm0.13-11.27a2.921,2.921,0,0,1,2.04.689,2.372,2.372,0,0,1,.79,1.885,2.62,2.62,0,0,1-.49,1.616c-0.13.138-.51,0.49-1.07,0.978a1.681,1.681,0,0,0-.44.551,1.543,1.543,0,0,0-.16.711v0.348h-1.76v-0.348a2.827,2.827,0,0,1,.26-1.269,6.543,6.543,0,0,1,1.45-1.583l0.15-.168a1.146,1.146,0,0,0,.28-0.75,1.185,1.185,0,0,0-.28-0.823,1.173,1.173,0,0,0-.85-0.289,1.086,1.086,0,0,0-1,.427,1.8,1.8,0,0,0-.27,1.086v0.177h-1.74v-0.177a2.938,2.938,0,0,1,.84-2.244A3.084,3.084,0,0,1,3589.13,133.394Zm-0.22,7.019a1.14,1.14,0,0,1,.81.308,1.112,1.112,0,0,1-.02,1.581,1.15,1.15,0,0,1-1.57-.013,1.023,1.023,0,0,1-.33-0.786,1.054,1.054,0,0,1,.32-0.787A1.122,1.122,0,0,1,3588.91,140.413Z" transform="translate(-3581 -130)"/>
</svg>
