<svg xmlns="http://www.w3.org/2000/svg" width="12" height="14" viewBox="0 0 12 14">
  <defs>
    <style>
      .cls-1 {
        fill: #fff;
        fill-rule: evenodd;
      }
    </style>
  </defs>
  <path id="icon-password" class="cls-1" d="M138.4,1101h-8.8a1.651,1.651,0,0,1-1.6-1.7v-5.09a1.642,1.642,0,0,1,1.6-1.69h0.8v-1.7a3.607,3.607,0,1,1,7.2,0v1.7h0.8a1.644,1.644,0,0,1,1.6,1.69v5.09A1.653,1.653,0,0,1,138.4,1101Zm-5.2-4.05v1.93a0.8,0.8,0,1,0,1.6,0v-1.93a1.646,1.646,0,0,0,.585-0.62,1.758,1.758,0,0,0-.585-2.32,1.552,1.552,0,0,0-2.187.62A1.755,1.755,0,0,0,133.2,1096.95Zm2.8-6.13a2,2,0,1,0-4,0v1.7h4v-1.7Z" transform="translate(-128 -1087)"/>
</svg>
