<svg xmlns="http://www.w3.org/2000/svg" width="40" height="40" viewBox="0 0 40 40">
  <defs>
    <style>
      .cls-1 {
        fill: #fff;
        fill-rule: evenodd;
      }
    </style>
  </defs>
  <path id="icon-play" class="cls-1" d="M444,816a20,20,0,1,0,20,20A20,20,0,0,0,444,816Zm9.079,20.66-13.14,8.44a0.935,0.935,0,0,1-1.3-.28,0.9,0.9,0,0,1-.141-0.5V827.44a0.938,0.938,0,0,1,.94-0.94,1.029,1.029,0,0,1,.5.14l13.14,8.44a0.938,0.938,0,0,1,.281,1.3A1.263,1.263,0,0,1,453.079,836.66Z" transform="translate(-424 -816)"/>
</svg>
