<svg xmlns="http://www.w3.org/2000/svg" width="12" height="14" viewBox="0 0 12 14">
  <defs>
    <style>
      .cls-1 {
        fill: #00afff;
        fill-rule: evenodd;
      }
    </style>
  </defs>
  <path id="icon-name" class="cls-1" d="M138.243,206.818a48.976,48.976,0,0,1-7.539.082c-1.55-.082-2.426-0.266-2.707-1.334,0-2.056,1.67-4.951,3.686-4.951l1.59,0.493a3.758,3.758,0,0,0,1.346,0l1.692-.493c2.038,0,3.687,2.917,3.687,4.951C140.037,206.428,139.422,206.634,138.243,206.818Zm-4.278-6.133a3.843,3.843,0,1,1,3.81-3.843A3.827,3.827,0,0,1,133.965,200.685Z" transform="translate(-128 -193)"/>
</svg>
