<svg xmlns="http://www.w3.org/2000/svg" width="12" height="12" viewBox="0 0 12 12">
  <defs>
    <style>
      .cls-1 {
        fill: #00afff;
        fill-rule: evenodd;
      }
    </style>
  </defs>
  <path id="icon-mail" class="cls-1" d="M134,346l6,4.1H128Zm6,10.649A1.238,1.238,0,0,1,138.925,358h-9.852A1.236,1.236,0,0,1,128,356.649v-6.337a1.719,1.719,0,0,1,.016-0.206l5.664,3.624a0.173,0.173,0,0,1,.02.014,0.119,0.119,0,0,0,.021.015,0.5,0.5,0,0,0,.125.06,0.155,0.155,0,0,0,.015,0,0.506,0.506,0,0,0,.139.023,0.467,0.467,0,0,0,.141-0.023l0.012,0a0.523,0.523,0,0,0,.124-0.06,0.17,0.17,0,0,0,.022-0.015,0.1,0.1,0,0,0,.021-0.014l5.662-3.626a1.153,1.153,0,0,1,.017.206v6.339h0Z" transform="translate(-128 -346)"/>
</svg>
