<svg xmlns="http://www.w3.org/2000/svg" width="32" height="32" viewBox="0 0 32 32">
  <defs>
    <style>
      .cls-1 {
        fill: #aaa;
        fill-rule: evenodd;
      }
    </style>
  </defs>
  <path id="icon-3-gray" class="cls-1" d="M2620,259a16,16,0,1,1,16-16A16,16,0,0,1,2620,259Zm3.76-17.891a3.21,3.21,0,0,0,.45-1.68,3.89,3.89,0,0,0-.41-1.9,3.106,3.106,0,0,0-1.14-1.21,4.859,4.859,0,0,0-1.73-.63,12.245,12.245,0,0,0-2.18-.18c-0.3,0-.61.013-0.92,0.04s-0.62.06-.9,0.1-0.55.083-.79,0.13a4.428,4.428,0,0,0-.58.15v3a9.573,9.573,0,0,1,1.23-.28,8.366,8.366,0,0,1,2.23-.08,2.61,2.61,0,0,1,.7.16,1.009,1.009,0,0,1,.46.35,0.962,0.962,0,0,1,.18.61,1.173,1.173,0,0,1-.23.77,1.245,1.245,0,0,1-.59.4,2.935,2.935,0,0,1-.88.15c-0.34.013-.7,0.02-1.1,0.02h-1.03v2.86h1.04c0.44,0,.85.016,1.21,0.05a3.5,3.5,0,0,1,.92.2,1.431,1.431,0,0,1,.61.41,1,1,0,0,1,.23.68,1.358,1.358,0,0,1-.2.77,1.278,1.278,0,0,1-.56.44,2.774,2.774,0,0,1-.8.2,9.117,9.117,0,0,1-.97.05,10.893,10.893,0,0,1-1.46-.09c-0.44-.06-0.91-0.143-1.42-0.25v3.18a11.645,11.645,0,0,0,1.41.2c0.5,0.04,1.1.06,1.78,0.06a14.494,14.494,0,0,0,2.66-.22,5.755,5.755,0,0,0,1.96-.72,3.308,3.308,0,0,0,1.21-1.29,3.953,3.953,0,0,0,.43-1.93,3.425,3.425,0,0,0-.65-2.08,2.9,2.9,0,0,0-1.78-1.14v-0.12A2.761,2.761,0,0,0,2623.76,241.109Z" transform="translate(-2604 -227)"/>
</svg>
