<svg xmlns="http://www.w3.org/2000/svg" width="20" height="20" viewBox="0 0 20 20">
  <defs>
    <style>
      .cls-1 {
        fill: #888;
        fill-rule: evenodd;
      }
    </style>
  </defs>
  <path id="icon-off" class="cls-1" d="M2660,150a10,10,0,1,0,10,10v-0.014A10,10,0,0,0,2660,150Zm4.28,12.981a0.934,0.934,0,1,1-1.24,1.4,0.153,0.153,0,0,1-.04-0.041l-3-3.049-3,2.981a0.952,0.952,0,0,1-1.35,0,0.966,0.966,0,0,1,0-1.355l2.98-3-2.98-2.98a0.967,0.967,0,0,1,0-1.356,0.952,0.952,0,0,1,1.35,0l3,3.117,3-2.994a0.933,0.933,0,0,1,1.28,1.355l-2.98,2.981Z" transform="translate(-2650 -150)"/>
</svg>
