<svg xmlns="http://www.w3.org/2000/svg" width="12" height="12" viewBox="0 0 12 12">
  <defs>
    <style>
      .cls-1 {
        fill: #00afff;
        fill-rule: evenodd;
      }
    </style>
  </defs>
  <path id="icon-jianjie" class="cls-1" d="M129.034,674.042a0.776,0.776,0,0,0-.992.535,0.84,0.84,0,0,0-.038.268v8.7a0.817,0.817,0,0,0,.528.792l4.482,1.649a0.363,0.363,0,0,0,.46-0.258,0.436,0.436,0,0,0,.017-0.113v-9.365a0.837,0.837,0,0,0-.505-0.765Zm10.636,0.113a0.738,0.738,0,0,0-.7-0.113l-3.958,1.444a0.837,0.837,0,0,0-.506.765v9.359a0.407,0.407,0,0,0,.151.319,0.346,0.346,0,0,0,.33.052l4.485-1.649a0.821,0.821,0,0,0,.529-0.791h0v-8.712a0.868,0.868,0,0,0-.33-0.675h0Z" transform="translate(-128 -674)"/>
</svg>
