<svg xmlns="http://www.w3.org/2000/svg" width="12" height="12" viewBox="0 0 12 12">
  <defs>
    <style>
      .cls-1 {
        fill: #00afff;
        fill-rule: evenodd;
      }
    </style>
  </defs>
  <path id="icon-qr" class="cls-1" d="M139.075,503.426h-3.56a0.924,0.924,0,0,1-.925-0.929v-3.569a0.924,0.924,0,0,1,.925-0.928h3.551a0.939,0.939,0,0,1,.935.928V502.5A0.925,0.925,0,0,1,139.075,503.426ZM132.485,510h-3.559a0.924,0.924,0,0,1-.925-0.928V505.5a0.924,0.924,0,0,1,.925-0.928h3.551a0.92,0.92,0,0,1,.933.928v3.57A0.924,0.924,0,0,1,132.485,510Zm0-6.565h-3.559a0.924,0.924,0,0,1-.925-0.928v-3.57a0.924,0.924,0,0,1,.925-0.928h3.551a0.942,0.942,0,0,1,.933.928v3.57A0.924,0.924,0,0,1,132.485,503.434Zm2.845,1.139a0.436,0.436,0,0,1,.438.439v4.54a0.444,0.444,0,0,1-.438.447,0.436,0.436,0,0,1-.438-0.439v-4.548A0.436,0.436,0,0,1,135.33,504.573Zm1.927,0.017a0.425,0.425,0,0,1,.422.422v1.367a0.417,0.417,0,0,1-.422.413,0.408,0.408,0,0,1-.413-0.413v-1.367A0.41,0.41,0,0,1,137.257,504.59Zm0,2.886a0.419,0.419,0,0,1,.422.422v1.687a0.417,0.417,0,0,1-.422.414,0.409,0.409,0,0,1-.413-0.414V507.9A0.41,0.41,0,0,1,137.257,507.476Zm1.944-2.9a0.434,0.434,0,0,1,.436.439v4.54a0.437,0.437,0,1,1-.874.008v-4.548A0.435,0.435,0,0,1,139.2,504.573Z" transform="translate(-128 -498)"/>
</svg>
