<svg xmlns="http://www.w3.org/2000/svg" width="32" height="32" viewBox="0 0 32 32">
  <defs>
    <style>
      .cls-1 {
        fill: #00afff;
        fill-rule: evenodd;
      }
    </style>
  </defs>
  <path id="icon-2" class="cls-1" d="M2500,259a16,16,0,1,1,16-16A16,16,0,0,1,2500,259Zm5.44-12.057h-5.22v-0.12l0.96-.76a25.005,25.005,0,0,0,2.22-1.93,8.482,8.482,0,0,0,1.24-1.52,3.989,3.989,0,0,0,.54-1.34,7.893,7.893,0,0,0,.12-1.43,3.406,3.406,0,0,0-1.34-2.9,6.255,6.255,0,0,0-3.8-1,14.474,14.474,0,0,0-2.16.16,9.554,9.554,0,0,0-1.92.48v3.1a10.008,10.008,0,0,1,1.75-.5,8.59,8.59,0,0,1,1.49-.14,2.493,2.493,0,0,1,1.61.37,1.573,1.573,0,0,1,.41,1.21,2,2,0,0,1-.36,1.05,7.528,7.528,0,0,1-1.11,1.3c-0.5.487-1.13,1.05-1.88,1.69s-1.64,1.38-2.67,2.22v3.14h10.12v-3.08Z" transform="translate(-2484 -227)"/>
</svg>
