<svg xmlns="http://www.w3.org/2000/svg" width="12" height="12" viewBox="0 0 12 12">
  <defs>
    <style>
      .cls-1 {
        fill: #fff;
        fill-rule: evenodd;
      }
    </style>
  </defs>
  <path id="icon-mail-white" class="cls-1" d="M134,1300l6,4.1H128Zm6,10.65a1.235,1.235,0,0,1-1.075,1.35h-9.852a1.233,1.233,0,0,1-1.072-1.35v-6.34a1.53,1.53,0,0,1,.016-0.2l5.664,3.62a0.021,0.021,0,0,0,.02.01c0.006,0.01.016,0.01,0.021,0.02a0.623,0.623,0,0,0,.125.06h0.015a0.341,0.341,0,0,0,.139.03,0.361,0.361,0,0,0,.141-0.03h0.012a0.672,0.672,0,0,0,.124-0.06c0.008-.01.015-0.01,0.022-0.02a0.021,0.021,0,0,0,.021-0.01l5.662-3.63a1.239,1.239,0,0,1,.017.21v6.34h0Z" transform="translate(-128 -1300)"/>
</svg>
