<svg xmlns="http://www.w3.org/2000/svg" width="16" height="14" viewBox="0 0 16 14">
  <defs>
    <style>
      .cls-1 {
        fill: #00afff;
        fill-rule: evenodd;
      }
    </style>
  </defs>
  <path id="icon-wechat" class="cls-1" d="M140.028,433.5l0.428,1.5-1.513-.89a6.335,6.335,0,0,1-1.656.307,4.346,4.346,0,1,1,0-8.66A4.607,4.607,0,0,1,142,430.09,4.41,4.41,0,0,1,140.028,433.5Zm-4.257-5.312a0.585,0.585,0,0,0,0,1.167,0.659,0.659,0,0,0,.686-0.584A0.64,0.64,0,0,0,135.771,428.186Zm3.03,0a0.585,0.585,0,0,0,0,1.167,0.619,0.619,0,0,0,.684-0.584A0.638,0.638,0,0,0,138.8,428.186Zm-6.831,1.9a4.578,4.578,0,0,0,.173,1.259,2.884,2.884,0,0,1-.516.031,9.065,9.065,0,0,1-1.97-.307l-1.971,1.074,0.571-1.842A5.149,5.149,0,0,1,126,426.19a5.431,5.431,0,0,1,5.657-5.19,5.714,5.714,0,0,1,5.715,4.269,3.209,3.209,0,0,0-.545-0.031A4.9,4.9,0,0,0,131.97,430.09Zm-2.142-6.51a0.772,0.772,0,1,0,0,1.535A0.77,0.77,0,0,0,129.828,423.58Zm3.943,0.03a0.861,0.861,0,0,0-.858.768,0.821,0.821,0,0,0,.858.768A0.77,0.77,0,0,0,133.771,423.61Z" transform="translate(-126 -421)"/>
</svg>
