<svg t="1624007508810" class="icon" viewBox="0 0 1024 1024" version="1.1" xmlns="http://www.w3.org/2000/svg" p-id="6277" width="14" height="14"><path d="M250.092308 38.203077C305.427692 27.490462 343.433846 57.895385 382.030769 116.775385l2.953846 4.52923 28.75077 46.08c32.492308 53.76 44.701538 93.656615 33.004307 142.178462l-1.732923 5.395692a166.872615 166.872615 0 0 1-67.229538 79.832616l-6.931693 4.489846a103.739077 103.739077 0 0 0-32.17723 36.942769l3.308307-5.828923-0.275692 9.570461c0.236308 17.329231 4.726154 34.343385 12.996923 49.545847l4.489846 7.443692 4.529231 6.301538 2.284308 3.387077a581.080615 581.080615 0 0 0 121.462154 140.87877c33.870769 27.923692 52.302769 37.848615 65.417846 35.170461 10.476308-2.166154 18.628923-8.664615 37.415384-29.459692l8.704-9.609846c28.475077-30.562462 48.521846-44.386462 82.707693-49.664 51.751385-7.995077 90.151385 10.436923 136.152615 50.806153 3.702154 3.268923 17.959385 16.147692 21.661539 19.298462l20.755692 17.880615 13.233231 11.776c38.793846 35.84 58.368 67.741538 55.138461 110.276923l-0.787692 5.19877a133.238154 133.238154 0 0 1-57.580308 83.88923l3.544616-2.56-10.633847 10.436924a665.6 665.6 0 0 1-13.74523 12.603076l-14.099693 12.209231-14.414769 11.815385-3.308308 2.363077a306.412308 306.412308 0 0 1-182.902153 47.734154 370.766769 370.766769 0 0 1-170.141539-52.105847 838.852923 838.852923 0 0 1-225.910154-192.905846 814.473846 814.473846 0 0 1-160.059077-263.60123 365.725538 365.725538 0 0 1 51.2-351.31077l3.111385-3.623384c14.966154-15.36 30.956308-29.853538 47.773538-43.244308l-2.56 2.087385 3.702154-3.938462c8.664615-8.861538 18.392615-16.659692 29.144616-23.315692l7.246769-4.214154v-7.089231z m374.626461 163.524923a335.005538 335.005538 0 0 1 134.025846 87.945846 337.014154 337.014154 0 0 1 69.553231 136.034462 39.384615 39.384615 0 0 1-76.406154 19.062154 256.984615 256.984615 0 0 0-51.948307-102.715077A254.779077 254.779077 0 0 0 598.646154 276.086154a39.384615 39.384615 0 1 1 26.072615-74.358154z m38.203077-160.374154a551.384615 551.384615 0 0 1 199.089231 115.869539l12.130461 11.342769 4.292924 4.844308a596.873846 596.873846 0 0 1 99.485538 209.289846 39.384615 39.384615 0 0 1-76.327385 19.37723 518.104615 518.104615 0 0 0-76.524307-167.936l-7.955693-11.027692-9.688615-9.058461a472.615385 472.615385 0 0 0-153.481846-92.475077l-15.517539-5.395693a39.384615 39.384615 0 1 1 24.497231-74.830769z" fill="#00afff" p-id="6278"></path></svg>