<svg xmlns="http://www.w3.org/2000/svg" width="24" height="20" viewBox="0 0 24 20">
  <defs>
    <style>
      .cls-1 {
        fill: #00afff;
        fill-rule: evenodd;
      }
    </style>
  </defs>
  <path id="icon-hz" class="cls-1" d="M191.234,1071.92l-0.63.62-9.235-9.15,0.634-.63a2.628,2.628,0,0,1,3.692,0l5.539,5.49A2.585,2.585,0,0,1,191.234,1071.92Zm-11.274-7.13,9.236,9.15-2.858,2.83c-0.017-.03-0.034-0.05-0.053-0.08l-6.635-6.61a0.64,0.64,0,0,0-.905-0.01s0,0-.007.01a0.642,0.642,0,0,0,0,.91l6.635,6.61a0.277,0.277,0,0,0,.076.05l-1.853,1.84a0.583,0.583,0,0,0-.048-0.07l-6.635-6.61a0.64,0.64,0,0,0-.905-0.01s0,0-.007.01a0.642,0.642,0,0,0,0,.91l6.635,6.61c0.021,0.02.044,0.03,0.067,0.05l-0.394.39h0l-0.476.47a2.589,2.589,0,0,1-3.637.02c0-.01-0.008-0.01-0.012-0.02l-9.428-9.39a2.569,2.569,0,0,1,0-3.64l5.472-5.46a2.589,2.589,0,0,1,3.637-.01,0.011,0.011,0,0,0,.012.01l2.061,2.06Z" transform="translate(-168 -1062)"/>
</svg>
