<svg xmlns="http://www.w3.org/2000/svg" width="30" height="30" viewBox="0 0 30 30">
  <defs>
    <style>
      .cls-1 {
        fill: #00afff;
        fill-rule: evenodd;
      }
    </style>
  </defs>
  <path id="icon-tuandui" class="cls-1" d="M177.379,2493.25a1.708,1.708,0,0,0,.115.13c-0.015-.06-0.015-0.11-0.032-0.19l-0.084.06h0Zm0.1,0c-0.032-.01-0.082-0.03-0.117-0.04,0.067,0.21.253,0.27,0.119,0.04h0Zm9.146,1.76a7.982,7.982,0,0,0-1.614-13.93v0.21a10.508,10.508,0,0,0-20.007,0v-0.21a7.981,7.981,0,0,0-1.616,13.93,15.39,15.39,0,0,0-2.808,7.58,1,1,0,1,0,1.843.79,0.986,0.986,0,0,0,.08-0.4h0.052c0.122-3.96,3.182-7.15,3.42-8.01s-0.971-1.3-.971-1.3a5.969,5.969,0,0,1-.456-10.07c-0.027.3-.042,0.59-0.044,0.89a10.463,10.463,0,0,0,5.232,9.06,15.865,15.865,0,0,0-2.73,8.93c0,0.13,0,.27.009,0.4a0.844,0.844,0,0,0-.009.1,1,1,0,0,0,2,0h0.026c-0.007-.17-0.026-0.33-0.026-0.5,0.953-6.92,2.457-7.19,3.441-8.86a0.99,0.99,0,0,0-.584-1.17l0.053-.05a8.5,8.5,0,1,1,6.234-.02,1.066,1.066,0,0,0-.64,1.11l0.016-.02,0.008,0.05c0.833,1.97,2.52,2.37,3.449,9.46h0.027a1,1,0,0,0,2,0c0-.03-0.006-0.06-0.01-0.1,0-.13.01-0.26,0.01-0.4a15.907,15.907,0,0,0-2.725-8.92,10.469,10.469,0,0,0,5.226-9.07c0-.3-0.019-0.59-0.044-0.88a5.96,5.96,0,0,1,1.465,8.31,5.862,5.862,0,0,1-1.921,1.75s-1.465.62-.971,1.3c1.618,1.2,3.472,6.05,3.472,8.01a1.051,1.051,0,0,0,1,1,1,1,0,0,0,1-1.01,0.958,0.958,0,0,0-.074-0.37,15.439,15.439,0,0,0-2.806-7.59h0Zm-6.9-7.03c0.354-1.06-1.317-1.51-1.672-.46-0.814,2.43-5.279,2.43-6.1,0-0.352-1.05-2.026-.6-1.67.46,1.375,4.1,8.062,4.1,9.439,0h0Z" transform="translate(-160 -2474)"/>
</svg>
