<svg xmlns="http://www.w3.org/2000/svg" width="40" height="40" viewBox="0 0 40 40">
  <defs>
    <style>
      .cls-1 {
        fill: #00afff;
        fill-rule: evenodd;
      }
    </style>
  </defs>
  <path id="icon-huoban" class="cls-1" d="M108,2348H92a12,12,0,0,1-12-12v-16a12,12,0,0,1,12-12h16a12,12,0,0,1,12,12v16A12,12,0,0,1,108,2348Zm1.34-27.39v0.2a9.806,9.806,0,0,0-18.673,0v-0.2a7.448,7.448,0,0,0-1.509,13,14.372,14.372,0,0,0-2.621,7.08,0.934,0.934,0,0,0,1.719.73,0.941,0.941,0,0,0,.075-0.37h0.048c0.114-3.7,2.971-6.67,3.192-7.48s-0.906-1.21-.906-1.21a5.57,5.57,0,0,1-.426-9.4c-0.026.28-.039,0.55-0.041,0.83a9.751,9.751,0,0,0,4.883,8.45,14.859,14.859,0,0,0-2.549,8.34c0,0.13.006,0.25,0.009,0.37a0.93,0.93,0,0,0,1.857.1h0.025c-0.007-.16-0.025-0.31-0.025-0.47,0.89-6.46,2.294-6.7,3.212-8.27a0.917,0.917,0,0,0-.545-1.09l0.05-.05a7.927,7.927,0,1,1,5.819-.01,0.926,0.926,0,0,0-.593.89,0.167,0.167,0,0,0-.031-0.08h0s0-.01,0-0.01,0-.03-0.009-0.05l-0.046.03a0.1,0.1,0,0,1-.05-0.02,0.123,0.123,0,0,0,.02.04l0,0.01h0c0.043,0.09.1,0.14,0.119,0.12,0,0.03,0,.07,0,0.1l0.014-.02,0.007,0.05c0.777,1.84,2.352,2.21,3.219,8.83H105.6a0.934,0.934,0,0,0,1.866,0,0.686,0.686,0,0,0-.009-0.09c0-.13.009-0.25,0.009-0.38a14.839,14.839,0,0,0-2.543-8.32,9.781,9.781,0,0,0,4.877-8.47c0-.27-0.017-0.55-0.04-0.82a5.568,5.568,0,0,1,1.368,7.76,5.489,5.489,0,0,1-1.794,1.63s-1.367.58-.906,1.21c1.51,1.12,3.241,5.65,3.241,7.48a0.975,0.975,0,0,0,.932.93,0.935,0.935,0,0,0,.862-1.29,14.383,14.383,0,0,0-2.618-7.08h0A7.449,7.449,0,0,0,109.34,2320.61Zm-4.931,6.44h0c0.33-.99-1.23-1.41-1.561-0.43-0.759,2.27-4.928,2.27-5.691,0-0.329-.99-1.891-0.57-1.558.43C96.882,2330.87,103.123,2330.87,104.409,2327.05Z" transform="translate(-80 -2308)"/>
</svg>
