<svg xmlns="http://www.w3.org/2000/svg" width="40" height="40" viewBox="0 0 40 40">
  <defs>
    <style>
      .cls-1 {
        fill: #00afff;
        fill-rule: evenodd;
      }
    </style>
  </defs>
  <path id="icon-hexin" class="cls-1" d="M108,700H92a12,12,0,0,1-12-12V672a12,12,0,0,1,12-12h16a12,12,0,0,1,12,12v16A12,12,0,0,1,108,700Zm4.662-15.308-0.117-.04v-9a2.014,2.014,0,0,0-1.051-1.746l-8.181-4.529,0.039-.127a3.228,3.228,0,0,0-1.044-3.441,3.569,3.569,0,0,0-3.7-.517,3.3,3.3,0,0,0-2.027,3.013,3.191,3.191,0,0,0,.134.908l0.04,0.127L88.507,673.9a2.006,2.006,0,0,0-1.054,1.745v9l-0.118.04a3.335,3.335,0,0,0-2.343,2.92,3.29,3.29,0,0,0,1.922,3.19,3.572,3.572,0,0,0,3.809-.487l0.094-.08,8.132,4.5a2.181,2.181,0,0,0,2.1,0l8.125-4.5,0.095,0.081a3.578,3.578,0,0,0,3.808.483A3.289,3.289,0,0,0,115,687.612,3.336,3.336,0,0,0,112.662,684.692Zm-1.106,4.548a1.418,1.418,0,1,1,0-2.834h0.006A1.418,1.418,0,1,1,111.556,689.24Zm-2.278-3.906-0.094.08-2.895-1.6V678.5a0.945,0.945,0,0,0-.5-0.825l-4.8-2.653v-3.528l0.121-.037a3.54,3.54,0,0,0,.953-0.469l0.092-.062,8.412,4.654v9.071l-0.117.037A3.471,3.471,0,0,0,109.278,685.334ZM100.6,669.61a1.525,1.525,0,0,1-1.612-.307,1.377,1.377,0,0,1-.32-1.544,1.482,1.482,0,0,1,1.368-.874,1.453,1.453,0,0,1,1.478,1.414A1.423,1.423,0,0,1,100.6,669.61Zm-1.592,1.86v3.546l-4.8,2.66a0.944,0.944,0,0,0-.493.819v5.313l-2.894,1.6-0.094-.081a3.487,3.487,0,0,0-1.172-.647l-0.118-.038v-9.064l8.455-4.675,0.091,0.065a3.443,3.443,0,0,0,.911.462Zm-9.085,16.353a1.48,1.48,0,1,1-1.482-1.417h0.007A1.447,1.447,0,0,1,89.927,687.823Zm5.769-4.012v-4.764l4.3-2.384,4.3,2.384v4.764L100,686.2Zm-3.883,3.243,2.894-1.606,4.8,2.66a1.04,1.04,0,0,0,.493.124,1.02,1.02,0,0,0,.5-0.127l4.8-2.647,2.891,1.6-0.026.118a3.125,3.125,0,0,0,0,1.3l0.026,0.118L100,693.121l-8.188-4.532,0.026-.115a3.125,3.125,0,0,0,0-1.3Z" transform="translate(-80 -660)"/>
</svg>
