<svg xmlns="http://www.w3.org/2000/svg" width="24" height="24" viewBox="0 0 24 24">
  <defs>
    <style>
      .cls-1 {
        fill: #00afff;
        fill-rule: evenodd;
      }
    </style>
  </defs>
  <path id="icon-liucheng-blue" class="cls-1" d="M5680,140a12,12,0,1,0,12,12A12,12,0,0,0,5680,140Zm3.45,5.684a7.192,7.192,0,0,1,3.69,5.93,3.414,3.414,0,0,0-1.5-.457,5.753,5.753,0,0,0-2.41-3.9,3.585,3.585,0,0,0,.23-1.255A1.7,1.7,0,0,0,5683.45,145.684Zm-3.47-2.084a2.493,2.493,0,1,1-2.5,2.493,2.5,2.5,0,0,1,2.5-2.493h0Zm-3.49,2.086a3.523,3.523,0,0,0,.22,1.575,5.72,5.72,0,0,0-2.41,3.9,3.438,3.438,0,0,0-1.5.487,7.193,7.193,0,0,1,3.69-5.964h0Zm-4.29,8.935a2.5,2.5,0,1,1,2.49,2.5A2.488,2.488,0,0,1,5672.2,154.621Zm7.77,4.579a7.142,7.142,0,0,1-4.09-1.287,3.563,3.563,0,0,0,1.3-.9,5.709,5.709,0,0,0,5.62-.023,3.606,3.606,0,0,0,1.29.907A7.157,7.157,0,0,1,5679.97,159.2Zm5.34-2.078a2.5,2.5,0,1,1,2.49-2.509v0.008A2.5,2.5,0,0,1,5685.31,157.122Z" transform="translate(-5668 -140)"/>
</svg>
