<?xml version="1.0" standalone="no"?><!DOCTYPE svg PUBLIC "-//W3C//DTD SVG 1.1//EN" "http://www.w3.org/Graphics/SVG/1.1/DTD/svg11.dtd"><svg t="1613613097976" class="icon" viewBox="0 0 1024 1024" version="1.1" xmlns="http://www.w3.org/2000/svg" p-id="1198" xmlns:xlink="http://www.w3.org/1999/xlink" width="200" height="200"><defs><style type="text/css"></style></defs><path d="M854.308571 24.380952h-682.666666c-80.457143 0-146.285714 65.828571-146.285715 146.285715v682.666666c0 80.457143 65.828571 146.285714 146.285715 146.285715h682.666666c80.457143 0 146.285714-65.828571 146.285715-146.285715V170.666667c0-80.457143-65.828571-146.285714-146.285715-146.285715z m-362.300952 196.022858c0-12.190476 10.24-22.430476 22.430476-22.430477s22.430476 10.24 22.430476 22.430477v50.71238c0 12.190476-10.24 22.430476-22.430476 22.430477s-22.430476-10.24-22.430476-22.430477V220.40381z m-206.262857 298.910476H235.032381c-12.190476 0-22.430476-10.24-22.430476-22.430476 0-12.190476 10.24-22.430476 22.430476-22.430477h50.712381c12.190476 0 22.430476 10.24 22.430476 22.430477-0.487619 12.190476-10.24 22.430476-22.430476 22.430476z m16.091428-203.337143c-8.289524-8.289524-8.289524-22.430476 0-30.232381 8.289524-8.289524 22.430476-8.289524 30.232381 0l36.571429 36.571428c8.289524 8.289524 8.289524 22.430476 0 30.232381-3.900952 3.900952-10.24 6.339048-16.091429 6.339048-5.851429 0-10.24-1.950476-16.091428-6.339048 1.950476 0-34.620952-36.571429-34.620953-36.571428z m260.876191 509.561905H463.725714c-12.190476 0-22.430476-10.24-22.430476-22.430477 0-12.190476 10.24-22.430476 22.430476-22.430476h98.986667c12.190476 0 22.430476 10.24 22.430476 22.430476-0.487619 12.678095-10.24 22.430476-22.430476 22.430477z m21.942857-80.944762h-141.409524c-12.190476 0-22.430476-10.24-22.430476-22.430476s10.24-22.430476 22.430476-22.430477h141.409524c12.190476 0 22.430476 10.24 22.430476 22.430477s-10.24 22.430476-22.430476 22.430476z m-70.704762-73.142857c-95.085714 0-173.592381-77.04381-173.592381-174.567619 0-97.52381 76.55619-174.567619 173.592381-174.56762 97.03619 0 173.592381 77.04381 173.592381 174.56762 0.487619 95.085714-78.506667 174.567619-173.592381 174.567619z m161.889524-313.051429c-5.851429 0-10.24-1.950476-16.091429-6.339048-8.289524-8.289524-8.289524-22.430476 0-30.232381l36.571429-36.571428c8.289524-8.289524 22.430476-8.289524 30.232381 0 8.289524 8.289524 8.289524 22.430476 0 30.232381l-36.571429 36.571428c-3.900952 4.388571-10.24 6.339048-14.140952 6.339048z m115.078095 160.914286h-50.712381c-12.190476 0-22.430476-10.24-22.430476-22.430476 0-12.190476 10.24-22.430476 22.430476-22.430477h50.712381c12.190476 0 22.430476 10.24 22.430476 22.430477 0 12.190476-10.24 22.430476-22.430476 22.430476z" p-id="1199" fill="#00afff"></path></svg>