<svg xmlns="http://www.w3.org/2000/svg" width="20" height="20" viewBox="0 0 20 20">
  <defs>
    <style>
      .cls-1 {
        fill: #00afff;
        fill-rule: evenodd;
      }
    </style>
  </defs>
  <path id="icon-cz" class="cls-1" d="M171.458,909.584a22.123,22.123,0,0,1,8.563,9.9,21.9,21.9,0,0,1,8.523-9.856,14.4,14.4,0,0,1,.243,12.1c-1.536,3.055-5.171,4.277-8.4,4.277-3.433.122-7.392-.9-9.088-4.155A14.464,14.464,0,0,1,171.458,909.584ZM180.223,906s2.262,1.507,2.262,3.747-2.262,4.887-2.262,4.887-2.706-1.833-2.706-4.561S180.224,906,180.224,906h0Z" transform="translate(-170 -906)"/>
</svg>
