<svg xmlns="http://www.w3.org/2000/svg" width="22" height="19.97" viewBox="0 0 22 19.97">
  <defs>
    <style>
      .cls-1 {
        fill: #00afff;
        fill-rule: evenodd;
      }
    </style>
  </defs>
  <path id="icon-gp" class="cls-1" d="M182.423,1132.39h-4.68c-0.956,0-1.733.36-1.733,0.8s0.777,0.81,1.733.81h4.68c0.956,0,1.733-.36,1.733-0.81S183.379,1132.39,182.423,1132.39Zm8.091-8.19-3.437-5.83h1.643v-1.02h-7.156a0.8,0.8,0,0,0,.324-0.62,0.776,0.776,0,0,0-.763-0.8h-0.317a1.084,1.084,0,0,0,.095-1.54,1.115,1.115,0,0,0-1.552-.09,1.073,1.073,0,0,0-.095,1.53,0.6,0.6,0,0,0,.095.1h-0.309a0.777,0.777,0,0,0-.763.8h0a0.808,0.808,0,0,0,.323.64h-7.19v1.01h1.478l-3.41,5.82H169a4.054,4.054,0,0,0,8.063,0h-0.5l-3.437-5.83h6.043v12.03h-0.791a0.921,0.921,0,1,0,0,1.71h3.437a1.129,1.129,0,0,0,1.265-.85,1.118,1.118,0,0,0-1.265-.86h-0.866v-12.02h5.87l-3.382,5.82h-0.481a4.056,4.056,0,0,0,8.042,0h-0.481Z" transform="translate(-169 -1114.03)"/>
</svg>
