<svg xmlns="http://www.w3.org/2000/svg" width="18" height="20" viewBox="0 0 18 20">
  <defs>
    <style>
      .cls-1 {
        fill: #00afff;
        fill-rule: evenodd;
      }
    </style>
  </defs>
  <path id="icon-cx" class="cls-1" d="M188.68,970.019C188.052,974.565,180,978,180,978s-8.051-3.436-8.679-7.982a50.867,50.867,0,0,1-.1-10,12.962,12.962,0,0,0,4.6,0A12.442,12.442,0,0,0,180,957.993a12.44,12.44,0,0,0,4.185,2.021,12.992,12.992,0,0,0,4.6,0A50.994,50.994,0,0,1,188.68,970.019Zm-5.381-2.351c0.181-.177.361-0.355,0.556-0.568-0.184-.027-0.343-0.055-0.5-0.078-0.195-.028-0.391-0.05-0.586-0.079-0.222-.031-0.449-0.075-0.67-0.106-0.263-.039-0.524-0.075-0.784-0.111a0.2,0.2,0,0,1-.174-0.129c-0.269-.576-0.546-1.142-0.822-1.713-0.107-.212-0.213-0.424-0.317-0.638l-0.015.024-0.558,1.153c-0.2.413-.4,0.831-0.6,1.245a0.108,0.108,0,0,1-.047.044,1.071,1.071,0,0,1-.14.018c-0.148.025-.295,0.044-0.445,0.068-0.195.031-.39,0.062-0.585,0.09s-0.38.055-.57,0.082-0.394.06-.591,0.092l-0.3.047a0.369,0.369,0,0,0,.058.066c0.176,0.174.347,0.347,0.524,0.521l0.581,0.577c0.239,0.241.473,0.477,0.71,0.713a0.1,0.1,0,0,1,.031.114,1.232,1.232,0,0,0-.035.209l-0.124.775c-0.048.281-.1,0.563-0.149,0.847-0.046.268-.085,0.535-0.133,0.816,0.077-.041.142-0.079,0.207-0.114,0.281-.154.563-0.3,0.843-0.453l1.285-.689a0.093,0.093,0,0,1,.1,0c0.261,0.145.519,0.288,0.78,0.425s0.523,0.279.785,0.417c0.117,0.067.234,0.133,0.355,0.2s0.269,0.145.415,0.22c-0.017-.082-0.032-0.157-0.044-0.232l-0.124-.783c-0.044-.253-0.09-0.5-0.133-0.757s-0.09-.535-0.137-0.8a0.2,0.2,0,0,1,.07-0.227,1.14,1.14,0,0,0,.142-0.127l1.095-1.107c0.019-.014.035-0.031,0.052-0.046h0Z" transform="translate(-171 -958)"/>
</svg>
