<svg xmlns="http://www.w3.org/2000/svg" width="30" height="30" viewBox="0 0 30 30">
  <defs>
    <style>
      .cls-1 {
        fill: #00afff;
        fill-rule: evenodd;
      }
    </style>
  </defs>
  <path id="icon-gongsi" class="cls-1" d="M185.8,687.516v-9.885l-6.6-4.393v14.278H179.8a1.244,1.244,0,0,1,0,2.486H161.206a1.244,1.244,0,0,1,0-2.486H161.8v-20.85a2.477,2.477,0,0,1,1.67-2.368l12.6-4.167a2.384,2.384,0,0,1,3.014,1.6,0.032,0.032,0,0,0,0,.009,2.569,2.569,0,0,1,.113.756v7.894l0.049-.078,7.849,5.225a2.51,2.51,0,0,1,1.1,2.091v9.885H188.8a1.244,1.244,0,0,1,0,2.486h-5.39a1.244,1.244,0,0,1,0-2.486h2.4Zm-9,0V662.5l-12.6,4.167v20.85h12.6Zm-9.6-17.4a1.225,1.225,0,0,1,1.206-1.243h4.188a1.244,1.244,0,0,1,0,2.486h-4.188a1.225,1.225,0,0,1-1.206-1.243h0Zm0,5.592a1.225,1.225,0,0,1,1.206-1.243h4.188a1.244,1.244,0,0,1,0,2.486h-4.188a1.225,1.225,0,0,1-1.206-1.243h0Zm0,5.592a1.225,1.225,0,0,1,1.206-1.243h4.188a1.244,1.244,0,0,1,0,2.487h-4.188A1.225,1.225,0,0,1,167.2,681.3h0Zm13.2,0a1.225,1.225,0,0,1,1.2-1.243h1.189a1.244,1.244,0,0,1,0,2.487h-1.189a1.225,1.225,0,0,1-1.2-1.243h0Z" transform="translate(-160 -660)"/>
</svg>
