<svg xmlns="http://www.w3.org/2000/svg" width="16" height="16" viewBox="0 0 16 16">
  <defs>
    <style>
      .cls-1 {
        fill: #00afff;
        fill-rule: evenodd;
      }
    </style>
  </defs>
  <path id="icon-phone" class="cls-1" d="M7546.1,913.089a1.654,1.654,0,0,0,.11-2.25l-1.75-2.2a1.668,1.668,0,0,0-2.35-.282,0.2,0.2,0,0,0-.1.1l-1.54,1.535c-1.46,1.458.61,5.4,4.4,9.184,3.77,3.76,7.64,5.78,9.12,4.373l1.51-1.509a1.628,1.628,0,0,0,0-2.353l-0.1-.1-2.2-1.739a1.669,1.669,0,0,0-2.26.1l-0.94.946a14.945,14.945,0,0,1-2.72-2.072,13.77,13.77,0,0,1-2.07-2.711Z" transform="translate(-7540 -908)"/>
</svg>
