<svg xmlns="http://www.w3.org/2000/svg" width="30" height="30" viewBox="0 0 30 30">
  <defs>
    <style>
      .cls-1 {
        fill: #00afff;
        fill-rule: evenodd;
      }
    </style>
  </defs>
  <path id="icon-jiazhi" class="cls-1" d="M188.729,1365.05a0.263,0.263,0,0,0,.022-0.07,14.907,14.907,0,0,0,.9-9.18,1.082,1.082,0,0,0-.024-0.11,15.046,15.046,0,0,0-12.053-11.47,0.487,0.487,0,0,1-.116-0.02A15.278,15.278,0,0,0,175,1344a15.025,15.025,0,0,0-14.627,11.69c-0.009.04-.018,0.08-0.026,0.11A14.977,14.977,0,0,0,160,1359q0,0.315.013,0.63a1.1,1.1,0,0,0,1.138,1.05,1.086,1.086,0,0,0,1.046-1.14c-0.009-.18-0.01-0.36-0.01-0.54a13.129,13.129,0,0,1,.144-1.93h4.085c0,0.21-.013.41-0.013,0.62a1.093,1.093,0,0,0,2.186,0c0-.21.008-0.41,0.015-0.62h5.307v1.74a1.092,1.092,0,0,0,2.184,0v-1.74H181.4c0.007,0.21.014,0.41,0.014,0.62a19.971,19.971,0,0,1-.7,5.37,1.1,1.1,0,0,0,.762,1.35,0.98,0.98,0,0,0,.292.04,1.1,1.1,0,0,0,1.054-.8,22.4,22.4,0,0,0,.781-5.96c0-.21-0.009-0.41-0.014-0.62h4.085a13.129,13.129,0,0,1,.143,1.93,12.78,12.78,0,0,1-1.067,5.11c-0.317.45-2.286,2.96-6.834,3.33-0.6.05-1.15,0.07-1.665,0.07a12.183,12.183,0,0,1-6.467-1.72l2.447-2.61a1.1,1.1,0,0,0,.208-1.19,1.089,1.089,0,0,0-1-.65h-9.89a1.094,1.094,0,0,0-1.093,1.09v9.88a1.1,1.1,0,0,0,.675,1.01,1.077,1.077,0,0,0,1.19-.24l2.462-2.46A12.935,12.935,0,0,0,175,1374h0a14.987,14.987,0,0,0,13.627-8.73,0.239,0.239,0,0,1,.023-0.05c0.024-.06.052-0.11,0.075-0.17m-15.7-18.71c0.288-.04.585-0.08,0.881-0.1v3.53a9.52,9.52,0,0,1-3.192-.91,7.348,7.348,0,0,1,2.311-2.52m3.067-.1a8.339,8.339,0,0,1,.864.1,7.278,7.278,0,0,1,2.318,2.53,9.477,9.477,0,0,1-3.182.9v-3.53Zm-13.226,8.65a12.849,12.849,0,0,1,4.235-5.97,1.1,1.1,0,0,0,.319.43c0.144,0.12.3,0.23,0.451,0.34a19.95,19.95,0,0,0-1.3,5.2h-3.7Zm5.9,0a18.017,18.017,0,0,1,1-4.07,11.9,11.9,0,0,0,4.133,1.15v2.92H168.77Zm7.323,0v-2.92a12.046,12.046,0,0,0,4.121-1.13,18.189,18.189,0,0,1,1.011,4.05h-5.132Zm7.329,0a19.86,19.86,0,0,0-1.31-5.18c0.15-.11.305-0.22,0.45-0.33a1.14,1.14,0,0,0,.332-0.46,12.857,12.857,0,0,1,4.239,5.97h-3.711ZM175,1372.91l0-1.09c-4.239-.01-7.393-3.43-7.423-3.46a1.07,1.07,0,0,0-.784-0.36h-0.028a1.074,1.074,0,0,0-.773.32l-1.355,1.35v-6.14h6.27l-1.607,1.71a1.1,1.1,0,0,0-.29.85,1.08,1.08,0,0,0,.448.78,14.428,14.428,0,0,0,8.791,2.83c0.576,0,1.178-.02,1.842-0.08a13.683,13.683,0,0,0,2.769-.5c-0.232.18-.471,0.36-0.718,0.52-0.035.03-.066,0.06-0.1,0.09a13.337,13.337,0,0,1-7.039,2.09v1.09Z" transform="translate(-160 -1344)"/>
</svg>
