<svg xmlns="http://www.w3.org/2000/svg" width="14" height="16.031" viewBox="0 0 14 16.031">
  <defs>
    <style>
      .cls-1 {
        fill: #00afff;
        fill-rule: evenodd;
      }
    </style>
  </defs>
  <path id="icon-location" class="cls-1" d="M7555,978.617a7.011,7.011,0,0,0-14,0c0,0.122.01,0.229,0.01,0.344,0,0.06-.01.114-0.01,0.167,0,4.088,6.46,8.711,6.46,8.711a0.97,0.97,0,0,0,1.08,0c0.53-.389,6.46-4.623,6.46-8.711,0-.053-0.01-0.107-0.01-0.167C7554.99,978.846,7555,978.739,7555,978.617Zm-7,2.555a2.553,2.553,0,1,1,2.69-2.555A2.624,2.624,0,0,1,7548,981.172Z" transform="translate(-7541 -972)"/>
</svg>
