<svg xmlns="http://www.w3.org/2000/svg" width="22" height="20" viewBox="0 0 22 20">
  <defs>
    <style>
      .cls-1 {
        fill: #00afff;
        fill-rule: evenodd;
      }
    </style>
  </defs>
  <path id="icon-zc" class="cls-1" d="M187.184,1024.64a1.55,1.55,0,1,0,1.551,1.55,1.518,1.518,0,0,0-1.551-1.55m0,5.36a5.032,5.032,0,0,1-.941-0.11h-0.055c-0.277-.11-0.609-0.28-1-0.44-1.661-.72-3.709-1.66-5.2-1.66a8.937,8.937,0,0,0-3.1.78,1.117,1.117,0,0,1,.056-0.11,6.456,6.456,0,0,0,.442-1.05,1.117,1.117,0,0,1,.056-0.11,7.028,7.028,0,0,0,.111-1.16c0.055-.67.166-1.39,0.276-2.1a7,7,0,0,0,2.16.44,15.1,15.1,0,0,0,5.147-1.6q0.49-.24,1-0.45a3.082,3.082,0,0,1,1-.11,3.852,3.852,0,0,1,3.875,3.87,3.756,3.756,0,0,1-3.82,3.81m-12.975-3.19a1.538,1.538,0,1,0-2.1.55,1.5,1.5,0,0,0,2.1-.55m-4.705-2.71a3.741,3.741,0,0,1,.554-0.77v-0.06a7.319,7.319,0,0,0,.83-0.61c1.439-1.05,3.266-2.37,3.985-3.7a9.264,9.264,0,0,0,.887-3.09,1.125,1.125,0,0,1,.055.11,5.933,5.933,0,0,0,.664.94,0.248,0.248,0,0,0,.11.11c0.277,0.22.609,0.44,0.941,0.72,0.5,0.38,1.108.83,1.717,1.27a7.5,7.5,0,0,0-1.44,1.66,14.9,14.9,0,0,0-1.162,5.24c-0.056.39-.056,0.78-0.111,1.05a4.416,4.416,0,0,1-.387.89,3.888,3.888,0,0,1-5.259,1.43,3.794,3.794,0,0,1-1.384-5.19m9.154-9.47a1.538,1.538,0,1,0,.554-2.1,1.512,1.512,0,0,0-.554,2.1m4.705-2.71a4.329,4.329,0,0,1,.388.88v0.06c0.055,0.33.055,0.66,0.111,1.05,0.221,1.77.442,4.03,1.162,5.3a8.713,8.713,0,0,0,2.214,2.32h-0.111a4.244,4.244,0,0,0-1.162.17,0.116,0.116,0,0,0-.111.05c-0.332.11-.664,0.28-1.052,0.44-0.656.3-1.32,0.58-1.992,0.83a7.322,7.322,0,0,0-.72-2.1c-0.719-1.27-2.546-2.59-3.985-3.64a9.852,9.852,0,0,1-.886-0.67,4.089,4.089,0,0,1-.609-0.77,3.826,3.826,0,0,1,1.439-5.25,3.765,3.765,0,0,1,5.314,1.33" transform="translate(-169 -1010)"/>
</svg>
