<svg xmlns="http://www.w3.org/2000/svg" width="24" height="24" viewBox="0 0 24 24">
  <defs>
    <style>
      .cls-1 {
        fill: #222;
        fill-rule: evenodd;
      }
    </style>
  </defs>
  <path id="icon-anpai" class="cls-1" d="M92,2596a12,12,0,1,1,12-12A12,12,0,0,1,92,2596Zm1.8-9.3a0.9,0.9,0,0,0,.639-1.54l-1.537-1.53v-3.23a0.9,0.9,0,0,0-1.8,0v3.6a0.9,0.9,0,0,0,.264.64l1.8,1.8A0.919,0.919,0,0,0,93.8,2586.7Zm-1.8-8.1a5.4,5.4,0,1,1-5.4,5.4A5.4,5.4,0,0,1,92,2578.6Zm0-1.8a7.2,7.2,0,1,0,0,14.4h0A7.2,7.2,0,0,0,92,2576.8Z" transform="translate(-80 -2572)"/>
</svg>
