<?xml version="1.0" standalone="no"?><!DOCTYPE svg PUBLIC "-//W3C//DTD SVG 1.1//EN" "http://www.w3.org/Graphics/SVG/1.1/DTD/svg11.dtd"><svg t="1613612851181" class="icon" viewBox="0 0 1024 1024" version="1.1" xmlns="http://www.w3.org/2000/svg" p-id="993" xmlns:xlink="http://www.w3.org/1999/xlink" width="200" height="200"><defs><style type="text/css"></style></defs><path d="M856.259048 18.529524h-682.666667c-80.457143 0-146.285714 65.828571-146.285714 146.285714v682.666667c0 80.457143 65.828571 146.285714 146.285714 146.285714h682.666667c80.457143 0 146.285714-65.828571 146.285714-146.285714v-682.666667c0-80.457143-65.828571-146.285714-146.285714-146.285714z m-242.834286 302.811428c3.900952-10.24 15.11619-14.140952 24.380952-8.777142 0.487619 0 0.487619 0.487619 0.975238 0.487619 8.289524 5.851429 10.24 17.554286 3.900953 25.843809l-75.093334 101.912381 45.836191-119.466667z m-98.499048-141.897142c16.091429 0 28.281905 13.653333 25.84381 28.769523l-25.84381 180.419048-25.843809-180.419048c-1.950476-15.11619 10.24-28.769524 25.843809-28.769523z m-121.904762 133.12c8.777143-5.36381 20.48-1.462857 24.380953 8.777142L463.238095 440.807619 388.144762 339.382857c0-0.487619-0.487619-0.487619-0.487619-0.975238-5.851429-8.777143-3.413333-20.48 5.363809-25.843809z m-162.377142 35.108571c7.801905-11.702857 25.35619-15.11619 37.059047-6.339048l142.384762 99.961905-166.765714-61.44c-14.628571-4.87619-19.992381-20.48-12.678095-32.182857z m205.775238 158.47619l-135.070477 13.165715c-11.215238 0.975238-21.455238-4.87619-21.455238-13.165715s10.24-14.140952 21.942857-13.165714l134.582858 13.165714z m-205.775238 158.96381c-7.801905-11.702857-1.950476-27.306667 12.190476-32.182857l167.253333-60.952381L268.190476 671.451429c-12.190476 8.289524-29.744762 5.36381-37.546666-6.339048z m91.67238 89.721905l-16.091428-8.777143-16.091429 8.777143 2.925715-19.017143-13.165715-13.653333 18.041905-2.925715 8.289524-17.066666 7.801905 17.066666 18.041904 2.925715-13.165714 13.653333 3.413333 19.017143z m94.598096-63.390476c-3.900952 10.24-15.11619 14.140952-24.380953 8.777142-0.487619 0-0.487619-0.487619-0.975238-0.487619a18.139429 18.139429 0 0 1-3.900952-25.843809l75.093333-101.912381-45.83619 119.466667z m45.83619-210.651429l36.08381-5.36381 16.091428-34.620952 16.091429 34.620952 36.083809 5.36381-26.331428 26.819048 6.339047 38.034285-32.182857-18.041904-32.182857 18.041904 6.339048-38.034285-26.331429-26.819048z m52.175238 352.548571c-16.091429 0-28.281905-13.653333-25.843809-28.769523l25.843809-180.419048 25.84381 180.419048c2.438095 15.11619-9.752381 28.769524-25.84381 28.769523z m96.548572-133.12c-8.777143 5.36381-20.48 1.462857-24.380953-8.777142l-45.83619-119.466667 75.093333 101.912381c0 0.487619 0.487619 0.487619 0.487619 0.975238 5.36381 8.289524 2.925714 19.504762-5.363809 25.35619z m-18.041905-194.072381l135.070476-13.165714c11.215238-0.975238 21.455238 4.87619 21.455238 13.165714s-10.24 14.140952-21.455238 13.165715l-135.070476-13.165715z m205.775238 158.96381c-7.801905 11.702857-25.35619 15.11619-37.059048 6.339048l-142.384761-99.961905 167.253333 60.952381c14.140952 5.36381 19.992381 20.48 12.190476 32.670476z m-12.190476-285.257143l-167.253333 60.952381 142.384761-99.961905c12.190476-8.289524 29.744762-5.36381 37.059048 6.339048 7.801905 12.190476 1.950476 27.306667-12.190476 32.670476z" p-id="994" fill="#00afff"></path></svg>