<svg xmlns="http://www.w3.org/2000/svg" width="40" height="40" viewBox="0 0 40 40">
  <defs>
    <style>
      .cls-1 {
        fill: #00afff;
        fill-rule: evenodd;
      }
    </style>
  </defs>
  <path id="icon-guanyu" class="cls-1" d="M108,1708H92a12,12,0,0,1-12-12v-16a12,12,0,0,1,12-12h16a12,12,0,0,1,12,12v16A12,12,0,0,1,108,1708Zm4.875-8.32H112.32v-9.22a2.357,2.357,0,0,0-1.028-1.96l-7.326-4.87-0.046.07v-7.37a2.3,2.3,0,0,0-.106-0.7c0-.01,0-0.01,0-0.01a2.22,2.22,0,0,0-2.812-1.5l-11.76,3.89a2.311,2.311,0,0,0-1.559,2.21v19.46H87.125a1.161,1.161,0,0,0,0,2.32h17.35a1.161,1.161,0,0,0,0-2.32H103.92v-13.32l6.16,4.1v9.22h-2.235a1.161,1.161,0,0,0,0,2.32h5.03A1.161,1.161,0,0,0,112.875,1699.68Zm-6.71-4.64h1.11a1.161,1.161,0,0,0,0-2.32h-1.11a1.144,1.144,0,0,0-1.125,1.16h0A1.144,1.144,0,0,0,106.165,1695.04ZM89.92,1680.22l11.76-3.89v23.35H89.92v-19.46Zm2.8,13.66a1.143,1.143,0,0,0,1.125,1.16h3.91a1.161,1.161,0,0,0,0-2.32h-3.91a1.144,1.144,0,0,0-1.125,1.16h0Zm1.125-4.06h3.91a1.161,1.161,0,0,0,0-2.32h-3.91A1.161,1.161,0,0,0,93.845,1689.82Zm0-5.22h3.91a1.161,1.161,0,0,0,0-2.32h-3.91A1.161,1.161,0,0,0,93.845,1684.6Z" transform="translate(-80 -1668)"/>
</svg>
